<svg width="48" height="56" viewBox="0 0 48 56" fill="none" xmlns="http://www.w3.org/2000/svg">
<path d="M24 27.9999C27.6373 27.9999 31.1255 26.555 33.6975 23.983C36.2694 21.4111 37.7143 17.9228 37.7143 14.2856C37.7143 10.6483 36.2694 7.16004 33.6975 4.58811C31.1255 2.01618 27.6373 0.571289 24 0.571289C20.3627 0.571289 16.8745 2.01618 14.3025 4.58811C11.7306 7.16004 10.2857 10.6483 10.2857 14.2856C10.2857 17.9228 11.7306 21.4111 14.3025 23.983C16.8745 26.555 20.3627 27.9999 24 27.9999ZM13.7143 33.9141C5.78571 36.2391 0 43.5677 0 52.2463C0 54.0034 1.425 55.4284 3.18214 55.4284H44.8179C46.575 55.4284 48 54.0034 48 52.2463C48 43.5677 42.2143 36.2391 34.2857 33.9141V39.357C37.2429 40.1177 39.4286 42.807 39.4286 45.9999V50.2856C39.4286 51.2284 38.6571 51.9999 37.7143 51.9999H36C35.0571 51.9999 34.2857 51.2284 34.2857 50.2856C34.2857 49.3427 35.0571 48.5713 36 48.5713V45.9999C36 44.1034 34.4679 42.5713 32.5714 42.5713C30.675 42.5713 29.1429 44.1034 29.1429 45.9999V48.5713C30.0857 48.5713 30.8571 49.3427 30.8571 50.2856C30.8571 51.2284 30.0857 51.9999 29.1429 51.9999H27.4286C26.4857 51.9999 25.7143 51.2284 25.7143 50.2856V45.9999C25.7143 42.807 27.9 40.1177 30.8571 39.357V33.2391C30.2143 33.1749 29.5607 33.1427 28.8964 33.1427H19.1036C18.4393 33.1427 17.7857 33.1749 17.1429 33.2391V40.2463C19.6179 40.9856 21.4286 43.2784 21.4286 45.9999C21.4286 49.3106 18.7393 51.9999 15.4286 51.9999C12.1179 51.9999 9.42857 49.3106 9.42857 45.9999C9.42857 43.2784 11.2393 40.9856 13.7143 40.2463V33.9141ZM15.4286 48.5713C16.1106 48.5713 16.7646 48.3004 17.2468 47.8181C17.7291 47.3359 18 46.6818 18 45.9999C18 45.3179 17.7291 44.6638 17.2468 44.1816C16.7646 43.6994 16.1106 43.4284 15.4286 43.4284C14.7466 43.4284 14.0925 43.6994 13.6103 44.1816C13.1281 44.6638 12.8571 45.3179 12.8571 45.9999C12.8571 46.6818 13.1281 47.3359 13.6103 47.8181C14.0925 48.3004 14.7466 48.5713 15.4286 48.5713Z" fill="#188754" fill-opacity="0.7"/>
</svg>
