<svg width="40" height="30" viewBox="0 0 40 30" fill="none" xmlns="http://www.w3.org/2000/svg">
<path d="M7.39981 0.600098C5.64938 0.600098 3.97064 1.29545 2.7329 2.53319C1.49516 3.77093 0.799805 5.44967 0.799805 7.2001V10.2001H39.1998V7.2001C39.1998 5.44967 38.5045 3.77093 37.2667 2.53319C36.029 1.29545 34.3502 0.600098 32.5998 0.600098H7.39981ZM39.1998 12.6001H0.799805V22.8001C0.799805 24.5505 1.49516 26.2293 2.7329 27.467C3.97064 28.7047 5.64938 29.4001 7.39981 29.4001H32.5998C34.3502 29.4001 36.029 28.7047 37.2667 27.467C38.5045 26.2293 39.1998 24.5505 39.1998 22.8001V12.6001ZM28.3998 22.2001H33.1998C33.5181 22.2001 33.8233 22.3265 34.0483 22.5516C34.2734 22.7766 34.3998 23.0818 34.3998 23.4001C34.3998 23.7184 34.2734 24.0236 34.0483 24.2486C33.8233 24.4737 33.5181 24.6001 33.1998 24.6001H28.3998C28.0815 24.6001 27.7763 24.4737 27.5513 24.2486C27.3262 24.0236 27.1998 23.7184 27.1998 23.4001C27.1998 23.0818 27.3262 22.7766 27.5513 22.5516C27.7763 22.3265 28.0815 22.2001 28.3998 22.2001Z" fill="#188754" fill-opacity="0.7"/>
</svg>
