<svg width="40" height="28" viewBox="0 0 40 28" fill="none" xmlns="http://www.w3.org/2000/svg">
<path d="M0 28V16C0 15.1 0.183334 14.2833 0.55 13.55C0.916667 12.8167 1.4 12.1667 2 11.6V6C2 4.33333 2.58333 2.91667 3.75 1.75C4.91667 0.583333 6.33333 0 8 0H16C16.7667 0 17.4833 0.142 18.15 0.426C18.8167 0.71 19.4333 1.10133 20 1.6C20.5667 1.1 21.1833 0.708666 21.85 0.426C22.5167 0.143333 23.2333 0.00133333 24 0H32C33.6667 0 35.0833 0.583333 36.25 1.75C37.4167 2.91667 38 4.33333 38 6V11.6C38.6 12.1667 39.0833 12.8167 39.45 13.55C39.8167 14.2833 40 15.1 40 16V28H36V24H4V28H0ZM22 10H34V6C34 5.43333 33.808 4.95867 33.424 4.576C33.04 4.19333 32.5653 4.00133 32 4H24C23.4333 4 22.9587 4.192 22.576 4.576C22.1933 4.96 22.0013 5.43467 22 6V10ZM6 10H18V6C18 5.43333 17.808 4.95867 17.424 4.576C17.04 4.19333 16.5653 4.00133 16 4H8C7.43333 4 6.95867 4.192 6.576 4.576C6.19333 4.96 6.00133 5.43467 6 6V10Z" fill="#188754" fill-opacity="0.7"/>
</svg>
