<svg width="30" height="36" viewBox="0 0 30 36" fill="none" xmlns="http://www.w3.org/2000/svg">
<path fill-rule="evenodd" clip-rule="evenodd" d="M1.5 0.134766C1.10218 0.134766 0.720645 0.292801 0.43934 0.574106C0.158036 0.85541 0 1.23694 0 1.63477V34.3648C0 34.7626 0.158036 35.1441 0.43934 35.4254C0.720645 35.7067 1.10218 35.8648 1.5 35.8648H28.5C28.8978 35.8648 29.2794 35.7067 29.5607 35.4254C29.842 35.1441 30 34.7626 30 34.3648V13.0918C30.0004 12.8904 29.9602 12.6909 29.8819 12.5054C29.8035 12.3198 29.6886 12.1519 29.544 12.0118L17.733 0.563766C17.4536 0.291394 17.0792 0.138586 16.689 0.137766L1.5 0.134766ZM24.798 11.5918L18.189 5.18077V11.5918H24.798ZM12 13.4998H6V10.4998H12V13.4998ZM24 20.9998H6V17.9998H24V20.9998ZM6 28.4998H24V25.4998H6V28.4998Z" fill="#188754" fill-opacity="0.5"/>
</svg>
