<svg width="183" height="24" viewBox="0 0 183 24" fill="none" xmlns="http://www.w3.org/2000/svg">
<path d="M0.12358 24V0.727272H9.03267C10.7145 0.727272 12.1122 0.992423 13.2259 1.52273C14.3471 2.04545 15.1842 2.76136 15.7372 3.67045C16.2978 4.57954 16.5781 5.60985 16.5781 6.76136C16.5781 7.70833 16.3963 8.51894 16.0327 9.19318C15.669 9.85985 15.1804 10.4015 14.5668 10.8182C13.9531 11.2348 13.2675 11.5341 12.5099 11.7159V11.9432C13.3357 11.9886 14.1274 12.2424 14.8849 12.7045C15.6501 13.1591 16.2751 13.803 16.7599 14.6364C17.2448 15.4697 17.4872 16.4773 17.4872 17.6591C17.4872 18.8636 17.1956 19.947 16.6122 20.9091C16.0289 21.8636 15.1501 22.6174 13.9759 23.1705C12.8016 23.7235 11.3243 24 9.54403 24H0.12358ZM4.33949 20.4773H8.87358C10.4039 20.4773 11.5062 20.1856 12.1804 19.6023C12.8622 19.0114 13.2031 18.2538 13.2031 17.3295C13.2031 16.6402 13.0327 16.0189 12.6918 15.4659C12.3509 14.9053 11.866 14.4659 11.2372 14.1477C10.6084 13.822 9.85843 13.6591 8.98722 13.6591H4.33949V20.4773ZM4.33949 10.625H8.50994C9.23722 10.625 9.89252 10.4924 10.4759 10.2273C11.0592 9.95454 11.5175 9.57197 11.8509 9.07955C12.1918 8.57955 12.3622 7.98864 12.3622 7.30682C12.3622 6.4053 12.044 5.66288 11.4077 5.07954C10.7789 4.49621 9.84328 4.20454 8.60085 4.20454H4.33949V10.625ZM39.4901 10.6705V14.0568H29.0128V10.6705H39.4901ZM51.9361 24V0.727272H56.152V10.5795H66.9361V0.727272H71.1634V24H66.9361V14.1136H56.152V24H51.9361ZM75.7486 24V0.727272H90.8849V4.26136H79.9645V10.5795H90.1009V14.1136H79.9645V20.4659H90.9759V24H75.7486ZM98.1747 24H93.6747L101.868 0.727272H107.072L115.277 24H110.777L104.561 5.5H104.379L98.1747 24ZM98.3224 14.875H110.595V18.2614H98.3224V14.875ZM118.342 24V0.727272H122.558V20.4659H132.808V24H118.342ZM163.655 24V0.727272H167.871V10.5795H178.655V0.727272H182.882V24H178.655V14.1136H167.871V24H163.655Z" fill="#262626"/>
<path d="M145.223 22.4233V2.30966H150.308V22.4233H145.223ZM137.709 14.9091V9.82386H157.822V14.9091H137.709Z" fill="#188754"/>
</svg>
