<svg width="22" height="23" viewBox="0 0 22 23" fill="none" xmlns="http://www.w3.org/2000/svg">
<g clip-path="url(#clip0_343_1964)">
<path d="M7.16651 11.609C7.16651 10.4761 7.17189 9.39079 7.15754 8.30548C7.15754 8.20005 7.03917 8.04914 6.9459 8.00366C6.05811 7.56747 5.64202 6.8708 5.64202 5.77515C5.64202 4.82628 5.64202 3.87534 5.64202 2.92647C5.64022 1.60135 6.47062 0.6132 7.57363 0.625604C8.65692 0.638007 9.47118 1.63443 9.46579 2.93474C9.46221 3.78851 9.46041 4.64023 9.46041 5.494C9.46041 6.97416 9.13041 7.55093 7.94669 8.10289V11.58H10.4289V11.1459C10.4289 10.044 10.4343 8.94426 10.4253 7.84241C10.4217 7.553 10.4971 7.34627 10.7051 7.17882C11.7525 6.33745 12.7964 5.48987 13.8366 4.63609C14.0518 4.45831 14.2401 4.4521 14.4554 4.63402C15.4759 5.494 16.5071 6.33951 17.5151 7.2181C17.6568 7.34214 17.759 7.62742 17.7626 7.84035C17.7859 9.07657 17.7734 10.3149 17.7734 11.6069H18.1339C19.1131 11.6069 20.0924 11.6048 21.0716 11.6069C21.4949 11.6069 21.6456 11.7992 21.5792 12.2684C20.8797 17.2857 18.4513 20.7277 14.2599 22.2223C8.75556 24.1841 3.3517 20.676 1.49541 14.8752C1.24252 14.0835 1.10801 13.2359 0.960942 12.4049C0.84257 11.7433 0.969909 11.6069 1.56894 11.6069C3.28893 11.6069 5.00711 11.6069 6.7271 11.6069H7.1683L7.16651 11.609ZM17.0093 11.5904C17.0093 10.441 17.0004 9.34118 17.0165 8.24346C17.0201 7.95818 16.9286 7.7928 16.7385 7.63775C15.9511 6.9907 15.1692 6.33745 14.3944 5.67179C14.215 5.51674 14.0895 5.50021 13.8994 5.66145C13.2071 6.24856 12.5202 6.84806 11.792 7.36901C11.3328 7.69771 11.1589 8.07395 11.193 8.69826C11.245 9.65333 11.2073 10.6146 11.2073 11.5904H17.0129H17.0093ZM20.738 12.5227C20.634 12.5165 20.53 12.5041 20.4242 12.5041C19.7803 12.5062 19.1346 12.5082 18.4908 12.5206C18.4119 12.5206 18.3294 12.5702 18.254 12.6075C15.1243 14.0938 13.1407 16.7275 12.3103 20.5085C12.2188 20.9261 12.183 21.3582 12.1148 21.8357C12.4592 21.7778 12.73 21.7468 12.9972 21.6848C13.347 21.6042 13.6913 21.4884 14.0411 21.4057C14.2814 21.3478 14.3782 21.1845 14.4554 20.922C15.4418 17.5668 17.325 15.1254 20.1354 13.6824C20.6251 13.4302 20.7578 13.085 20.7398 12.5227H20.738ZM11.3328 21.9163C11.7723 17.7694 13.5102 14.7057 16.4892 12.5392C16.0695 12.5041 15.6749 12.531 15.284 12.5C14.0984 12.4069 13.0815 12.901 12.165 13.6948C10.5634 15.084 9.69716 17.0087 9.28286 19.2206C9.13937 19.9896 9.09095 20.7814 8.99231 21.629C9.83526 21.7323 10.5742 21.8233 11.3311 21.9143L11.3328 21.9163ZM1.75906 12.5041C2.21999 16.6469 5.17929 20.3101 8.25696 21.2734C8.32691 20.5974 8.39507 19.9214 8.46501 19.2372C8.28566 19.1627 8.11707 19.1007 7.95207 19.0222C7.7763 18.9395 7.59874 18.8547 7.43015 18.7534C5.33891 17.4862 4.08525 15.5161 3.6835 12.8266C3.66556 12.7067 3.54181 12.5206 3.4611 12.5165C2.90332 12.4896 2.34374 12.502 1.75726 12.502L1.75906 12.5041ZM8.66409 18.3379C8.78605 17.9348 8.8847 17.5544 9.01921 17.1885C9.09633 16.9797 9.06225 16.8722 8.90622 16.7482C7.65076 15.7456 6.77911 14.406 6.27692 12.7418C6.24823 12.6467 6.14779 12.5165 6.07964 12.5144C5.53441 12.4958 4.98918 12.5041 4.44036 12.5041C4.68428 15.3569 6.63563 17.7446 8.66409 18.3358V18.3379ZM7.93054 7.14368C8.42556 6.92248 8.68023 6.52764 8.69458 6.00462C8.72507 4.91931 8.72328 3.83399 8.69458 2.74868C8.67665 2.03961 8.16729 1.51866 7.57005 1.51246C6.95667 1.50626 6.43475 2.00653 6.41682 2.70527C6.38812 3.81746 6.39529 4.93171 6.41682 6.0439C6.42578 6.56071 6.73786 6.95969 7.16471 7.08786C7.16471 6.22788 7.16471 5.37824 7.16471 4.52859C7.16471 4.20817 7.24184 3.92702 7.57005 3.93736C7.87853 3.94769 7.93413 4.2185 7.93234 4.52653C7.92696 5.37824 7.93054 6.22995 7.93054 7.14368ZM20.3166 14.5631C18.1231 15.5884 15.5028 18.9126 15.3539 20.8207C17.7034 19.4894 19.3445 17.4428 20.3166 14.5631ZM10.0469 14.9414C9.60031 14.1434 9.18421 13.3971 8.76453 12.655C8.73045 12.593 8.66409 12.5144 8.61029 12.5124C8.09555 12.502 7.58081 12.5062 7.01585 12.5062C7.51445 14.0442 8.29104 15.2101 9.42634 16.0887C9.65232 15.6691 9.86575 15.2763 10.0469 14.9414ZM12.1812 12.5268H9.51422C9.89265 13.1181 10.2227 13.6328 10.5383 14.1269C11.1158 13.5625 11.6324 13.0602 12.1812 12.5268Z" fill="url(#paint0_radial_343_1964)"/>
</g>
<defs>
<radialGradient id="paint0_radial_343_1964" cx="0" cy="0" r="1" gradientTransform="matrix(15.015 16.6304 -42.3747 8.27837 3.63941 3.65454)" gradientUnits="userSpaceOnUse">
<stop stop-color="#000817"/>
<stop offset="0.504808" stop-color="#010A20"/>
<stop offset="1" stop-color="#081939"/>
</radialGradient>
<clipPath id="clip0_343_1964">
<rect width="20.6721" height="22.1486" fill="white" transform="translate(0.919434 0.625488)"/>
</clipPath>
</defs>
</svg>
