<svg width="21" height="23" viewBox="0 0 21 23" fill="none" xmlns="http://www.w3.org/2000/svg">
<g clip-path="url(#clip0_343_1185)">
<path d="M20.965 6.67983C20.9714 5.33155 20.7909 5.11475 19.7336 5.16637C19.1889 5.19114 18.9632 5.45543 18.9326 6.15745C18.9117 6.6468 18.9326 7.13614 18.9181 7.62549C18.9133 7.79893 19.0051 8.10864 18.7908 8.10658C18.6103 8.10452 18.6876 7.80306 18.6876 7.63788C18.6796 5.77134 18.6796 3.9048 18.6796 2.03826C18.6796 1.27637 18.4394 0.706493 17.8818 0.398844C17.6287 0.258441 17.3596 0.237793 17.0888 0.237793C15.6108 0.237793 14.1329 0.237793 12.6565 0.237793C9.82471 0.237793 6.99451 0.237793 4.1627 0.237793C3.03771 0.237793 2.55097 0.861349 2.54935 2.28603C2.54935 4.04727 2.54935 5.80644 2.54774 7.56768C2.54774 7.68743 2.54774 7.80513 2.54291 7.92488C2.53807 8.03844 2.51229 8.14168 2.4043 8.14168C2.2802 8.14168 2.29792 8.02399 2.29148 7.91662C2.26408 7.42727 2.28987 6.93999 2.29954 6.45065C2.32049 5.4575 2.08356 5.16017 1.31799 5.16017C1.18422 5.16017 1.04883 5.15604 0.915059 5.17669C0.518573 5.23863 0.318719 5.49879 0.312272 6.01498C0.299378 6.9276 0.297766 7.84229 0.31066 8.75491C0.318719 9.32272 0.570149 9.62005 1.02143 9.63037C1.39374 9.63863 1.76605 9.63037 2.13675 9.63243C2.54613 9.6345 2.54774 9.63656 2.54774 10.1672C2.54774 12.6697 2.54774 15.1701 2.54774 17.6726C2.54774 18.3271 2.63639 18.4386 3.14086 18.4386C5.62131 18.4386 8.10016 18.4386 10.5806 18.4386C13.0707 18.4386 15.5609 18.4386 18.051 18.4386C18.5974 18.4386 18.6747 18.3416 18.6747 17.6334C18.6747 15.1185 18.678 12.6036 18.6699 10.0887C18.6699 9.74806 18.7489 9.61179 19.0245 9.63037C19.4161 9.65515 19.8094 9.64069 20.2026 9.63656C20.6475 9.63037 20.8683 9.38673 20.9279 8.81892C21.0037 8.10658 20.9569 7.39217 20.9618 6.67777L20.965 6.67983ZM4.16431 2.93643C8.46119 2.94469 12.7581 2.94469 17.0533 2.93643C17.3338 2.93643 17.4337 3.04793 17.4305 3.41545C17.4176 4.87111 17.416 6.32676 17.4305 7.78241C17.4337 8.17885 17.3144 8.27176 17.0291 8.27176C14.892 8.26144 12.7532 8.26557 10.6161 8.26557C8.48859 8.26557 6.3611 8.26557 4.23361 8.26557C3.80328 8.26557 3.79845 8.25731 3.79845 7.71428C3.79845 6.28546 3.80489 4.85665 3.79361 3.42784C3.79039 3.07064 3.87581 2.94056 4.16431 2.94056V2.93643ZM17.0485 16.9066C14.9001 16.8962 12.7516 16.9004 10.6048 16.9004C8.4773 16.9004 6.34982 16.9004 4.22233 16.9004C3.79845 16.9004 3.79683 16.8983 3.79683 16.3429C3.79683 14.3194 3.80006 12.2939 3.79361 10.2704C3.79361 9.94421 3.8613 9.79555 4.14336 9.79555C7.01385 9.80587 9.88273 9.79555 12.7532 9.80174C14.1877 9.80587 15.6237 9.83891 17.0582 9.84097C17.345 9.84097 17.4305 9.97105 17.4289 10.3283C17.4192 12.3662 17.4176 14.4041 17.4305 16.4399C17.4321 16.8199 17.3209 16.9045 17.0485 16.9045V16.9066ZM19.7143 7.94346C19.7111 8.06116 19.6676 8.14788 19.5644 8.13962C19.4741 8.13342 19.4419 8.04877 19.4419 7.94966C19.4403 7.5429 19.4403 7.13821 19.4419 6.73145C19.4419 6.62821 19.4854 6.55388 19.5725 6.55182C19.6595 6.55182 19.7062 6.62202 19.7078 6.72526C19.7127 6.9338 19.7078 7.1444 19.7078 7.35294H19.7127C19.7127 7.5491 19.7159 7.74525 19.7127 7.9414L19.7143 7.94346Z" fill="url(#paint0_radial_343_1185)"/>
<path d="M18.0316 19.9396C15.5931 19.9396 13.1561 19.9396 10.7176 19.9396C8.34189 19.9396 5.9662 19.9396 3.59051 19.9396C2.85233 19.9396 2.7653 20.1419 3.13439 20.9926C3.7823 22.4833 5.6503 22.8633 6.71888 21.7132C6.86716 21.5542 7.00738 21.4448 7.21207 21.4448C9.53618 21.451 11.8603 21.451 14.1844 21.4468C14.3472 21.4468 14.4745 21.5088 14.6051 21.643C15.3078 22.3718 16.1072 22.5474 16.9663 22.2356C17.6513 21.9857 18.1573 21.4489 18.3926 20.5652C18.5345 20.0304 18.47 19.9375 18.03 19.9375L18.0316 19.9396Z" fill="url(#paint1_radial_343_1185)"/>
</g>
<defs>
<radialGradient id="paint0_radial_343_1185" cx="0" cy="0" r="1" gradientTransform="matrix(15.0125 13.6687 -42.3677 6.80411 3.01982 2.72742)" gradientUnits="userSpaceOnUse">
<stop stop-color="#000817"/>
<stop offset="0.504808" stop-color="#010A20"/>
<stop offset="1" stop-color="#081939"/>
</radialGradient>
<radialGradient id="paint1_radial_343_1185" cx="0" cy="0" r="1" gradientTransform="matrix(11.2854 1.83861 -31.849 0.915236 4.96512 20.2724)" gradientUnits="userSpaceOnUse">
<stop stop-color="#000817"/>
<stop offset="0.504808" stop-color="#010A20"/>
<stop offset="1" stop-color="#081939"/>
</radialGradient>
<clipPath id="clip0_343_1185">
<rect width="20.6721" height="22.1486" fill="white" transform="translate(0.302246 0.237793)"/>
</clipPath>
</defs>
</svg>
