<svg width="21" height="24" viewBox="0 0 21 24" fill="none" xmlns="http://www.w3.org/2000/svg">
<g clip-path="url(#clip0_343_360)">
<path d="M20.7239 7.2525C20.7281 6.63643 20.4753 6.22307 19.7854 6.15351C19.1855 6.09191 18.7376 6.52713 18.6734 7.19884C18.6519 7.41347 18.6648 7.6281 18.6562 7.84472C18.6434 8.18455 18.6477 8.59394 18.1677 8.61182C17.6192 8.62971 17.632 8.19051 17.6299 7.82882C17.6192 6.87292 17.6299 5.91702 17.6192 4.95913C17.6128 4.3689 17.3021 4.00522 16.6507 3.96349C16.0465 3.92573 15.6287 4.31127 15.5687 4.94324C15.5473 5.18171 15.558 5.42019 15.5558 5.66066C15.5516 6.08992 15.558 6.52117 15.5366 6.95043C15.5216 7.23859 15.378 7.48303 15.0352 7.48501C14.6881 7.48501 14.5574 7.24057 14.5381 6.95043C14.5231 6.71195 14.5252 6.47347 14.5252 6.233C14.521 5.27711 14.5338 4.32121 14.5081 3.36531C14.4931 2.8029 14.1374 2.46108 13.5353 2.45114C12.9076 2.4412 12.5197 2.76315 12.4705 3.36332C12.4426 3.69719 12.4597 4.03305 12.4533 4.36691C12.4469 4.70873 12.4597 5.09427 11.9434 5.09626C11.4291 5.09626 11.4313 4.71271 11.4291 4.37089C11.4227 3.55808 11.4549 2.74328 11.4077 1.93245C11.3584 1.08784 10.5592 0.692366 9.82432 1.10374C9.44507 1.31638 9.35722 1.64827 9.35722 2.02586C9.35722 2.88636 9.35722 3.74687 9.34437 4.60738C9.34008 4.89554 9.22009 5.1519 8.87513 5.16979C8.48089 5.18966 8.35233 4.91939 8.33733 4.60142C8.32233 4.2914 8.3309 3.97939 8.32233 3.66937C8.30305 2.8645 7.9388 2.44319 7.26173 2.42928C6.6168 2.41736 6.26541 2.85258 6.25684 3.69321C6.25041 4.55372 6.26327 5.41423 6.25041 6.27474C6.24613 6.66823 6.3404 7.19884 5.70619 7.20083C5.08482 7.20083 5.24981 6.6722 5.22624 6.31846C5.20053 5.91305 5.23052 5.50565 5.21553 5.10023C5.18553 4.35698 4.79343 3.94958 4.13778 3.95951C3.50999 3.96945 3.16289 4.35102 3.1586 5.0903C3.14789 6.78747 3.15432 8.48463 3.15218 10.1818C3.15218 10.6369 3.15646 11.09 3.14789 11.5451C3.14146 11.8909 3.11361 12.2645 2.60795 12.2585C2.13871 12.2526 2.13657 11.8929 2.12586 11.5769C2.11729 11.3146 2.12157 11.0503 2.12157 10.7879C2.12157 9.64125 2.13443 8.49258 2.11086 7.3459C2.09586 6.57681 1.63948 6.12569 0.983837 6.15947C0.36676 6.18928 0.0582221 6.56489 0.0560795 7.33199C0.0496516 8.88607 0.0560795 10.4402 0.0560795 11.9942C0.0560795 13.6199 0.0603647 15.2455 0.0560795 16.8711C0.0560795 17.4613 0.338906 17.8588 0.990265 17.8886C1.62877 17.9184 1.98444 17.5547 2.08515 16.9864C2.12371 16.7757 2.10872 16.5571 2.12157 16.3425C2.13871 16.0066 2.11086 15.5853 2.60152 15.5794C3.12646 15.5734 3.14146 16.0086 3.14575 16.3743C3.15646 17.2348 3.14146 18.0953 3.15646 18.9558C3.16932 19.715 3.48214 20.0588 4.13778 20.0747C4.81057 20.0925 5.18339 19.711 5.21553 18.9439C5.23481 18.4669 5.21553 17.988 5.22624 17.509C5.23267 17.1473 5.21338 16.6982 5.74261 16.6982C6.27398 16.6982 6.24827 17.1493 6.25041 17.511C6.2547 18.5385 6.2547 19.5679 6.25684 20.5953C6.25684 21.1935 6.57609 21.5473 7.21888 21.5989C7.82953 21.6466 8.25591 21.2631 8.31376 20.6311C8.34162 20.3231 8.32448 20.0091 8.3309 19.6991C8.33733 19.3592 8.41232 19.0552 8.87299 19.0731C9.28652 19.089 9.34651 19.3791 9.34865 19.6871C9.35294 20.4046 9.34865 21.122 9.35508 21.8394C9.36365 22.6741 9.70004 23.0795 10.3771 23.0854C11.0649 23.0914 11.412 22.692 11.4227 21.8632C11.4313 21.1935 11.4206 20.5238 11.4291 19.8561C11.4334 19.5003 11.382 19.0691 11.9584 19.079C12.4769 19.087 12.4405 19.4864 12.4512 19.8223C12.4576 20.0131 12.4512 20.2038 12.4555 20.3966C12.4769 21.2054 12.8583 21.6387 13.5246 21.6168C14.1653 21.5969 14.5124 21.1876 14.521 20.4065C14.5338 19.4745 14.5252 18.5424 14.5317 17.6104C14.5317 17.3043 14.6109 16.9983 15.0009 16.9764C15.4509 16.9526 15.5344 17.2805 15.5451 17.6124C15.558 18.0178 15.5473 18.4252 15.5558 18.8306C15.5751 19.6712 15.9115 20.0747 16.5864 20.0786C17.2721 20.0826 17.6192 19.6851 17.6213 18.8505C17.6278 17.2249 17.6213 15.5992 17.6235 13.9736C17.6235 13.5185 17.6192 13.0654 17.6363 12.6103C17.647 12.2943 17.7735 12.036 18.1806 12.0539C18.5491 12.0698 18.6305 12.3241 18.6434 12.6063C18.6519 12.7971 18.6519 12.9879 18.6519 13.1807C18.6519 14.3512 18.6434 15.5237 18.6584 16.6942C18.6691 17.4713 19.0933 17.9045 19.7725 17.8827C20.3853 17.8628 20.711 17.4753 20.7153 16.7221C20.7239 15.2634 20.7174 13.8047 20.7153 12.348C20.7153 10.6508 20.7067 8.95364 20.7174 7.25647L20.7239 7.2525ZM14.3067 13.0892C12.689 13.9796 11.0606 14.852 9.4215 15.7046C8.2752 16.3008 7.37958 15.9033 7.32173 14.687C7.23602 12.8746 7.25959 11.0562 7.3003 9.23981C7.3153 8.52041 7.91952 8.04345 8.59231 8.04941C8.9437 8.05537 9.23295 8.21635 9.52221 8.37136C11.1077 9.21795 12.6933 10.0646 14.2703 10.9251C15.3052 11.4895 15.3287 12.5268 14.3067 13.0892Z" fill="url(#paint0_radial_343_360)"/>
</g>
<defs>
<radialGradient id="paint0_radial_343_360" cx="0" cy="0" r="1" gradientTransform="matrix(15.0131 16.6312 -42.3693 8.2788 2.77139 3.96915)" gradientUnits="userSpaceOnUse">
<stop stop-color="#000817"/>
<stop offset="0.504808" stop-color="#010A20"/>
<stop offset="1" stop-color="#081939"/>
</radialGradient>
<clipPath id="clip0_343_360">
<rect width="20.6721" height="22.1486" fill="white" transform="translate(0.0517578 0.938965)"/>
</clipPath>
</defs>
</svg>
