<svg width="118" height="46" viewBox="0 0 118 46" fill="none" xmlns="http://www.w3.org/2000/svg">
<path d="M46.309 27V15.6364H53.4335V17.1123H48.0235V20.5747H53.0617V22.0451H48.0235V25.5241H53.5V27H46.309ZM56.9295 21.9396V27H55.2705V18.4773H56.863V19.8644H56.9684C57.1644 19.4131 57.4715 19.0506 57.8895 18.7769C58.3112 18.5032 58.842 18.3663 59.4819 18.3663C60.0627 18.3663 60.5713 18.4884 61.0078 18.7325C61.4443 18.973 61.7828 19.3318 62.0232 19.8089C62.2636 20.2861 62.3839 20.8761 62.3839 21.579V27H60.7248V21.7787C60.7248 21.161 60.5639 20.6782 60.2421 20.3305C59.9203 19.9791 59.4782 19.8034 58.916 19.8034C58.5313 19.8034 58.1891 19.8866 57.8895 20.0531C57.5935 20.2195 57.3586 20.4637 57.1848 20.7855C57.0146 21.1036 56.9295 21.4883 56.9295 21.9396ZM67.8622 30.3736C67.1853 30.3736 66.6027 30.2848 66.1144 30.1072C65.6298 29.9297 65.234 29.6948 64.927 29.4026C64.6199 29.1103 64.3906 28.7904 64.2389 28.4426L65.6649 27.8545C65.7648 28.0173 65.898 28.1893 66.0644 28.3705C66.2346 28.5555 66.4639 28.7127 66.7525 28.8422C67.0447 28.9716 67.4202 29.0364 67.8789 29.0364C68.5077 29.0364 69.0274 28.8828 69.438 28.5758C69.8486 28.2725 70.0539 27.7879 70.0539 27.1221V25.4464H69.9485C69.8486 25.6276 69.7044 25.8292 69.5157 26.0512C69.3308 26.2731 69.0755 26.4655 68.75 26.6282C68.4245 26.791 68.0009 26.8724 67.4794 26.8724C66.8061 26.8724 66.1995 26.7152 65.6594 26.4007C65.123 26.0826 64.6976 25.6147 64.3832 24.9969C64.0725 24.3755 63.9171 23.6116 63.9171 22.7053C63.9171 21.7991 64.0706 21.0223 64.3777 20.3749C64.6884 19.7276 65.1138 19.2319 65.6538 18.8879C66.1939 18.5402 66.8061 18.3663 67.4904 18.3663C68.0194 18.3663 68.4467 18.4551 68.7722 18.6326C69.0977 18.8065 69.3511 19.0099 69.5324 19.243C69.7173 19.476 69.8597 19.6813 69.9596 19.8589H70.0817V18.4773H71.7074V27.1887C71.7074 27.9211 71.5373 28.5222 71.1969 28.992C70.8566 29.4618 70.3961 29.8095 69.8153 30.0351C69.2383 30.2608 68.5872 30.3736 67.8622 30.3736ZM67.8456 25.4963C68.3227 25.4963 68.7259 25.3853 69.0552 25.1634C69.3881 24.9378 69.6396 24.6159 69.8098 24.1979C69.9836 23.7762 70.0706 23.2713 70.0706 22.6831C70.0706 22.1098 69.9855 21.6049 69.8153 21.1684C69.6452 20.7319 69.3955 20.3916 69.0663 20.1474C68.737 19.8996 68.3301 19.7757 67.8456 19.7757C67.3462 19.7757 66.93 19.9051 66.5971 20.1641C66.2642 20.4193 66.0127 20.767 65.8425 21.2072C65.676 21.6474 65.5928 22.1394 65.5928 22.6831C65.5928 23.2417 65.6779 23.7318 65.848 24.1535C66.0182 24.5752 66.2697 24.9045 66.6027 25.1412C66.9393 25.3779 67.3536 25.4963 67.8456 25.4963ZM75.2715 15.6364V27H73.6124V15.6364H75.2715ZM77.1834 27V18.4773H78.8425V27H77.1834ZM78.0213 17.1622C77.7327 17.1622 77.4849 17.0661 77.2777 16.8737C77.0743 16.6777 76.9726 16.4446 76.9726 16.1746C76.9726 15.9008 77.0743 15.6678 77.2777 15.4755C77.4849 15.2794 77.7327 15.1814 78.0213 15.1814C78.3098 15.1814 78.5558 15.2794 78.7592 15.4755C78.9664 15.6678 79.07 15.9008 79.07 16.1746C79.07 16.4446 78.9664 16.6777 78.7592 16.8737C78.5558 17.0661 78.3098 17.1622 78.0213 17.1622ZM87.1409 20.558L85.6372 20.8244C85.5743 20.632 85.4745 20.4489 85.3376 20.275C85.2044 20.1012 85.0232 19.9588 84.7938 19.8478C84.5645 19.7368 84.2778 19.6813 83.9338 19.6813C83.464 19.6813 83.0719 19.7868 82.7575 19.9976C82.4431 20.2048 82.2858 20.4729 82.2858 20.8022C82.2858 21.087 82.3913 21.3163 82.6021 21.4902C82.813 21.664 83.1533 21.8065 83.6231 21.9174L84.9769 22.2282C85.7611 22.4094 86.3456 22.6887 86.7303 23.066C87.115 23.4433 87.3074 23.9334 87.3074 24.5364C87.3074 25.0469 87.1594 25.5019 86.8635 25.9014C86.5713 26.2972 86.1625 26.6079 85.6372 26.8335C85.1157 27.0592 84.5109 27.172 83.8228 27.172C82.8685 27.172 82.0898 26.9686 81.4868 26.5617C80.8839 26.1511 80.514 25.5684 80.3771 24.8138L81.9807 24.5697C82.0805 24.9877 82.2858 25.304 82.5966 25.5185C82.9073 25.7294 83.3123 25.8348 83.8117 25.8348C84.3555 25.8348 84.7901 25.722 85.1157 25.4963C85.4412 25.267 85.6039 24.9877 85.6039 24.6585C85.6039 24.3921 85.5041 24.1683 85.3043 23.9871C85.1083 23.8058 84.8068 23.669 84.3999 23.5765L82.9572 23.2602C82.1619 23.079 81.5738 22.7904 81.1928 22.3946C80.8155 21.9988 80.6268 21.4976 80.6268 20.8909C80.6268 20.3879 80.7674 19.9477 81.0485 19.5704C81.3296 19.193 81.718 18.899 82.2137 18.6881C82.7094 18.4736 83.2772 18.3663 83.9171 18.3663C84.8382 18.3663 85.5632 18.5661 86.0922 18.9656C86.6212 19.3614 86.9708 19.8922 87.1409 20.558ZM90.4705 21.9396V27H88.8115V15.6364H90.4483V19.8644H90.5538C90.7535 19.4057 91.0587 19.0414 91.4693 18.7714C91.8799 18.5013 92.4163 18.3663 93.0784 18.3663C93.6629 18.3663 94.1733 18.4865 94.6098 18.727C95.05 18.9674 95.3903 19.3262 95.6308 19.8034C95.8749 20.2769 95.997 20.8687 95.997 21.579V27H94.3379V21.7787C94.3379 21.1536 94.177 20.669 93.8552 20.325C93.5334 19.9773 93.0858 19.8034 92.5124 19.8034C92.1203 19.8034 91.7689 19.8866 91.4582 20.0531C91.1512 20.2195 90.9089 20.4637 90.7313 20.7855C90.5575 21.1036 90.4705 21.4883 90.4705 21.9396Z" fill="#21201F"/>
<g clip-path="url(#clip0_204_3955)">
<g clip-path="url(#clip1_204_3955)">
<mask id="mask0_204_3955" style="mask-type:luminance" maskUnits="userSpaceOnUse" x="7" y="7" width="25" height="25">
<path d="M31.2485 7.81201H7.8125V31.248H31.2485V7.81201Z" fill="white"/>
</mask>
<g mask="url(#mask0_204_3955)">
<path d="M19.5306 29.2949C14.1374 29.2949 9.76562 24.9231 9.76562 19.5299C9.76562 14.1367 14.1374 9.76489 19.5306 9.76489C24.9238 9.76489 29.2956 14.1367 29.2956 19.5299C29.2956 24.9231 24.9238 29.2949 19.5306 29.2949ZM17.2944 27.0167C16.331 24.9732 15.773 22.7623 15.651 20.5064H11.7792C11.9692 22.0091 12.5915 23.4244 13.5707 24.5801C14.5497 25.7357 15.8434 26.5823 17.2944 27.0167ZM17.6069 20.5064C17.7544 22.8881 18.435 25.1252 19.5306 27.0997C20.6558 25.0731 21.3131 22.8202 21.4543 20.5064H17.6069ZM27.2821 20.5064H23.4103C23.2883 22.7623 22.7302 24.9732 21.7668 27.0167C23.2179 26.5823 24.5116 25.7357 25.4906 24.5801C26.4697 23.4244 27.0921 22.0091 27.2821 20.5064ZM11.7792 18.5534H15.651C15.773 16.2975 16.331 14.0866 17.2944 12.0431C15.8434 12.4775 14.5497 13.324 13.5707 14.4797C12.5915 15.6354 11.9692 17.0507 11.7792 18.5534ZM17.6079 18.5534H21.4534C21.3125 16.2397 20.6556 13.9868 19.5306 11.9601C18.4054 13.9867 17.7491 16.2396 17.6079 18.5534ZM21.7668 12.0431C22.7302 14.0866 23.2883 16.2975 23.4103 18.5534H27.2821C27.0921 17.0507 26.4697 15.6354 25.4906 14.4797C24.5116 13.324 23.2179 12.4775 21.7668 12.0431Z" fill="#21201F"/>
</g>
<path d="M38.5718 19.53C38.5718 9.01356 30.0465 0.488281 19.53 0.488281C9.01356 0.488281 0.488281 9.01356 0.488281 19.53C0.488281 30.0465 9.01356 38.5718 19.53 38.5718C30.0465 38.5718 38.5718 30.0465 38.5718 19.53Z" stroke="#E5E5E5" stroke-width="0.9765"/>
</g>
</g>
<defs>
<clipPath id="clip0_204_3955">
<rect width="39.06" height="40" fill="white"/>
</clipPath>
<clipPath id="clip1_204_3955">
<rect width="39.06" height="39.06" fill="white"/>
</clipPath>
</defs>
</svg>
