<svg width="40" height="32" viewBox="0 0 40 32" fill="none" xmlns="http://www.w3.org/2000/svg">
<path d="M20.0041 2.73239e-05C25.7361 2.73239e-05 33.4041 2.73003 39.0681 6.31003C39.4051 6.52285 39.6709 6.83152 39.8312 7.19643C39.9916 7.56134 40.0393 7.96584 39.9681 8.35803L35.9681 30.358C35.8843 30.8189 35.6414 31.2356 35.2817 31.5357C34.9221 31.8358 34.4685 32.0001 34.0001 32H6.00011C5.53173 32.0001 5.07817 31.8358 4.71852 31.5357C4.35888 31.2356 4.11596 30.8189 4.03211 30.358L0.0321141 8.35803C-0.0390261 7.96584 0.00864208 7.56134 0.169002 7.19643C0.329362 6.83152 0.595099 6.52285 0.932114 6.31003C6.60011 2.72603 14.3801 -0.00997268 20.0041 2.73239e-05ZM20.0001 10C19.4697 10 18.961 10.2107 18.5859 10.5858C18.2108 10.9609 18.0001 11.4696 18.0001 12V14H16.0001C15.5102 14.0001 15.0374 14.1799 14.6714 14.5055C14.3053 14.831 14.0714 15.2795 14.0141 15.766L14.0001 16C14.0001 16.5305 14.2108 17.0392 14.5859 17.4142C14.961 17.7893 15.4697 18 16.0001 18H18.0001V20C18.0002 20.4899 18.18 20.9627 18.5055 21.3288C18.8311 21.6948 19.2796 21.9287 19.7661 21.986L20.0001 22C20.5305 22 21.0393 21.7893 21.4143 21.4142C21.7894 21.0392 22.0001 20.5305 22.0001 20V18H24.0001C24.49 18 24.9628 17.8201 25.3289 17.4946C25.6949 17.1691 25.9288 16.7205 25.9861 16.234L26.0001 16C26.0001 15.4696 25.7894 14.9609 25.4143 14.5858C25.0393 14.2107 24.5305 14 24.0001 14H22.0001V12C22 11.5102 21.8202 11.0374 21.4947 10.6713C21.1692 10.3052 20.7206 10.0713 20.2341 10.014L20.0001 10Z" fill="#188754" fill-opacity="0.7"/>
</svg>
