<svg width="36" height="44" viewBox="0 0 36 44" fill="none" xmlns="http://www.w3.org/2000/svg">
<path d="M4.90953 32.9089H7.09135V28.5453H4.90953V32.9089ZM7.09135 35.0907H9.27317V32.9089H7.09135V35.0907ZM24.5459 43.818H11.455V41.6362H7.09135V39.4544H4.90953V37.2726H2.72772V32.9089H0.545898V26.3635H2.72772V24.1816H4.90953V19.818H7.09135V17.6362H9.27317V13.2726H11.455V8.90891H13.6368V4.54528H15.8186V0.181641H20.1823V4.54528H22.3641V8.90891H24.5459V13.2726H26.7277V17.6362H28.9095V19.818H31.0914V24.1816H33.2732V26.3635H35.455V32.9089H33.2732V37.2726H31.0914V39.4544H28.9095V41.6362H24.5459V43.818ZM13.6368 37.2726V35.0907H9.27317V37.2726H13.6368ZM20.1823 39.4544V37.2726H13.6368V39.4544H20.1823Z" fill="#188754" fill-opacity="0.7"/>
</svg>
