<svg width="48" height="48" viewBox="0 0 48 48" fill="none" xmlns="http://www.w3.org/2000/svg">
<path d="M32.0002 17.6267V5.33333H34.6669V0H13.3331V5.33333H15.9998V17.6267L0.372875 43.9733C0.132825 44.3782 0.00421223 44.8394 0.000101718 45.31C-0.0040088 45.7807 0.11653 46.2441 0.349472 46.6531C0.582415 47.0621 0.919461 47.4021 1.32637 47.6387C1.73329 47.8753 2.19557 47.9999 2.66625 48H45.3337C45.8044 47.9999 46.2667 47.8753 46.6736 47.6387C47.0805 47.4021 47.4176 47.0621 47.6505 46.6531C47.8835 46.2441 48.004 45.7807 47.9999 45.31C47.9958 44.8394 47.8672 44.3782 47.6271 43.9733L32.0002 17.6267ZM20.7999 19.9733C21.1461 19.5117 21.3333 18.9503 21.3333 18.3733V5.33333H26.6667V18.3733C26.6669 18.852 26.7958 19.3217 27.0401 19.7333L32.7468 29.3333H15.2532L20.7999 19.9733Z" fill="#188754" fill-opacity="0.7"/>
</svg>
