<svg width="147" height="45" viewBox="0 0 147 45" fill="none" xmlns="http://www.w3.org/2000/svg">
<mask id="path-1-inside-1_204_2618" fill="white">
<path d="M0 8.00001C0 3.58173 3.58172 0 8 0H139C143.418 0 147 3.58172 147 8V36.69C147 41.1083 143.418 44.69 139 44.69H8C3.58172 44.69 0 41.1083 0 36.69V8.00001Z"/>
</mask>
<path d="M8 0V1H139V0V-1H8V0ZM147 8H146V36.69H147H148V8H147ZM139 44.69V43.69H8V44.69V45.69H139V44.69ZM0 36.69H1V8.00001H0H-1V36.69H0ZM8 44.69V43.69C4.13401 43.69 1 40.556 1 36.69H0H-1C-1 41.6606 3.02944 45.69 8 45.69V44.69ZM147 36.69H146C146 40.556 142.866 43.69 139 43.69V44.69V45.69C143.971 45.69 148 41.6605 148 36.69H147ZM139 0V1C142.866 1 146 4.13401 146 8H147H148C148 3.02944 143.971 -1 139 -1V0ZM8 0V-1C3.02944 -1 -1 3.02945 -1 8.00001H0H1C1 4.13402 4.13401 1 8 1V0Z" fill="#545454" mask="url(#path-1-inside-1_204_2618)"/>
<g clip-path="url(#clip0_204_2618)">
<g clip-path="url(#clip1_204_2618)">
<g clip-path="url(#clip2_204_2618)">
<mask id="mask0_204_2618" style="mask-type:luminance" maskUnits="userSpaceOnUse" x="1" y="0" width="145" height="44">
<path d="M138.883 0.995117H8.11656C4.18619 0.995117 1 4.18131 1 8.11168V36.5779C1 40.5083 4.18619 43.6945 8.11656 43.6945H138.883C142.814 43.6945 146 40.5083 146 36.5779V8.11168C146 4.18131 142.814 0.995117 138.883 0.995117Z" fill="white"/>
</mask>
<g mask="url(#mask0_204_2618)">
<path d="M128.165 0.995254H12.58C12.1586 0.995254 11.7424 0.995254 11.3222 0.997358C10.9704 0.999462 10.6215 1.00557 10.2663 1.01072C9.49484 1.01903 8.72514 1.08118 7.96394 1.19662C7.20382 1.31457 6.4675 1.53695 5.7799 1.85623C5.09314 2.17821 4.46563 2.59659 3.92013 3.09619C3.37177 3.59439 2.91467 4.17023 2.5664 4.8016C2.21718 5.4317 1.97502 6.10691 1.8483 6.80391C1.72038 7.50003 1.65154 8.20418 1.64241 8.91004C1.63174 9.23258 1.63062 9.5562 1.625 9.87879V34.1952C1.63062 34.5219 1.63174 34.8383 1.64241 35.1651C1.65154 35.8709 1.72038 36.575 1.8483 37.2711C1.97467 37.9685 2.21684 38.6441 2.5664 39.2744C2.91451 39.9038 3.37167 40.4773 3.92013 40.9727C4.46356 41.4745 5.09148 41.8932 5.7799 42.2127C6.46749 42.5328 7.20373 42.7565 7.96394 42.8763C8.72526 42.9909 9.49488 43.053 10.2663 43.0623C10.6215 43.0695 10.9704 43.0736 11.3222 43.0736C11.7424 43.0757 12.1587 43.0756 12.58 43.0756H128.165C128.579 43.0756 128.998 43.0757 129.411 43.0736C129.761 43.0736 130.121 43.0695 130.47 43.0623C131.241 43.0535 132.008 42.9913 132.768 42.8763C133.531 42.7557 134.27 42.5321 134.961 42.2127C135.648 41.893 136.276 41.4743 136.819 40.9727C137.366 40.4753 137.824 39.9023 138.177 39.2744C138.524 38.6436 138.764 37.9681 138.887 37.2711C139.016 36.5749 139.088 35.871 139.101 35.1651C139.105 34.8383 139.105 34.5219 139.105 34.1952C139.114 33.8131 139.114 33.4329 139.114 33.0446V11.0273C139.114 10.6421 139.114 10.2599 139.105 9.87879C139.105 9.5562 139.105 9.23258 139.101 8.90999C139.088 8.20407 139.016 7.50008 138.887 6.80387C138.763 6.10727 138.523 5.43211 138.177 4.80155C137.468 3.53607 136.342 2.50596 134.961 1.85614C134.27 1.53764 133.531 1.31532 132.768 1.19652C132.008 1.08057 131.241 1.01841 130.47 1.01057C130.121 1.00544 129.761 0.999273 129.411 0.997221C128.998 0.995117 128.579 0.995254 128.165 0.995254Z" fill="#A6A6A6"/>
<path d="M128.165 0.995254H12.58C12.1586 0.995254 11.7424 0.995254 11.3222 0.997358C10.9704 0.999462 10.6215 1.00557 10.2663 1.01072C9.49484 1.01903 8.72514 1.08118 7.96394 1.19662C7.20382 1.31457 6.4675 1.53695 5.7799 1.85623C5.09314 2.17821 4.46563 2.59659 3.92013 3.09619C3.37177 3.59439 2.91467 4.17023 2.5664 4.8016C2.21718 5.4317 1.97502 6.10691 1.8483 6.80391C1.72038 7.50003 1.65154 8.20418 1.64241 8.91004C1.63174 9.23258 1.63062 9.5562 1.625 9.87879V34.1952C1.63062 34.5219 1.63174 34.8383 1.64241 35.1651C1.65154 35.8709 1.72038 36.575 1.8483 37.2711C1.97467 37.9685 2.21684 38.6441 2.5664 39.2744C2.91451 39.9038 3.37167 40.4773 3.92013 40.9727C4.46356 41.4745 5.09148 41.8932 5.7799 42.2127C6.46749 42.5328 7.20373 42.7565 7.96394 42.8763C8.72526 42.9909 9.49488 43.053 10.2663 43.0623C10.6215 43.0695 10.9704 43.0736 11.3222 43.0736C11.7424 43.0757 12.1587 43.0756 12.58 43.0756H128.165C128.579 43.0756 128.998 43.0757 129.411 43.0736C129.761 43.0736 130.121 43.0695 130.47 43.0623C131.241 43.0535 132.008 42.9913 132.768 42.8763C133.531 42.7557 134.27 42.5321 134.961 42.2127C135.648 41.893 136.276 41.4743 136.819 40.9727C137.366 40.4753 137.824 39.9023 138.177 39.2744C138.524 38.6436 138.764 37.9681 138.887 37.2711C139.016 36.5749 139.088 35.871 139.101 35.1651C139.105 34.8383 139.105 34.5219 139.105 34.1952C139.114 33.8131 139.114 33.4329 139.114 33.0446V11.0273C139.114 10.6421 139.114 10.2599 139.105 9.87879C139.105 9.5562 139.105 9.23258 139.101 8.90999C139.088 8.20407 139.016 7.50008 138.887 6.80387C138.763 6.10727 138.523 5.43211 138.177 4.80155C137.468 3.53607 136.342 2.50596 134.961 1.85614C134.27 1.53764 133.531 1.31532 132.768 1.19652C132.008 1.08057 131.241 1.01841 130.47 1.01057C130.121 1.00544 129.761 0.999273 129.411 0.997221C128.998 0.995117 128.579 0.995254 128.165 0.995254Z" fill="black"/>
<path d="M9.0161 43.6923C8.63496 43.6923 8.26301 43.6879 7.88485 43.6804C7.10147 43.6712 6.31992 43.6103 5.54661 43.4983C4.82554 43.3874 4.12701 43.1813 3.47407 42.8867C2.82712 42.5945 2.23705 42.2113 1.72646 41.7519C1.20848 41.2978 0.777241 40.7713 0.449827 40.193C0.118805 39.6109 -0.110279 38.9871 -0.229454 38.3431C-0.358149 37.6512 -0.427775 36.9515 -0.437738 36.2501C-0.445673 36.0148 -0.456055 35.2309 -0.456055 35.2309V9.44451C-0.456055 9.44451 -0.444997 8.67272 -0.437676 8.44596C-0.42814 7.74571 -0.358914 7.04712 -0.230602 6.35624C-0.111213 5.7105 0.118052 5.08483 0.449251 4.5009C0.775461 3.92302 1.20431 3.39605 1.71917 2.94041C2.23345 2.48044 2.8254 2.09531 3.47345 1.79906C4.1249 1.50536 4.82211 1.30068 5.54171 1.19188C6.31757 1.07865 7.10183 1.01744 7.88793 1.00875L9.01672 0.995117H137.577L138.72 1.00929C139.499 1.01755 140.276 1.07822 141.045 1.19079C141.772 1.30095 142.476 1.50705 143.135 1.80233C144.433 2.39937 145.489 3.34392 146.156 4.50362C146.482 5.08353 146.708 5.70409 146.825 6.34425C146.955 7.0408 147.028 7.74488 147.042 8.45087C147.047 8.767 147.047 9.10657 147.047 9.44451C147.057 9.86311 147.057 10.2615 147.057 10.6632V34.0252C147.057 34.4307 147.057 34.8265 147.047 35.2254C147.047 35.5884 147.047 35.9209 147.042 36.2632C147.027 36.9566 146.955 37.6481 146.828 38.3322C146.711 38.9808 146.483 39.6095 146.152 40.1964C145.823 40.7683 145.394 41.2903 144.882 41.7431C144.371 42.2051 143.78 42.5905 143.131 42.8845C142.475 43.1815 141.771 43.3883 141.045 43.4983C140.271 43.611 139.49 43.6718 138.706 43.6804C138.34 43.6879 137.956 43.6923 137.584 43.6923L136.228 43.6945L9.0161 43.6923Z" fill="black"/>
<path d="M30.1571 22.0876C30.1696 21.1293 30.4267 20.1897 30.9044 19.3562C31.3822 18.5228 32.0651 17.8225 32.8897 17.3206C32.3659 16.5799 31.6749 15.9703 30.8715 15.5402C30.0681 15.1102 29.1746 14.8716 28.2618 14.8433C26.3146 14.641 24.4269 15.997 23.4347 15.997C22.4233 15.997 20.8956 14.8634 19.2505 14.897C18.1864 14.931 17.1494 15.2373 16.2405 15.7862C15.3315 16.3351 14.5816 17.1077 14.064 18.0288C11.8214 21.8732 13.4941 27.523 15.6423 30.6305C16.7171 32.1521 17.9732 33.8518 19.6169 33.7915C21.2252 33.7255 21.8258 32.776 23.7672 32.776C25.6907 32.776 26.2542 33.7915 27.9312 33.7532C29.657 33.7255 30.7444 32.2248 31.7815 30.6887C32.5537 29.6045 33.1479 28.4062 33.5421 27.1383C32.5395 26.7183 31.6838 26.0155 31.0819 25.1174C30.4799 24.2192 30.1583 23.1655 30.1571 22.0876Z" fill="white"/>
<path d="M26.9901 12.8001C27.9311 11.6815 28.3948 10.2439 28.2825 8.79248C26.8449 8.94198 25.5168 9.6223 24.5631 10.6978C24.0968 11.2233 23.7397 11.8346 23.5122 12.4968C23.2846 13.159 23.191 13.8591 23.2369 14.5571C23.9561 14.5644 24.6675 14.4101 25.3176 14.1057C25.9677 13.8014 26.5396 13.355 26.9901 12.8001Z" fill="white"/>
<path d="M52.7461 29.9729H47.2637L45.9471 33.8221H43.625L48.8179 19.5811H51.2305L56.4233 33.8221H54.0615L52.7461 29.9729ZM47.8315 28.1967H52.1772L50.0349 21.9498H49.975L47.8315 28.1967Z" fill="white"/>
<path d="M67.6376 28.6311C67.6376 31.8576 65.8934 33.9306 63.2614 33.9306C62.5946 33.9652 61.9315 33.813 61.348 33.4918C60.7646 33.1705 60.2842 32.6931 59.962 32.1141H59.9122V37.2568H57.7598V23.4391H59.8432V25.1661H59.8828C60.2198 24.5899 60.7082 24.1149 61.2963 23.7917C61.8842 23.4684 62.5497 23.3091 63.2218 23.3305C65.8831 23.3305 67.6376 25.4135 67.6376 28.6311ZM65.4251 28.6311C65.4251 26.5291 64.328 25.147 62.654 25.147C61.0094 25.147 59.9032 26.5582 59.9032 28.6311C59.9032 30.7231 61.0094 32.1242 62.654 32.1242C64.328 32.1242 65.4251 30.7523 65.4251 28.6311Z" fill="white"/>
<path d="M79.1786 28.6311C79.1786 31.8576 77.4345 33.9306 74.8024 33.9306C74.1357 33.9652 73.4726 33.813 72.889 33.4918C72.3056 33.1705 71.8252 32.6931 71.503 32.1141H71.4532V37.2568H69.3008V23.4391H71.3842V25.1661H71.4238C71.7608 24.5898 72.2493 24.1149 72.8372 23.7916C73.4252 23.4684 74.0907 23.3091 74.7627 23.3305C77.4243 23.3305 79.1786 25.4135 79.1786 28.6311ZM76.9662 28.6311C76.9662 26.5291 75.869 25.147 74.195 25.147C72.5504 25.147 71.4442 26.5582 71.4442 28.6311C71.4442 30.7231 72.5504 32.1242 74.195 32.1242C75.869 32.1242 76.9662 30.7522 76.9662 28.6311Z" fill="white"/>
<path d="M86.8069 29.8543C86.9664 31.2666 88.352 32.1938 90.2457 32.1938C92.0595 32.1938 93.3645 31.2665 93.3645 29.9932C93.3645 28.8878 92.5782 28.2259 90.7136 27.7723L88.8497 27.3277C86.2086 26.6961 84.9825 25.4732 84.9825 23.4886C84.9825 21.0315 87.1451 19.3438 90.2164 19.3438C93.2551 19.3438 95.3385 21.0315 95.4088 23.4886H93.2356C93.1057 22.0674 91.919 21.2095 90.1852 21.2095C88.4515 21.2095 87.265 22.0775 87.265 23.3408C87.265 24.3476 88.0228 24.94 89.8767 25.3935L91.4618 25.7788C94.4125 26.4698 95.6383 27.6435 95.6383 29.7266C95.6383 32.3908 93.4953 34.0596 90.0856 34.0596C86.8962 34.0596 84.7426 32.43 84.6035 29.8542L86.8069 29.8543Z" fill="white"/>
<path d="M100.284 20.9819V23.439H102.278V25.1267H100.284V30.8507C100.284 31.7399 100.683 32.1542 101.56 32.1542C101.796 32.1501 102.033 32.1337 102.268 32.1049V33.7826C101.874 33.8555 101.473 33.8885 101.072 33.8812C98.9496 33.8812 98.1214 33.0916 98.1214 31.0779V25.1267H96.5967V23.439H98.1214V20.9819H100.284Z" fill="white"/>
<path d="M103.433 28.6316C103.433 25.3649 105.376 23.312 108.406 23.312C111.447 23.312 113.381 25.3648 113.381 28.6316C113.381 31.9075 111.457 33.9513 108.406 33.9513C105.357 33.9513 103.433 31.9074 103.433 28.6316ZM111.188 28.6316C111.188 26.3907 110.151 25.0681 108.406 25.0681C106.663 25.0681 105.626 26.4008 105.626 28.6316C105.626 30.8816 106.663 32.1942 108.406 32.1942C110.151 32.1942 111.188 30.8816 111.188 28.6316Z" fill="white"/>
<path d="M115.155 23.439H117.208V25.2063H117.258C117.397 24.6544 117.723 24.1665 118.183 23.8249C118.642 23.4833 119.206 23.3087 119.78 23.3304C120.028 23.3295 120.276 23.3562 120.518 23.4099V25.4034C120.204 25.3086 119.878 25.2651 119.551 25.2746C119.238 25.262 118.926 25.3166 118.637 25.4346C118.348 25.5526 118.087 25.7312 117.875 25.9581C117.661 26.185 117.5 26.4549 117.402 26.7493C117.304 27.0437 117.272 27.3555 117.308 27.6633V33.8218H115.155V23.439Z" fill="white"/>
<path d="M130.441 30.7729C130.152 32.6578 128.298 33.9513 125.927 33.9513C122.875 33.9513 120.982 31.9276 120.982 28.6809C120.982 25.4242 122.886 23.312 125.836 23.312C128.737 23.312 130.561 25.2853 130.561 28.4334V29.1636H123.156V29.2924C123.121 29.6746 123.169 30.0595 123.297 30.4217C123.424 30.7839 123.629 31.1151 123.896 31.3932C124.162 31.6714 124.486 31.8901 124.844 32.035C125.203 32.1799 125.589 32.2475 125.976 32.2333C126.484 32.2805 126.995 32.1639 127.432 31.9007C127.868 31.6377 128.207 31.2421 128.398 30.7729H130.441ZM123.165 27.6741H128.408C128.427 27.3306 128.375 26.9867 128.254 26.6643C128.132 26.3418 127.945 26.0475 127.703 25.8001C127.462 25.5527 127.171 25.3573 126.85 25.2264C126.529 25.0953 126.184 25.0316 125.836 25.0389C125.485 25.0369 125.138 25.1036 124.814 25.2352C124.489 25.3667 124.195 25.5607 123.946 25.8057C123.697 26.0506 123.501 26.3419 123.367 26.6626C123.233 26.9833 123.165 27.3271 123.165 27.6741Z" fill="white"/>
<path d="M47.5591 8.83589C48.0106 8.80381 48.4637 8.87135 48.8856 9.03363C49.3075 9.1959 49.6878 9.44888 49.9991 9.7743C50.3103 10.0998 50.5447 10.4895 50.6854 10.9155C50.8261 11.3414 50.8695 11.7931 50.8126 12.2377C50.8126 14.4249 49.6187 15.6821 47.5591 15.6821H45.0615V8.83589H47.5591ZM46.1355 14.7139H47.4392C47.7617 14.733 48.0846 14.6806 48.3842 14.5606C48.6839 14.4405 48.9526 14.2558 49.1711 14.02C49.3895 13.7842 49.5521 13.5031 49.6469 13.1972C49.7417 12.8912 49.7666 12.5682 49.7194 12.2516C49.7631 11.9363 49.7359 11.6153 49.6395 11.3116C49.5432 11.0079 49.3802 10.7291 49.1623 10.4952C48.9444 10.2611 48.6768 10.0778 48.379 9.95823C48.0811 9.83861 47.7601 9.78573 47.4392 9.80337H46.1355V14.7139Z" fill="white"/>
<path d="M52.0263 13.0953C51.9935 12.7557 52.0327 12.4131 52.1414 12.0895C52.2502 11.7659 52.426 11.4683 52.6577 11.2159C52.8895 10.9635 53.1718 10.7618 53.4869 10.6239C53.8019 10.4858 54.1426 10.4146 54.487 10.4146C54.8315 10.4146 55.1722 10.4858 55.4872 10.6239C55.8023 10.7618 56.0846 10.9635 56.3164 11.2159C56.5481 11.4683 56.7239 11.7659 56.8327 12.0895C56.9414 12.4131 56.9806 12.7557 56.9478 13.0953C56.9812 13.4352 56.9425 13.7782 56.834 14.1024C56.7256 14.4265 56.5498 14.7246 56.318 14.9775C56.0863 15.2304 55.8037 15.4325 55.4883 15.5708C55.173 15.7091 54.8319 15.7805 54.487 15.7805C54.1422 15.7805 53.8011 15.7091 53.4857 15.5708C53.1704 15.4325 52.8878 15.2304 52.656 14.9775C52.4243 14.7246 52.2485 14.4265 52.1401 14.1024C52.0316 13.7782 51.9929 13.4352 52.0263 13.0953ZM55.8886 13.0953C55.8886 11.9753 55.3804 11.3204 54.4887 11.3204C53.5936 11.3204 53.0901 11.9753 53.0901 13.0953C53.0901 14.2241 53.5936 14.8741 54.4887 14.8741C55.3805 14.8741 55.8886 14.2197 55.8886 13.0953Z" fill="white"/>
<path d="M63.49 15.6802H62.4217L61.3433 11.875H61.2618L60.1878 15.6802H59.1298L57.6914 10.5137H58.7359L59.6707 14.456H59.7476L60.8205 10.5137H61.8083L62.8812 14.456H62.9626L63.8929 10.5137H64.9226L63.49 15.6802Z" fill="white"/>
<path d="M66.1318 10.5125H67.1232V11.3333H67.2001C67.3306 11.0385 67.5508 10.7914 67.8299 10.6264C68.1091 10.4614 68.4332 10.3867 68.7572 10.4128C69.0111 10.3939 69.2661 10.4318 69.5032 10.5237C69.7403 10.6156 69.9534 10.7592 70.1269 10.9437C70.3004 11.1283 70.4296 11.3491 70.5052 11.5898C70.5808 11.8306 70.6006 12.0851 70.5634 12.3344V15.6791H69.5336V12.5905C69.5336 11.7602 69.1692 11.3473 68.4075 11.3473C68.2352 11.3394 68.0631 11.3684 67.9032 11.4324C67.7431 11.4966 67.599 11.5941 67.4807 11.7184C67.3624 11.8428 67.2725 11.991 67.2175 12.153C67.1624 12.3149 67.1434 12.4867 67.1616 12.6566V15.6791H66.1318V10.5125Z" fill="white"/>
<path d="M72.2041 8.49658H73.2339V15.68H72.2041V8.49658Z" fill="white"/>
<path d="M74.6659 13.0954C74.6332 12.7558 74.6724 12.4132 74.7812 12.0895C74.8899 11.7659 75.0658 11.4683 75.2975 11.216C75.5292 10.9635 75.8117 10.7618 76.1268 10.6239C76.4417 10.4858 76.7825 10.4146 77.127 10.4146C77.4714 10.4146 77.8121 10.4858 78.1272 10.6239C78.4422 10.7618 78.7247 10.9635 78.9564 11.216C79.1881 11.4683 79.364 11.7659 79.4728 12.0895C79.5816 12.4132 79.6208 12.7558 79.588 13.0954C79.6214 13.4353 79.5826 13.7783 79.4741 14.1024C79.3657 14.4266 79.1898 14.7247 78.9581 14.9776C78.7263 15.2305 78.4436 15.4326 78.1283 15.5709C77.8129 15.7092 77.4719 15.7806 77.127 15.7806C76.7821 15.7806 76.4409 15.7092 76.1256 15.5709C75.8102 15.4326 75.5276 15.2305 75.2959 14.9776C75.0641 14.7247 74.8883 14.4266 74.7798 14.1024C74.6713 13.7783 74.6325 13.4353 74.6659 13.0954ZM78.5282 13.0954C78.5282 11.9755 78.0201 11.3205 77.1284 11.3205C76.2332 11.3205 75.7297 11.9755 75.7297 13.0954C75.7297 14.2242 76.2332 14.8741 77.1284 14.8741C78.0201 14.8741 78.5282 14.2198 78.5282 13.0954Z" fill="white"/>
<path d="M80.6719 14.2197C80.6719 13.2897 81.3713 12.7536 82.6127 12.6774L84.0261 12.5967V12.1507C84.0261 11.6051 83.6617 11.2969 82.9578 11.2969C82.383 11.2969 81.9846 11.5059 81.8703 11.8712H80.8733C80.9785 10.9838 81.8216 10.4146 83.0053 10.4146C84.3135 10.4146 85.0513 11.0594 85.0513 12.1507V15.6808H84.0601V14.9547H83.9786C83.8132 15.2152 83.5809 15.4275 83.3056 15.5701C83.0302 15.7126 82.7216 15.7802 82.4113 15.7659C82.1922 15.7885 81.9707 15.7654 81.7613 15.698C81.5518 15.6306 81.359 15.5206 81.195 15.3749C81.0312 15.2293 80.9 15.0512 80.8098 14.8522C80.7197 14.6533 80.6728 14.4378 80.6719 14.2197ZM84.0261 13.7782V13.3463L82.7519 13.427C82.0333 13.4746 81.7073 13.7166 81.7073 14.1721C81.7073 14.6371 82.1148 14.9077 82.6749 14.9077C82.839 14.9241 83.0049 14.9077 83.1625 14.8595C83.32 14.8112 83.4663 14.7319 83.5923 14.6266C83.7184 14.5212 83.8218 14.3918 83.8963 14.246C83.9708 14.1003 84.015 13.9413 84.0261 13.7782Z" fill="white"/>
<path d="M86.4053 13.0945C86.4053 11.4619 87.2529 10.4277 88.5713 10.4277C88.8974 10.4129 89.221 10.4902 89.5044 10.6507C89.7878 10.8112 90.0193 11.0483 90.1714 11.3342H90.248V8.49658H91.2781V15.68H90.2915V14.8637H90.2097C90.046 15.1477 89.8064 15.3818 89.5175 15.5407C89.2287 15.6996 88.9015 15.7771 88.5713 15.7651C87.2439 15.7652 86.4053 14.7309 86.4053 13.0945ZM87.4691 13.0945C87.4691 14.1903 87.9908 14.8498 88.8632 14.8498C89.7312 14.8498 90.2675 14.1808 90.2675 13.099C90.2675 12.0222 89.7256 11.3437 88.8632 11.3437C87.9964 11.3437 87.4691 12.0076 87.4691 13.0945Z" fill="white"/>
<path d="M95.5391 13.0953C95.5062 12.7557 95.5454 12.4131 95.6539 12.0895C95.7633 11.7659 95.9386 11.4683 96.1707 11.2159C96.402 10.9635 96.6849 10.7618 96.9998 10.6239C97.3147 10.4858 97.6554 10.4146 97.9997 10.4146C98.344 10.4146 98.6847 10.4858 98.9996 10.6239C99.3154 10.7618 99.5974 10.9635 99.8286 11.2159C100.061 11.4683 100.237 11.7659 100.345 12.0895C100.454 12.4131 100.493 12.7557 100.46 13.0953C100.494 13.4352 100.455 13.7782 100.346 14.1024C100.238 14.4265 100.063 14.7246 99.8304 14.9775C99.5991 15.2304 99.3163 15.4325 99.0013 15.5708C98.6855 15.7091 98.3448 15.7805 97.9997 15.7805C97.6545 15.7805 97.3138 15.7091 96.998 15.5708C96.6831 15.4325 96.4002 15.2304 96.169 14.9775C95.9368 14.7246 95.7615 14.4265 95.653 14.1024C95.5445 13.7782 95.5053 13.4352 95.5391 13.0953ZM99.4016 13.0953C99.4016 11.9753 98.8928 11.3204 98.0015 11.3204C97.1066 11.3204 96.6031 11.9753 96.6031 13.0953C96.6031 14.2241 97.1066 14.8741 98.0015 14.8741C98.8928 14.8741 99.4016 14.2197 99.4016 13.0953Z" fill="white"/>
<path d="M101.842 10.5125H102.834V11.3333H102.91C103.041 11.0385 103.262 10.7914 103.54 10.6264C103.819 10.4614 104.143 10.3867 104.468 10.4128C104.721 10.3939 104.977 10.4318 105.213 10.5237C105.451 10.6156 105.663 10.7592 105.837 10.9437C106.01 11.1283 106.14 11.3491 106.216 11.5898C106.291 11.8306 106.311 12.0851 106.274 12.3344V15.6791H105.244V12.5905C105.244 11.7602 104.88 11.3473 104.118 11.3473C103.946 11.3394 103.773 11.3684 103.614 11.4324C103.454 11.4966 103.31 11.5941 103.191 11.7184C103.073 11.8428 102.983 11.991 102.928 12.153C102.873 12.3149 102.853 12.4867 102.872 12.6566V15.6791H101.842V10.5125Z" fill="white"/>
<path d="M112.093 9.22656V10.5364H113.223V11.3952H112.093V14.0519C112.093 14.5932 112.319 14.8301 112.831 14.8301C112.963 14.8297 113.093 14.8219 113.223 14.8066V15.6559C113.039 15.6887 112.851 15.7061 112.664 15.708C111.518 15.708 111.062 15.3091 111.062 14.3129V11.3952H110.233V10.5364H111.062V9.22656H112.093Z" fill="white"/>
<path d="M114.629 8.49658H115.65V11.3437H115.731C115.868 11.0462 116.095 10.7977 116.38 10.632C116.664 10.4664 116.993 10.3918 117.323 10.4182C117.575 10.4046 117.828 10.4464 118.062 10.5405C118.297 10.6346 118.507 10.7788 118.678 10.9628C118.85 11.1468 118.979 11.3659 119.055 11.6048C119.131 11.8436 119.153 12.0961 119.119 12.3443V15.68H118.088V12.5959C118.088 11.7706 117.701 11.3527 116.973 11.3527C116.796 11.3383 116.618 11.3624 116.452 11.4232C116.284 11.4842 116.133 11.5803 116.009 11.705C115.883 11.8299 115.787 11.9802 115.727 12.1456C115.666 12.3109 115.643 12.4873 115.659 12.6625V15.68H114.629V8.49658Z" fill="white"/>
<path d="M125.124 14.2859C124.985 14.7581 124.681 15.1665 124.268 15.4398C123.855 15.713 123.357 15.8337 122.863 15.7806C122.52 15.7896 122.178 15.7244 121.862 15.5895C121.546 15.4547 121.264 15.2535 121.035 14.9998C120.805 14.746 120.635 14.4459 120.534 14.1202C120.433 13.7946 120.406 13.4512 120.453 13.1139C120.407 12.7756 120.435 12.4314 120.536 12.1048C120.635 11.7782 120.805 11.4767 121.034 11.2207C121.262 10.9647 121.543 10.7603 121.858 10.6213C122.173 10.4822 122.514 10.4117 122.858 10.4146C124.311 10.4146 125.186 11.3968 125.186 13.0192V13.375H121.502V13.4322C121.486 13.6217 121.51 13.8125 121.573 13.9924C121.635 14.1723 121.735 14.3371 121.867 14.4765C121.997 14.6158 122.156 14.7266 122.333 14.8016C122.509 14.8766 122.699 14.9144 122.891 14.9122C123.138 14.9415 123.388 14.8975 123.608 14.7861C123.83 14.6745 124.012 14.5004 124.133 14.2859H125.124ZM121.502 12.6209H124.138C124.15 12.4475 124.127 12.2733 124.067 12.1095C124.009 11.9458 123.915 11.7961 123.794 11.67C123.673 11.544 123.527 11.4444 123.365 11.3777C123.203 11.3109 123.028 11.2785 122.853 11.2825C122.675 11.2803 122.498 11.3134 122.334 11.3798C122.168 11.4464 122.019 11.5448 121.892 11.6696C121.767 11.7943 121.667 11.9427 121.6 12.1062C121.533 12.2695 121.5 12.4445 121.502 12.6209Z" fill="white"/>
<path d="M140.629 1.84828C143.116 1.84828 145.14 3.85954 145.14 6.33165V38.3594C145.14 40.8315 143.116 42.8428 140.629 42.8428H6.37088C3.88366 42.8428 1.8601 40.8315 1.8601 38.3594V6.33337C1.8601 3.86126 3.88366 1.84999 6.37088 1.84999H140.629V1.84828ZM140.629 0.995117H6.37088C3.41655 0.995117 1 3.39698 1 6.33337V38.3594C1 41.2958 3.41655 43.6977 6.37088 43.6977H140.629C143.583 43.6977 146 41.2958 146 38.3594V6.33337C146 3.39698 143.583 0.995117 140.629 0.995117Z" fill="black"/>
</g>
</g>
</g>
</g>
<defs>
<clipPath id="clip0_204_2618">
<rect width="145" height="42.69" fill="white" transform="translate(1 1)"/>
</clipPath>
<clipPath id="clip1_204_2618">
<rect width="145" height="42.69" fill="white" transform="translate(1 1)"/>
</clipPath>
<clipPath id="clip2_204_2618">
<rect width="145" height="42.6994" fill="white" transform="translate(1 0.995117)"/>
</clipPath>
</defs>
</svg>
