<svg width="147" height="46" viewBox="0 0 147 46" fill="none" xmlns="http://www.w3.org/2000/svg">
<mask id="path-1-inside-1_204_2683" fill="white">
<path d="M0 8C0 3.58172 3.58172 0 8 0H139C143.418 0 147 3.58172 147 8V37.5C147 41.9183 143.418 45.5 139 45.5H8C3.58172 45.5 0 41.9183 0 37.5V8Z"/>
</mask>
<path d="M8 0V1H139V0V-1H8V0ZM147 8H146V37.5H147H148V8H147ZM139 45.5V44.5H8V45.5V46.5H139V45.5ZM0 37.5H1V8H0H-1V37.5H0ZM8 45.5V44.5C4.13401 44.5 1 41.366 1 37.5H0H-1C-1 42.4706 3.02944 46.5 8 46.5V45.5ZM147 37.5H146C146 41.366 142.866 44.5 139 44.5V45.5V46.5C143.971 46.5 148 42.4706 148 37.5H147ZM139 0V1C142.866 1 146 4.13401 146 8H147H148C148 3.02944 143.971 -1 139 -1V0ZM8 0V-1C3.02944 -1 -1 3.02944 -1 8H0H1C1 4.13401 4.13401 1 8 1V0Z" fill="#545454" mask="url(#path-1-inside-1_204_2683)"/>
<g clip-path="url(#clip0_204_2683)">
<g clip-path="url(#clip1_204_2683)">
<g clip-path="url(#clip2_204_2683)">
<mask id="mask0_204_2683" style="mask-type:luminance" maskUnits="userSpaceOnUse" x="1" y="1" width="145" height="44">
<path d="M146 1H1V44.5H146V1Z" fill="white"/>
</mask>
<g mask="url(#mask0_204_2683)">
<path d="M135.772 1H10.0596C9.7319 1 9.4042 1 9.0736 1C8.35259 1.01048 7.63334 1.07446 6.9218 1.1914C6.21486 1.31113 5.53032 1.53801 4.8918 1.8642C4.24954 2.19255 3.66247 2.61916 3.1518 3.1286C2.64122 3.6383 2.21448 4.22556 1.8874 4.8686C1.55725 5.5162 1.32839 6.2106 1.2088 6.9276C1.08861 7.63776 1.02461 8.35628 1.0174 9.0765C1 9.41 1 9.7348 1 10.0654V35.4375C1 35.771 1 36.0958 1.0174 36.4293C1.02486 37.1495 1.08886 37.868 1.2088 38.5782C1.32735 39.2851 1.55326 39.9697 1.8787 40.6082C2.53655 41.907 3.5881 42.9646 4.8831 43.63C5.52189 43.9568 6.20622 44.1855 6.9131 44.3086C7.62471 44.4246 8.34396 44.4876 9.0649 44.4971C9.3955 44.4971 9.7232 44.4971 10.0509 44.4971H136.926C137.254 44.4971 137.587 44.4971 137.914 44.4971C138.634 44.4882 139.351 44.4252 140.06 44.3086C140.774 44.1851 141.465 43.9563 142.111 43.63C142.756 43.3051 143.343 42.8781 143.851 42.3656C144.364 41.8567 144.793 41.2694 145.121 40.6256C145.444 39.9862 145.667 39.3018 145.785 38.5956C145.906 37.8853 145.972 37.167 145.985 36.4467C145.985 36.1132 145.985 35.7884 145.985 35.4549C145.985 35.0663 145.985 34.6777 145.985 34.2949V11.237C145.985 10.8426 145.985 10.454 145.985 10.077C145.985 9.7464 145.985 9.4158 145.985 9.0881C145.973 8.36781 145.906 7.64951 145.785 6.9392C145.666 6.23323 145.443 5.54901 145.121 4.9092C144.464 3.60657 143.414 2.54343 142.119 1.87C141.473 1.54715 140.783 1.32329 140.069 1.2059C139.36 1.08832 138.643 1.02434 137.923 1.0145C137.595 1.0145 137.262 1.0145 136.935 1.0145L135.772 1Z" fill="black"/>
<path d="M10.0652 43.56C9.73755 43.56 9.41855 43.56 9.09375 43.56C8.42146 43.5512 7.75072 43.4931 7.08695 43.386C6.46912 43.2809 5.87012 43.0855 5.30925 42.806C4.19496 42.2348 3.28736 41.3292 2.71375 40.2163C2.43147 39.6555 2.23591 39.0551 2.13375 38.4357C2.02286 37.7703 1.96372 37.0975 1.95685 36.4231C1.95685 36.1969 1.93945 35.4429 1.93945 35.4429V10.0649C1.93945 10.0649 1.93945 9.32251 1.95685 9.10501C1.96187 8.42965 2.02005 7.75573 2.13085 7.08951C2.23169 6.46789 2.4273 5.86541 2.71085 5.30311C2.99273 4.7498 3.36189 4.24551 3.80415 3.80961C4.24586 3.36744 4.75362 2.99665 5.30925 2.71051C5.86887 2.43036 6.467 2.23489 7.08405 2.13051C7.74953 2.02107 8.42229 1.96193 9.09665 1.95361H10.0652H136.929H137.909C138.577 1.95933 139.244 2.0175 139.904 2.12761C140.528 2.22985 141.131 2.42537 141.697 2.70761C142.813 3.28372 143.72 4.19691 144.289 5.31761C144.57 5.87564 144.766 6.47302 144.869 7.08951C144.98 7.76074 145.043 8.43922 145.054 9.11951C145.054 9.42401 145.054 9.75171 145.054 10.0765C145.054 10.4796 145.054 10.8624 145.054 11.2365V34.2626C145.054 34.6541 145.054 35.034 145.054 35.4226C145.054 35.8112 145.054 36.0925 145.054 36.4231C145.044 37.0898 144.983 37.7549 144.872 38.4125C144.772 39.0363 144.577 39.6409 144.292 40.2047C143.716 41.3135 142.81 42.2163 141.699 42.7886C141.136 43.0711 140.532 43.2667 139.91 43.3686C139.246 43.4762 138.576 43.5344 137.903 43.5426C137.59 43.5426 137.26 43.5426 136.941 43.5426H10.0652V43.56Z" fill="black"/>
<path d="M54.8204 30.3656H49.7193L48.481 33.7702H46.2393L51.2273 21.0508H53.3443L58.4454 33.7702H56.0993L54.8204 30.3656ZM50.3689 28.6256H54.1679L52.8078 24.9832C52.6222 24.4815 52.4366 23.9247 52.2568 23.3157C52.0915 23.8551 51.9117 24.4032 51.7203 24.9658L50.3689 28.6256Z" fill="white"/>
<path d="M59.3479 26.615C59.3479 25.9132 59.3247 25.1399 59.2783 24.295H61.3083C61.3846 24.6926 61.4369 25.0946 61.4649 25.4985C61.8201 25.0728 62.2632 24.7291 62.7638 24.4907C63.2644 24.2525 63.8106 24.1253 64.3649 24.1181C65.015 24.1078 65.6532 24.2916 66.1983 24.646C66.7432 25.0004 67.1701 25.5093 67.4244 26.1075C67.7812 26.93 67.9506 27.8215 67.9203 28.7175C67.9424 29.6944 67.7441 30.6638 67.3403 31.5537C67.0025 32.2923 66.4509 32.9125 65.7569 33.3343C65.0429 33.7469 64.2296 33.9565 63.405 33.9404C62.7562 33.94 62.1121 33.8302 61.4997 33.6156V37.5393L59.3305 37.7249L59.3479 26.615ZM65.0493 31.4493C65.4901 30.8693 65.7134 29.9993 65.7134 28.8393C65.7134 27.7818 65.5298 27.0085 65.1624 26.5193C64.9965 26.292 64.7778 26.1083 64.5252 25.9841C64.2728 25.8598 63.9938 25.7986 63.7124 25.8059C63.3071 25.8005 62.9075 25.9004 62.5524 26.0959C62.1753 26.3096 61.8322 26.5784 61.5345 26.8934V31.9684C61.7749 32.0818 62.0281 32.1655 62.2885 32.2178C62.5687 32.2784 62.8545 32.3095 63.1411 32.3106C63.5052 32.3324 63.8691 32.2655 64.2015 32.1154C64.5339 31.9653 64.8248 31.7367 65.0493 31.4493Z" fill="white"/>
<path d="M69.2405 26.615C69.2405 25.9132 69.2173 25.1399 69.1709 24.295H71.2009C71.2796 24.6924 71.3328 25.0944 71.3603 25.4985C72.2052 24.5783 73.1719 24.1181 74.2603 24.1181C74.9104 24.1078 75.5486 24.2916 76.0937 24.646C76.6386 25.0004 77.0655 25.5093 77.3198 26.1075C77.6766 26.93 77.846 27.8215 77.8157 28.7175C77.8424 29.6933 77.649 30.6627 77.2502 31.5537C76.9116 32.2926 76.359 32.913 75.6639 33.3343C74.9501 33.7474 74.1367 33.957 73.312 33.9404C72.6632 33.94 72.0191 33.8302 71.4067 33.6156V37.5393L69.2376 37.7249L69.2405 26.615ZM74.9505 31.4493C75.3913 30.8558 75.6117 29.9858 75.6117 28.8393C75.6117 27.7818 75.429 27.0085 75.0636 26.5193C74.8977 26.292 74.679 26.1083 74.4265 25.9841C74.1739 25.8598 73.895 25.7986 73.6136 25.8059C73.2084 25.801 72.8089 25.9009 72.4536 26.0959C72.0765 26.3096 71.7334 26.5784 71.4358 26.8934V31.9684C71.6764 32.0808 71.9295 32.1646 72.1897 32.2178C72.4699 32.2784 72.7557 32.3095 73.0423 32.3106C73.4063 32.3319 73.7701 32.2647 74.1024 32.1146C74.4348 31.9647 74.7258 31.7364 74.9505 31.4493Z" fill="white"/>
<path d="M81.8035 33.1699C80.8767 32.6617 80.124 31.8867 79.6429 30.9456C79.1171 29.8822 78.8583 28.7066 78.8889 27.5207C78.8513 26.2519 79.1515 24.9959 79.7589 23.8812C80.3074 22.914 81.131 22.1316 82.1253 21.6337C83.1703 21.1232 84.3207 20.8658 85.4836 20.8826C86.1887 20.8795 86.8917 20.9614 87.5774 21.1262C88.2186 21.2772 88.8411 21.4989 89.4334 21.7874L88.8708 23.4549C87.8449 22.9374 86.7164 22.656 85.5676 22.6313C84.7569 22.6178 83.9567 22.8178 83.2476 23.2113C82.5748 23.5975 82.0341 24.1776 81.6962 24.8759C81.3074 25.7041 81.1186 26.612 81.1451 27.5265C81.1307 28.3505 81.2744 29.1695 81.5686 29.9393C81.8356 30.6207 82.3053 31.2037 82.9141 31.6097C83.6078 32.0438 84.4165 32.258 85.2342 32.2245C85.6579 32.2235 86.0807 32.1876 86.4986 32.1172C86.9029 32.053 87.3001 31.95 87.6847 31.8098V29.223H84.744V27.5381H89.793V32.9002C89.0605 33.2416 88.2933 33.5031 87.5049 33.6803C86.723 33.8605 85.9234 33.9519 85.1211 33.9529C83.9663 33.9806 82.8239 33.711 81.8035 33.1699Z" fill="white"/>
<path d="M97.4967 33.7704C97.4152 33.3562 97.3644 32.9364 97.3463 32.5147C96.9838 32.9362 96.5415 33.2812 96.044 33.5297C95.483 33.814 94.8604 33.9573 94.2315 33.9473C93.7167 33.9537 93.2074 33.8437 92.7407 33.6254C92.2976 33.4174 91.9269 33.0809 91.6768 32.6597C91.3996 32.1822 91.262 31.6367 91.2794 31.085C91.2631 30.6665 91.3445 30.25 91.5172 29.8684C91.6895 29.4869 91.9487 29.1508 92.274 28.8868C92.9356 28.3377 94.0385 28.0641 95.5827 28.0661C96.1582 28.0658 96.7327 28.1065 97.3028 28.1879V28.0023C97.3028 27.1671 97.1252 26.5774 96.769 26.2333C96.344 25.8673 95.7921 25.683 95.232 25.72C94.7308 25.726 94.2315 25.7942 93.7476 25.923C93.2673 26.0387 92.7987 26.1999 92.3492 26.4044L92.0076 24.8268C92.4987 24.6169 93.0099 24.4547 93.5328 24.3425C94.1898 24.1938 94.8623 24.1198 95.5365 24.1221C96.2506 24.1025 96.9611 24.2298 97.6245 24.4962C98.2081 24.754 98.683 25.2073 98.9676 25.778C99.3228 26.5419 99.4896 27.3807 99.4515 28.2227V31.9927C99.4515 32.3793 99.4751 32.9729 99.5213 33.7733L97.4967 33.7704ZM96.1981 32.0304C96.6158 31.8361 96.991 31.5611 97.3028 31.2213V29.4813C96.8216 29.4244 96.3376 29.3924 95.8528 29.3856C94.9574 29.3856 94.3375 29.5306 93.9941 29.8206C93.8255 29.9624 93.6923 30.1405 93.6035 30.3414C93.5147 30.5424 93.4721 30.7609 93.4802 30.9806C93.4648 31.1703 93.4902 31.3612 93.5545 31.5404C93.6189 31.7194 93.7213 31.8827 93.8545 32.0188C94.1372 32.2571 94.5007 32.3786 94.8695 32.3581C95.3317 32.3511 95.7857 32.239 96.1981 32.0304Z" fill="white"/>
<path d="M101.129 31.4959V20.3019L103.287 20.1279V31.1102C103.256 31.4152 103.328 31.7215 103.492 31.9802C103.575 32.0694 103.677 32.1385 103.791 32.1821C103.905 32.2258 104.026 32.2431 104.148 32.2325C104.344 32.224 104.539 32.1909 104.728 32.1339L104.983 33.6883C104.74 33.78 104.488 33.8461 104.232 33.8855C103.955 33.9336 103.675 33.9588 103.394 33.9609C101.884 33.9513 101.129 33.1296 101.129 31.4959Z" fill="white"/>
<path d="M106.525 31.4959V20.3019L108.686 20.1279V31.1102C108.656 31.4152 108.728 31.7215 108.893 31.9802C108.975 32.0694 109.077 32.1385 109.191 32.1821C109.304 32.2258 109.426 32.2431 109.548 32.2325C109.744 32.224 109.939 32.1909 110.128 32.1339L110.38 33.6883C110.138 33.78 109.888 33.8462 109.632 33.8855C109.354 33.9337 109.073 33.9589 108.791 33.9609C107.283 33.9513 106.528 33.1296 106.525 31.4959Z" fill="white"/>
<path d="M119.254 29.3099H113.056C113.155 31.2955 114.1 32.2882 115.893 32.2882C116.352 32.2859 116.811 32.2314 117.258 32.1258C117.716 32.0194 118.163 31.8739 118.595 31.6908L119.071 33.1756C117.954 33.7019 116.732 33.9657 115.499 33.947C114.614 33.9726 113.738 33.773 112.952 33.367C112.271 32.9991 111.725 32.4244 111.391 31.7256C111.023 30.9163 110.845 30.0335 110.869 29.1446C110.846 28.2133 111.035 27.2887 111.424 26.4418C111.755 25.7232 112.29 25.118 112.964 24.7018C113.653 24.2956 114.443 24.0888 115.243 24.1044C116.038 24.0763 116.821 24.2963 117.485 24.7337C118.083 25.1493 118.547 25.731 118.819 26.407C119.117 27.1436 119.265 27.9324 119.254 28.727V29.3099ZM117.14 27.9324C117.143 27.3167 116.939 26.7178 116.56 26.233C116.389 26.0425 116.179 25.8917 115.944 25.7914C115.709 25.6912 115.455 25.644 115.199 25.653C114.942 25.6478 114.687 25.6967 114.45 25.7966C114.213 25.8966 114 26.0453 113.825 26.233C113.416 26.7095 113.166 27.3014 113.109 27.9266L117.14 27.9324Z" fill="white"/>
<path d="M120.895 26.6769C120.895 26.1578 120.868 25.3632 120.822 24.2989H122.852C122.887 24.5628 122.918 24.8789 122.954 25.2414C122.988 25.6039 123.005 25.9055 123.017 26.1346C123.236 25.7649 123.484 25.4138 123.759 25.0848C124 24.8035 124.288 24.5686 124.612 24.3917C124.953 24.2077 125.335 24.1147 125.723 24.122C126.017 24.1148 126.31 24.151 126.593 24.2293L126.32 26.1085C125.981 26.0102 125.624 25.9851 125.275 26.0352C124.924 26.0852 124.589 26.209 124.29 26.3985C123.81 26.7552 123.392 27.1882 123.053 27.6803V33.7703H120.895V26.6769Z" fill="white"/>
<path d="M127.801 37.647C127.536 37.6043 127.275 37.5413 127.021 37.4585L127.415 35.878C127.598 35.9272 127.783 35.9669 127.969 35.9969C128.178 36.034 128.389 36.0534 128.601 36.0549C129.568 36.0549 130.287 35.4372 130.759 34.2018L130.901 33.8509L127.407 24.2983H129.727L131.501 29.6372C131.728 30.324 131.912 31.0243 132.052 31.7339C132.218 31.0495 132.409 30.3651 132.632 29.6807L134.401 24.2983H136.585L133.105 33.8944C132.842 34.6674 132.484 35.4048 132.04 36.0897C131.702 36.6071 131.239 37.0318 130.695 37.3251C130.112 37.6101 129.467 37.7494 128.819 37.7311C128.478 37.7324 128.137 37.7043 127.801 37.647Z" fill="white"/>
<path d="M46.2393 8.94043H50.0963L49.989 9.87423H47.3645V11.6809H49.8382V12.5509H47.3645V14.5519H50.1282L50.0325 15.5002H46.2393V8.94043Z" fill="white"/>
<path d="M52.7626 12.1536L50.7326 8.94043H52.0202L53.4006 11.301L54.8506 8.94043H56.1005L54.0705 12.113L56.2658 15.5002H54.9608L53.3977 12.9192L51.8056 15.5002H50.5557L52.7626 12.1536Z" fill="white"/>
<path d="M57.0977 8.94043H58.8667C59.6961 8.94043 60.3321 9.10959 60.7749 9.44793C60.9951 9.62121 61.1702 9.8451 61.2853 10.1006C61.4004 10.3561 61.4521 10.6356 61.4361 10.9153C61.4483 11.3149 61.3478 11.7099 61.1461 12.055C60.9491 12.3795 60.6619 12.6395 60.3196 12.8032C59.9391 12.9831 59.5222 13.0724 59.1016 13.0642C58.8095 13.0601 58.5183 13.0301 58.2316 12.9743V15.5002H57.0977V8.94043ZM59.9397 11.8694C60.0634 11.7506 60.1599 11.6063 60.2224 11.4467C60.285 11.287 60.3122 11.1156 60.3022 10.9443C60.3169 10.7802 60.291 10.615 60.2268 10.4633C60.1626 10.3116 60.0619 10.178 59.9339 10.0743C59.6074 9.87556 59.2276 9.78238 58.8464 9.80753H58.2316V12.1275C58.4471 12.1663 58.6652 12.1887 58.8841 12.1942C59.2642 12.2228 59.6412 12.1068 59.9397 11.8694Z" fill="white"/>
<path d="M62.5566 8.94043H63.6876V14.5316H66.402L66.3063 15.5002H62.5566V8.94043Z" fill="white"/>
<path d="M68.1236 15.1782C67.6482 14.9108 67.2644 14.5066 67.0216 14.0182C66.7578 13.4769 66.6275 12.8803 66.6417 12.2782C66.6278 11.6491 66.7671 11.0261 67.0477 10.4629C67.3049 9.95512 67.709 9.53672 68.2077 9.26225C68.7658 8.96992 69.3905 8.82799 70.0202 8.85045C70.6156 8.83447 71.2046 8.97549 71.7283 9.25935C72.2007 9.52775 72.5816 9.93188 72.8216 10.4194C73.0802 10.955 73.2084 11.5444 73.1957 12.1391C73.2113 12.7751 73.071 13.4054 72.7868 13.9748C72.5271 14.4807 72.1235 14.8985 71.6268 15.1754C71.0784 15.4671 70.4642 15.6129 69.8433 15.5988C69.2429 15.614 68.6492 15.4688 68.1236 15.1782ZM71.0584 14.375C71.3781 14.1631 71.6267 13.8599 71.7718 13.505C71.9345 13.0986 72.0144 12.6638 72.0067 12.2261C72.0139 11.7964 71.9432 11.3689 71.7979 10.9645C71.6677 10.6143 71.4354 10.3111 71.1309 10.0945C70.7778 9.87847 70.3718 9.76413 69.9578 9.76413C69.5438 9.76413 69.1379 9.87847 68.7848 10.0945C68.4641 10.3169 68.2145 10.6271 68.0656 10.9878C67.9005 11.3774 67.8186 11.7971 67.8249 12.2202C67.8179 12.6562 67.8947 13.0893 68.0511 13.4963C68.19 13.8685 68.444 14.1868 68.7762 14.4049C69.1085 14.6228 69.5015 14.7292 69.8984 14.7085C70.3101 14.7186 70.7149 14.6021 71.0584 14.375Z" fill="white"/>
<path d="M74.457 8.93991H76.5102C77.1117 8.89733 77.7104 9.05541 78.2125 9.38941C78.4051 9.54066 78.5584 9.73615 78.6594 9.9593C78.7605 10.1825 78.806 10.4267 78.7925 10.6712C78.7993 10.9892 78.7276 11.3039 78.5837 11.5876C78.4579 11.8364 78.2821 12.0565 78.0675 12.2343C77.8756 12.3893 77.6603 12.5126 77.4295 12.5997L79.4595 15.4997H78.14L76.4319 12.8897H75.5996V15.4997H74.457V8.93991ZM76.2347 12.0429C76.4866 12.0484 76.7361 11.9937 76.9626 11.8834C77.1665 11.7854 77.3385 11.6315 77.4585 11.4397C77.5782 11.2349 77.6393 11.0012 77.6354 10.764C77.6471 10.6272 77.6246 10.4895 77.5699 10.3634C77.5153 10.2374 77.4301 10.1269 77.3222 10.0419C77.0503 9.8717 76.7316 9.79153 76.4116 9.81281H75.5909V12.0545L76.2347 12.0429Z" fill="white"/>
<path d="M80.3447 8.94043H84.2104L84.1002 9.87423H81.4902V11.6809H83.9407V12.5509H81.467V14.5519H84.2307L84.1466 15.5002H80.3447V8.94043Z" fill="white"/>
<path d="M88.4141 8.94043H89.5451V15.5002H88.4141V8.94043Z" fill="white"/>
<path d="M92.5412 9.88583H90.5107L90.6093 8.94043H95.7131L95.6089 9.88583H93.6749V15.5002H92.5412V9.88583Z" fill="white"/>
<path d="M100.629 15.1785C100.155 14.9109 99.772 14.5067 99.53 14.0185C99.2645 13.4779 99.1331 12.8809 99.1476 12.2785C99.134 11.6494 99.2726 11.0264 99.5536 10.4631C99.8118 9.95591 100.215 9.53771 100.714 9.26252C101.267 8.96875 101.888 8.8229 102.514 8.83912C103.117 8.82289 103.712 8.96807 104.24 9.25962C104.713 9.52715 105.094 9.93152 105.334 10.4196C105.593 10.955 105.722 11.5444 105.711 12.1393C105.726 12.7758 105.585 13.4064 105.298 13.975C105.04 14.4816 104.636 14.8996 104.138 15.1756C103.59 15.4681 102.976 15.6139 102.355 15.599C101.753 15.6152 101.157 15.4701 100.629 15.1785ZM103.567 14.3752C103.885 14.1624 104.133 13.8595 104.278 13.5052C104.44 13.0989 104.521 12.664 104.513 12.2263C104.52 11.7967 104.449 11.3692 104.304 10.9648C104.175 10.6147 103.943 10.3116 103.64 10.0948C103.286 9.87848 102.88 9.76401 102.465 9.76401C102.05 9.76401 101.644 9.87848 101.291 10.0948C100.97 10.3172 100.721 10.6273 100.571 10.988C100.408 11.3781 100.326 11.7976 100.331 12.2205C100.324 12.6564 100.401 13.0896 100.557 13.4965C100.695 13.8542 100.937 14.163 101.25 14.3839C101.594 14.6105 101.999 14.7241 102.41 14.7087C102.821 14.7172 103.224 14.6009 103.567 14.3752Z" fill="white"/>
<path d="M106.965 8.94043H108.264L111.51 14.0241C111.481 13.5398 111.469 13.0961 111.469 12.6872V8.94043H112.518V15.5002H111.26L107.965 10.3353C107.997 10.9153 108.015 11.4402 108.015 11.8955V15.5002H106.965V8.94043Z" fill="white"/>
<path fill-rule="evenodd" clip-rule="evenodd" d="M30.2896 8.97461H18.2517C12.5764 8.97461 10.5 11.051 10.5 16.7263V28.7729C10.5 34.4482 12.5764 36.5246 18.2517 36.5246H30.2896C35.9649 36.5246 38.0442 34.4482 38.0442 28.7729V16.7263C38.05 11.051 35.9736 8.97461 30.2896 8.97461Z" fill="#C8102E"/>
<path d="M15.9551 22.75H16.6859V26.3547H15.9551V24.8902H14.305V26.3547H13.5742V22.75H14.305V24.2H15.9551V22.75ZM20.0731 24.8119C20.0731 25.3919 19.7831 25.7109 19.2553 25.7109C18.7275 25.7109 18.4317 25.3919 18.4317 24.78V22.75H17.7009V24.809C17.7009 25.8211 18.2635 26.4011 19.2437 26.4011C20.2239 26.4011 20.8039 25.8211 20.8039 24.7771V22.75H20.0731V24.8119ZM28.5179 25.2266L27.7001 22.75H27.0998L26.2878 25.2295L25.4903 22.75H24.7131L25.9688 26.3547H26.5749L27.3898 23.9883L28.2076 26.3547H28.8195L30.0752 22.75H29.3154L28.5179 25.2266ZM31.3831 24.8003H32.7142V24.1478H31.3831V23.4112H33.3145V22.75H30.6639V26.346H33.3841V25.6964H31.3831V24.8003ZM34.2541 26.346H34.9762V22.75H34.2541V26.346ZM22.2481 25.6007L21.9204 26.3489H21.1751L22.7498 22.75H23.3936L24.9741 26.3489H24.2201L23.9098 25.6036L22.2481 25.6007ZM22.5207 24.9511H23.6198L23.0688 23.6635L22.5207 24.9511Z" fill="white"/>
<path d="M24.2763 18.1655C23.0606 18.1647 21.8948 17.6814 21.0351 16.8218C20.1754 15.9621 19.6921 14.7964 19.6914 13.5806H20.3381C20.3381 14.6251 20.753 15.6268 21.4916 16.3653C22.2302 17.1039 23.2319 17.5188 24.2763 17.5188C25.3208 17.5188 26.3224 17.1039 27.061 16.3653C27.7996 15.6268 28.2145 14.6251 28.2145 13.5806H28.8612C28.8605 14.7964 28.3772 15.9621 27.5175 16.8218C26.6578 17.6814 25.492 18.1647 24.2763 18.1655Z" fill="white"/>
</g>
</g>
</g>
</g>
<defs>
<clipPath id="clip0_204_2683">
<rect width="145" height="43.5" fill="white" transform="translate(1 1)"/>
</clipPath>
<clipPath id="clip1_204_2683">
<rect width="145" height="43.5" fill="white" transform="translate(1 1)"/>
</clipPath>
<clipPath id="clip2_204_2683">
<rect width="145" height="43.5" fill="white" transform="translate(1 1)"/>
</clipPath>
</defs>
</svg>
