<svg width="910" height="46" viewBox="0 0 910 46" fill="none" xmlns="http://www.w3.org/2000/svg">
<mask id="path-1-inside-1_204_2616" fill="white">
<path d="M0 8.00001C0 3.58173 3.58172 0 8 0H139C143.418 0 147 3.58172 147 8V36.69C147 41.1083 143.418 44.69 139 44.69H8C3.58172 44.69 0 41.1083 0 36.69V8.00001Z"/>
</mask>
<path d="M8 0V1H139V0V-1H8V0ZM147 8H146V36.69H147H148V8H147ZM139 44.69V43.69H8V44.69V45.69H139V44.69ZM0 36.69H1V8.00001H0H-1V36.69H0ZM8 44.69V43.69C4.13401 43.69 1 40.556 1 36.69H0H-1C-1 41.6606 3.02944 45.69 8 45.69V44.69ZM147 36.69H146C146 40.556 142.866 43.69 139 43.69V44.69V45.69C143.971 45.69 148 41.6605 148 36.69H147ZM139 0V1C142.866 1 146 4.13401 146 8H147H148C148 3.02944 143.971 -1 139 -1V0ZM8 0V-1C3.02944 -1 -1 3.02945 -1 8.00001H0H1C1 4.13402 4.13401 1 8 1V0Z" fill="#545454" mask="url(#path-1-inside-1_204_2616)"/>
<g clip-path="url(#clip0_204_2616)">
<g clip-path="url(#clip1_204_2616)">
<g clip-path="url(#clip2_204_2616)">
<mask id="mask0_204_2616" style="mask-type:luminance" maskUnits="userSpaceOnUse" x="1" y="0" width="145" height="44">
<path d="M138.883 0.995117H8.11656C4.18619 0.995117 1 4.18131 1 8.11168V36.5779C1 40.5083 4.18619 43.6945 8.11656 43.6945H138.883C142.814 43.6945 146 40.5083 146 36.5779V8.11168C146 4.18131 142.814 0.995117 138.883 0.995117Z" fill="white"/>
</mask>
<g mask="url(#mask0_204_2616)">
<path d="M128.165 0.995254H12.58C12.1586 0.995254 11.7424 0.995254 11.3222 0.997358C10.9704 0.999462 10.6215 1.00557 10.2663 1.01072C9.49484 1.01903 8.72514 1.08118 7.96394 1.19662C7.20382 1.31457 6.4675 1.53695 5.7799 1.85623C5.09314 2.17821 4.46563 2.59659 3.92013 3.09619C3.37177 3.59439 2.91467 4.17023 2.5664 4.8016C2.21718 5.4317 1.97502 6.10691 1.8483 6.80391C1.72038 7.50003 1.65154 8.20418 1.64241 8.91004C1.63174 9.23258 1.63062 9.5562 1.625 9.87879V34.1952C1.63062 34.5219 1.63174 34.8383 1.64241 35.1651C1.65154 35.8709 1.72038 36.575 1.8483 37.2711C1.97467 37.9685 2.21684 38.6441 2.5664 39.2744C2.91451 39.9038 3.37167 40.4773 3.92013 40.9727C4.46356 41.4745 5.09148 41.8932 5.7799 42.2127C6.46749 42.5328 7.20373 42.7565 7.96394 42.8763C8.72526 42.9909 9.49488 43.053 10.2663 43.0623C10.6215 43.0695 10.9704 43.0736 11.3222 43.0736C11.7424 43.0757 12.1587 43.0756 12.58 43.0756H128.165C128.579 43.0756 128.998 43.0757 129.411 43.0736C129.761 43.0736 130.121 43.0695 130.47 43.0623C131.241 43.0535 132.008 42.9913 132.768 42.8763C133.531 42.7557 134.27 42.5321 134.961 42.2127C135.648 41.893 136.276 41.4743 136.819 40.9727C137.366 40.4753 137.824 39.9023 138.177 39.2744C138.524 38.6436 138.764 37.9681 138.887 37.2711C139.016 36.5749 139.088 35.871 139.101 35.1651C139.105 34.8383 139.105 34.5219 139.105 34.1952C139.114 33.8131 139.114 33.4329 139.114 33.0446V11.0273C139.114 10.6421 139.114 10.2599 139.105 9.87879C139.105 9.5562 139.105 9.23258 139.101 8.90999C139.088 8.20407 139.016 7.50008 138.887 6.80387C138.763 6.10727 138.523 5.43211 138.177 4.80155C137.468 3.53607 136.342 2.50596 134.961 1.85614C134.27 1.53764 133.531 1.31532 132.768 1.19652C132.008 1.08057 131.241 1.01841 130.47 1.01057C130.121 1.00544 129.761 0.999273 129.411 0.997221C128.998 0.995117 128.579 0.995254 128.165 0.995254Z" fill="#A6A6A6"/>
<path d="M128.165 0.995254H12.58C12.1586 0.995254 11.7424 0.995254 11.3222 0.997358C10.9704 0.999462 10.6215 1.00557 10.2663 1.01072C9.49484 1.01903 8.72514 1.08118 7.96394 1.19662C7.20382 1.31457 6.4675 1.53695 5.7799 1.85623C5.09314 2.17821 4.46563 2.59659 3.92013 3.09619C3.37177 3.59439 2.91467 4.17023 2.5664 4.8016C2.21718 5.4317 1.97502 6.10691 1.8483 6.80391C1.72038 7.50003 1.65154 8.20418 1.64241 8.91004C1.63174 9.23258 1.63062 9.5562 1.625 9.87879V34.1952C1.63062 34.5219 1.63174 34.8383 1.64241 35.1651C1.65154 35.8709 1.72038 36.575 1.8483 37.2711C1.97467 37.9685 2.21684 38.6441 2.5664 39.2744C2.91451 39.9038 3.37167 40.4773 3.92013 40.9727C4.46356 41.4745 5.09148 41.8932 5.7799 42.2127C6.46749 42.5328 7.20373 42.7565 7.96394 42.8763C8.72526 42.9909 9.49488 43.053 10.2663 43.0623C10.6215 43.0695 10.9704 43.0736 11.3222 43.0736C11.7424 43.0757 12.1587 43.0756 12.58 43.0756H128.165C128.579 43.0756 128.998 43.0757 129.411 43.0736C129.761 43.0736 130.121 43.0695 130.47 43.0623C131.241 43.0535 132.008 42.9913 132.768 42.8763C133.531 42.7557 134.27 42.5321 134.961 42.2127C135.648 41.893 136.276 41.4743 136.819 40.9727C137.366 40.4753 137.824 39.9023 138.177 39.2744C138.524 38.6436 138.764 37.9681 138.887 37.2711C139.016 36.5749 139.088 35.871 139.101 35.1651C139.105 34.8383 139.105 34.5219 139.105 34.1952C139.114 33.8131 139.114 33.4329 139.114 33.0446V11.0273C139.114 10.6421 139.114 10.2599 139.105 9.87879C139.105 9.5562 139.105 9.23258 139.101 8.90999C139.088 8.20407 139.016 7.50008 138.887 6.80387C138.763 6.10727 138.523 5.43211 138.177 4.80155C137.468 3.53607 136.342 2.50596 134.961 1.85614C134.27 1.53764 133.531 1.31532 132.768 1.19652C132.008 1.08057 131.241 1.01841 130.47 1.01057C130.121 1.00544 129.761 0.999273 129.411 0.997221C128.998 0.995117 128.579 0.995254 128.165 0.995254Z" fill="black"/>
<path d="M9.0161 43.6923C8.63496 43.6923 8.26301 43.6879 7.88485 43.6804C7.10147 43.6712 6.31992 43.6103 5.54661 43.4983C4.82554 43.3874 4.12701 43.1813 3.47407 42.8867C2.82712 42.5945 2.23705 42.2113 1.72646 41.7519C1.20848 41.2978 0.777241 40.7713 0.449827 40.193C0.118805 39.6109 -0.110279 38.9871 -0.229454 38.3431C-0.358149 37.6512 -0.427775 36.9515 -0.437738 36.2501C-0.445673 36.0148 -0.456055 35.2309 -0.456055 35.2309V9.44451C-0.456055 9.44451 -0.444997 8.67272 -0.437676 8.44596C-0.42814 7.74571 -0.358914 7.04712 -0.230602 6.35624C-0.111213 5.7105 0.118052 5.08483 0.449251 4.5009C0.775461 3.92302 1.20431 3.39605 1.71917 2.94041C2.23345 2.48044 2.8254 2.09531 3.47345 1.79906C4.1249 1.50536 4.82211 1.30068 5.54171 1.19188C6.31757 1.07865 7.10183 1.01744 7.88793 1.00875L9.01672 0.995117H137.577L138.72 1.00929C139.499 1.01755 140.276 1.07822 141.045 1.19079C141.772 1.30095 142.476 1.50705 143.135 1.80233C144.433 2.39937 145.489 3.34392 146.156 4.50362C146.482 5.08353 146.708 5.70409 146.825 6.34425C146.955 7.0408 147.028 7.74488 147.042 8.45087C147.047 8.767 147.047 9.10657 147.047 9.44451C147.057 9.86311 147.057 10.2615 147.057 10.6632V34.0252C147.057 34.4307 147.057 34.8265 147.047 35.2254C147.047 35.5884 147.047 35.9209 147.042 36.2632C147.027 36.9566 146.955 37.6481 146.828 38.3322C146.711 38.9808 146.483 39.6095 146.152 40.1964C145.823 40.7683 145.394 41.2903 144.882 41.7431C144.371 42.2051 143.78 42.5905 143.131 42.8845C142.475 43.1815 141.771 43.3883 141.045 43.4983C140.271 43.611 139.49 43.6718 138.706 43.6804C138.34 43.6879 137.956 43.6923 137.584 43.6923L136.228 43.6945L9.0161 43.6923Z" fill="black"/>
<path d="M30.1571 22.0876C30.1696 21.1293 30.4267 20.1897 30.9044 19.3562C31.3822 18.5228 32.0651 17.8225 32.8897 17.3206C32.3659 16.5799 31.6749 15.9703 30.8715 15.5402C30.0681 15.1102 29.1746 14.8716 28.2618 14.8433C26.3146 14.641 24.4269 15.997 23.4347 15.997C22.4233 15.997 20.8956 14.8634 19.2505 14.897C18.1864 14.931 17.1494 15.2373 16.2405 15.7862C15.3315 16.3351 14.5816 17.1077 14.064 18.0288C11.8214 21.8732 13.4941 27.523 15.6423 30.6305C16.7171 32.1521 17.9732 33.8518 19.6169 33.7915C21.2252 33.7255 21.8258 32.776 23.7672 32.776C25.6907 32.776 26.2542 33.7915 27.9312 33.7532C29.657 33.7255 30.7444 32.2248 31.7815 30.6887C32.5537 29.6045 33.1479 28.4062 33.5421 27.1383C32.5395 26.7183 31.6838 26.0155 31.0819 25.1174C30.4799 24.2192 30.1583 23.1655 30.1571 22.0876Z" fill="white"/>
<path d="M26.9901 12.8001C27.9311 11.6815 28.3948 10.2439 28.2825 8.79248C26.8449 8.94198 25.5168 9.6223 24.5631 10.6978C24.0968 11.2233 23.7397 11.8346 23.5122 12.4968C23.2846 13.159 23.191 13.8591 23.2369 14.5571C23.9561 14.5644 24.6675 14.4101 25.3176 14.1057C25.9677 13.8014 26.5396 13.355 26.9901 12.8001Z" fill="white"/>
<path d="M52.7461 29.9729H47.2637L45.9471 33.8221H43.625L48.8179 19.5811H51.2305L56.4233 33.8221H54.0615L52.7461 29.9729ZM47.8315 28.1967H52.1772L50.0349 21.9498H49.975L47.8315 28.1967Z" fill="white"/>
<path d="M67.6376 28.6311C67.6376 31.8576 65.8934 33.9306 63.2614 33.9306C62.5946 33.9652 61.9315 33.813 61.348 33.4918C60.7646 33.1705 60.2842 32.6931 59.962 32.1141H59.9122V37.2568H57.7598V23.4391H59.8432V25.1661H59.8828C60.2198 24.5899 60.7082 24.1149 61.2963 23.7917C61.8842 23.4684 62.5497 23.3091 63.2218 23.3305C65.8831 23.3305 67.6376 25.4135 67.6376 28.6311ZM65.4251 28.6311C65.4251 26.5291 64.328 25.147 62.654 25.147C61.0094 25.147 59.9032 26.5582 59.9032 28.6311C59.9032 30.7231 61.0094 32.1242 62.654 32.1242C64.328 32.1242 65.4251 30.7523 65.4251 28.6311Z" fill="white"/>
<path d="M79.1786 28.6311C79.1786 31.8576 77.4345 33.9306 74.8024 33.9306C74.1357 33.9652 73.4726 33.813 72.889 33.4918C72.3056 33.1705 71.8252 32.6931 71.503 32.1141H71.4532V37.2568H69.3008V23.4391H71.3842V25.1661H71.4238C71.7608 24.5898 72.2493 24.1149 72.8372 23.7916C73.4252 23.4684 74.0907 23.3091 74.7627 23.3305C77.4243 23.3305 79.1786 25.4135 79.1786 28.6311ZM76.9662 28.6311C76.9662 26.5291 75.869 25.147 74.195 25.147C72.5504 25.147 71.4442 26.5582 71.4442 28.6311C71.4442 30.7231 72.5504 32.1242 74.195 32.1242C75.869 32.1242 76.9662 30.7522 76.9662 28.6311Z" fill="white"/>
<path d="M86.8069 29.8543C86.9664 31.2666 88.352 32.1938 90.2457 32.1938C92.0595 32.1938 93.3645 31.2665 93.3645 29.9932C93.3645 28.8878 92.5782 28.2259 90.7136 27.7723L88.8497 27.3277C86.2086 26.6961 84.9825 25.4732 84.9825 23.4886C84.9825 21.0315 87.1451 19.3438 90.2164 19.3438C93.2551 19.3438 95.3385 21.0315 95.4088 23.4886H93.2356C93.1057 22.0674 91.919 21.2095 90.1852 21.2095C88.4515 21.2095 87.265 22.0775 87.265 23.3408C87.265 24.3476 88.0228 24.94 89.8767 25.3935L91.4618 25.7788C94.4125 26.4698 95.6383 27.6435 95.6383 29.7266C95.6383 32.3908 93.4953 34.0596 90.0856 34.0596C86.8962 34.0596 84.7426 32.43 84.6035 29.8542L86.8069 29.8543Z" fill="white"/>
<path d="M100.284 20.9819V23.439H102.278V25.1267H100.284V30.8507C100.284 31.7399 100.683 32.1542 101.56 32.1542C101.796 32.1501 102.033 32.1337 102.268 32.1049V33.7826C101.874 33.8555 101.473 33.8885 101.072 33.8812C98.9496 33.8812 98.1214 33.0916 98.1214 31.0779V25.1267H96.5967V23.439H98.1214V20.9819H100.284Z" fill="white"/>
<path d="M103.433 28.6316C103.433 25.3649 105.376 23.312 108.406 23.312C111.447 23.312 113.381 25.3648 113.381 28.6316C113.381 31.9075 111.457 33.9513 108.406 33.9513C105.357 33.9513 103.433 31.9074 103.433 28.6316ZM111.188 28.6316C111.188 26.3907 110.151 25.0681 108.406 25.0681C106.663 25.0681 105.626 26.4008 105.626 28.6316C105.626 30.8816 106.663 32.1942 108.406 32.1942C110.151 32.1942 111.188 30.8816 111.188 28.6316Z" fill="white"/>
<path d="M115.155 23.439H117.208V25.2063H117.258C117.397 24.6544 117.723 24.1665 118.183 23.8249C118.642 23.4833 119.206 23.3087 119.78 23.3304C120.028 23.3295 120.276 23.3562 120.518 23.4099V25.4034C120.204 25.3086 119.878 25.2651 119.551 25.2746C119.238 25.262 118.926 25.3166 118.637 25.4346C118.348 25.5526 118.087 25.7312 117.875 25.9581C117.661 26.185 117.5 26.4549 117.402 26.7493C117.304 27.0437 117.272 27.3555 117.308 27.6633V33.8218H115.155V23.439Z" fill="white"/>
<path d="M130.441 30.7729C130.152 32.6578 128.298 33.9513 125.927 33.9513C122.875 33.9513 120.982 31.9276 120.982 28.6809C120.982 25.4242 122.886 23.312 125.836 23.312C128.737 23.312 130.561 25.2853 130.561 28.4334V29.1636H123.156V29.2924C123.121 29.6746 123.169 30.0595 123.297 30.4217C123.424 30.7839 123.629 31.1151 123.896 31.3932C124.162 31.6714 124.486 31.8901 124.844 32.035C125.203 32.1799 125.589 32.2475 125.976 32.2333C126.484 32.2805 126.995 32.1639 127.432 31.9007C127.868 31.6377 128.207 31.2421 128.398 30.7729H130.441ZM123.165 27.6741H128.408C128.427 27.3306 128.375 26.9867 128.254 26.6643C128.132 26.3418 127.945 26.0475 127.703 25.8001C127.462 25.5527 127.171 25.3573 126.85 25.2264C126.529 25.0953 126.184 25.0316 125.836 25.0389C125.485 25.0369 125.138 25.1036 124.814 25.2352C124.489 25.3667 124.195 25.5607 123.946 25.8057C123.697 26.0506 123.501 26.3419 123.367 26.6626C123.233 26.9833 123.165 27.3271 123.165 27.6741Z" fill="white"/>
<path d="M47.5591 8.83589C48.0106 8.80381 48.4637 8.87135 48.8856 9.03363C49.3075 9.1959 49.6878 9.44888 49.9991 9.7743C50.3103 10.0998 50.5447 10.4895 50.6854 10.9155C50.8261 11.3414 50.8695 11.7931 50.8126 12.2377C50.8126 14.4249 49.6187 15.6821 47.5591 15.6821H45.0615V8.83589H47.5591ZM46.1355 14.7139H47.4392C47.7617 14.733 48.0846 14.6806 48.3842 14.5606C48.6839 14.4405 48.9526 14.2558 49.1711 14.02C49.3895 13.7842 49.5521 13.5031 49.6469 13.1972C49.7417 12.8912 49.7666 12.5682 49.7194 12.2516C49.7631 11.9363 49.7359 11.6153 49.6395 11.3116C49.5432 11.0079 49.3802 10.7291 49.1623 10.4952C48.9444 10.2611 48.6768 10.0778 48.379 9.95823C48.0811 9.83861 47.7601 9.78573 47.4392 9.80337H46.1355V14.7139Z" fill="white"/>
<path d="M52.0263 13.0953C51.9935 12.7557 52.0327 12.4131 52.1414 12.0895C52.2502 11.7659 52.426 11.4683 52.6577 11.2159C52.8895 10.9635 53.1718 10.7618 53.4869 10.6239C53.8019 10.4858 54.1426 10.4146 54.487 10.4146C54.8315 10.4146 55.1722 10.4858 55.4872 10.6239C55.8023 10.7618 56.0846 10.9635 56.3164 11.2159C56.5481 11.4683 56.7239 11.7659 56.8327 12.0895C56.9414 12.4131 56.9806 12.7557 56.9478 13.0953C56.9812 13.4352 56.9425 13.7782 56.834 14.1024C56.7256 14.4265 56.5498 14.7246 56.318 14.9775C56.0863 15.2304 55.8037 15.4325 55.4883 15.5708C55.173 15.7091 54.8319 15.7805 54.487 15.7805C54.1422 15.7805 53.8011 15.7091 53.4857 15.5708C53.1704 15.4325 52.8878 15.2304 52.656 14.9775C52.4243 14.7246 52.2485 14.4265 52.1401 14.1024C52.0316 13.7782 51.9929 13.4352 52.0263 13.0953ZM55.8886 13.0953C55.8886 11.9753 55.3804 11.3204 54.4887 11.3204C53.5936 11.3204 53.0901 11.9753 53.0901 13.0953C53.0901 14.2241 53.5936 14.8741 54.4887 14.8741C55.3805 14.8741 55.8886 14.2197 55.8886 13.0953Z" fill="white"/>
<path d="M63.49 15.6802H62.4217L61.3433 11.875H61.2618L60.1878 15.6802H59.1298L57.6914 10.5137H58.7359L59.6707 14.456H59.7476L60.8205 10.5137H61.8083L62.8812 14.456H62.9626L63.8929 10.5137H64.9226L63.49 15.6802Z" fill="white"/>
<path d="M66.1318 10.5125H67.1232V11.3333H67.2001C67.3306 11.0385 67.5508 10.7914 67.8299 10.6264C68.1091 10.4614 68.4332 10.3867 68.7572 10.4128C69.0111 10.3939 69.2661 10.4318 69.5032 10.5237C69.7403 10.6156 69.9534 10.7592 70.1269 10.9437C70.3004 11.1283 70.4296 11.3491 70.5052 11.5898C70.5808 11.8306 70.6006 12.0851 70.5634 12.3344V15.6791H69.5336V12.5905C69.5336 11.7602 69.1692 11.3473 68.4075 11.3473C68.2352 11.3394 68.0631 11.3684 67.9032 11.4324C67.7431 11.4966 67.599 11.5941 67.4807 11.7184C67.3624 11.8428 67.2725 11.991 67.2175 12.153C67.1624 12.3149 67.1434 12.4867 67.1616 12.6566V15.6791H66.1318V10.5125Z" fill="white"/>
<path d="M72.2041 8.49658H73.2339V15.68H72.2041V8.49658Z" fill="white"/>
<path d="M74.6659 13.0954C74.6332 12.7558 74.6724 12.4132 74.7812 12.0895C74.8899 11.7659 75.0658 11.4683 75.2975 11.216C75.5292 10.9635 75.8117 10.7618 76.1268 10.6239C76.4417 10.4858 76.7825 10.4146 77.127 10.4146C77.4714 10.4146 77.8121 10.4858 78.1272 10.6239C78.4422 10.7618 78.7247 10.9635 78.9564 11.216C79.1881 11.4683 79.364 11.7659 79.4728 12.0895C79.5816 12.4132 79.6208 12.7558 79.588 13.0954C79.6214 13.4353 79.5826 13.7783 79.4741 14.1024C79.3657 14.4266 79.1898 14.7247 78.9581 14.9776C78.7263 15.2305 78.4436 15.4326 78.1283 15.5709C77.8129 15.7092 77.4719 15.7806 77.127 15.7806C76.7821 15.7806 76.4409 15.7092 76.1256 15.5709C75.8102 15.4326 75.5276 15.2305 75.2959 14.9776C75.0641 14.7247 74.8883 14.4266 74.7798 14.1024C74.6713 13.7783 74.6325 13.4353 74.6659 13.0954ZM78.5282 13.0954C78.5282 11.9755 78.0201 11.3205 77.1284 11.3205C76.2332 11.3205 75.7297 11.9755 75.7297 13.0954C75.7297 14.2242 76.2332 14.8741 77.1284 14.8741C78.0201 14.8741 78.5282 14.2198 78.5282 13.0954Z" fill="white"/>
<path d="M80.6719 14.2197C80.6719 13.2897 81.3713 12.7536 82.6127 12.6774L84.0261 12.5967V12.1507C84.0261 11.6051 83.6617 11.2969 82.9578 11.2969C82.383 11.2969 81.9846 11.5059 81.8703 11.8712H80.8733C80.9785 10.9838 81.8216 10.4146 83.0053 10.4146C84.3135 10.4146 85.0513 11.0594 85.0513 12.1507V15.6808H84.0601V14.9547H83.9786C83.8132 15.2152 83.5809 15.4275 83.3056 15.5701C83.0302 15.7126 82.7216 15.7802 82.4113 15.7659C82.1922 15.7885 81.9707 15.7654 81.7613 15.698C81.5518 15.6306 81.359 15.5206 81.195 15.3749C81.0312 15.2293 80.9 15.0512 80.8098 14.8522C80.7197 14.6533 80.6728 14.4378 80.6719 14.2197ZM84.0261 13.7782V13.3463L82.7519 13.427C82.0333 13.4746 81.7073 13.7166 81.7073 14.1721C81.7073 14.6371 82.1148 14.9077 82.6749 14.9077C82.839 14.9241 83.0049 14.9077 83.1625 14.8595C83.32 14.8112 83.4663 14.7319 83.5923 14.6266C83.7184 14.5212 83.8218 14.3918 83.8963 14.246C83.9708 14.1003 84.015 13.9413 84.0261 13.7782Z" fill="white"/>
<path d="M86.4053 13.0945C86.4053 11.4619 87.2529 10.4277 88.5713 10.4277C88.8974 10.4129 89.221 10.4902 89.5044 10.6507C89.7878 10.8112 90.0193 11.0483 90.1714 11.3342H90.248V8.49658H91.2781V15.68H90.2915V14.8637H90.2097C90.046 15.1477 89.8064 15.3818 89.5175 15.5407C89.2287 15.6996 88.9015 15.7771 88.5713 15.7651C87.2439 15.7652 86.4053 14.7309 86.4053 13.0945ZM87.4691 13.0945C87.4691 14.1903 87.9908 14.8498 88.8632 14.8498C89.7312 14.8498 90.2675 14.1808 90.2675 13.099C90.2675 12.0222 89.7256 11.3437 88.8632 11.3437C87.9964 11.3437 87.4691 12.0076 87.4691 13.0945Z" fill="white"/>
<path d="M95.5391 13.0953C95.5062 12.7557 95.5454 12.4131 95.6539 12.0895C95.7633 11.7659 95.9386 11.4683 96.1707 11.2159C96.402 10.9635 96.6849 10.7618 96.9998 10.6239C97.3147 10.4858 97.6554 10.4146 97.9997 10.4146C98.344 10.4146 98.6847 10.4858 98.9996 10.6239C99.3154 10.7618 99.5974 10.9635 99.8286 11.2159C100.061 11.4683 100.237 11.7659 100.345 12.0895C100.454 12.4131 100.493 12.7557 100.46 13.0953C100.494 13.4352 100.455 13.7782 100.346 14.1024C100.238 14.4265 100.063 14.7246 99.8304 14.9775C99.5991 15.2304 99.3163 15.4325 99.0013 15.5708C98.6855 15.7091 98.3448 15.7805 97.9997 15.7805C97.6545 15.7805 97.3138 15.7091 96.998 15.5708C96.6831 15.4325 96.4002 15.2304 96.169 14.9775C95.9368 14.7246 95.7615 14.4265 95.653 14.1024C95.5445 13.7782 95.5053 13.4352 95.5391 13.0953ZM99.4016 13.0953C99.4016 11.9753 98.8928 11.3204 98.0015 11.3204C97.1066 11.3204 96.6031 11.9753 96.6031 13.0953C96.6031 14.2241 97.1066 14.8741 98.0015 14.8741C98.8928 14.8741 99.4016 14.2197 99.4016 13.0953Z" fill="white"/>
<path d="M101.842 10.5125H102.834V11.3333H102.91C103.041 11.0385 103.262 10.7914 103.54 10.6264C103.819 10.4614 104.143 10.3867 104.468 10.4128C104.721 10.3939 104.977 10.4318 105.213 10.5237C105.451 10.6156 105.663 10.7592 105.837 10.9437C106.01 11.1283 106.14 11.3491 106.216 11.5898C106.291 11.8306 106.311 12.0851 106.274 12.3344V15.6791H105.244V12.5905C105.244 11.7602 104.88 11.3473 104.118 11.3473C103.946 11.3394 103.773 11.3684 103.614 11.4324C103.454 11.4966 103.31 11.5941 103.191 11.7184C103.073 11.8428 102.983 11.991 102.928 12.153C102.873 12.3149 102.853 12.4867 102.872 12.6566V15.6791H101.842V10.5125Z" fill="white"/>
<path d="M112.093 9.22656V10.5364H113.223V11.3952H112.093V14.0519C112.093 14.5932 112.319 14.8301 112.831 14.8301C112.963 14.8297 113.093 14.8219 113.223 14.8066V15.6559C113.039 15.6887 112.851 15.7061 112.664 15.708C111.518 15.708 111.062 15.3091 111.062 14.3129V11.3952H110.233V10.5364H111.062V9.22656H112.093Z" fill="white"/>
<path d="M114.629 8.49658H115.65V11.3437H115.731C115.868 11.0462 116.095 10.7977 116.38 10.632C116.664 10.4664 116.993 10.3918 117.323 10.4182C117.575 10.4046 117.828 10.4464 118.062 10.5405C118.297 10.6346 118.507 10.7788 118.678 10.9628C118.85 11.1468 118.979 11.3659 119.055 11.6048C119.131 11.8436 119.153 12.0961 119.119 12.3443V15.68H118.088V12.5959C118.088 11.7706 117.701 11.3527 116.973 11.3527C116.796 11.3383 116.618 11.3624 116.452 11.4232C116.284 11.4842 116.133 11.5803 116.009 11.705C115.883 11.8299 115.787 11.9802 115.727 12.1456C115.666 12.3109 115.643 12.4873 115.659 12.6625V15.68H114.629V8.49658Z" fill="white"/>
<path d="M125.124 14.2859C124.985 14.7581 124.681 15.1665 124.268 15.4398C123.855 15.713 123.357 15.8337 122.863 15.7806C122.52 15.7896 122.178 15.7244 121.862 15.5895C121.546 15.4547 121.264 15.2535 121.035 14.9998C120.805 14.746 120.635 14.4459 120.534 14.1202C120.433 13.7946 120.406 13.4512 120.453 13.1139C120.407 12.7756 120.435 12.4314 120.536 12.1048C120.635 11.7782 120.805 11.4767 121.034 11.2207C121.262 10.9647 121.543 10.7603 121.858 10.6213C122.173 10.4822 122.514 10.4117 122.858 10.4146C124.311 10.4146 125.186 11.3968 125.186 13.0192V13.375H121.502V13.4322C121.486 13.6217 121.51 13.8125 121.573 13.9924C121.635 14.1723 121.735 14.3371 121.867 14.4765C121.997 14.6158 122.156 14.7266 122.333 14.8016C122.509 14.8766 122.699 14.9144 122.891 14.9122C123.138 14.9415 123.388 14.8975 123.608 14.7861C123.83 14.6745 124.012 14.5004 124.133 14.2859H125.124ZM121.502 12.6209H124.138C124.15 12.4475 124.127 12.2733 124.067 12.1095C124.009 11.9458 123.915 11.7961 123.794 11.67C123.673 11.544 123.527 11.4444 123.365 11.3777C123.203 11.3109 123.028 11.2785 122.853 11.2825C122.675 11.2803 122.498 11.3134 122.334 11.3798C122.168 11.4464 122.019 11.5448 121.892 11.6696C121.767 11.7943 121.667 11.9427 121.6 12.1062C121.533 12.2695 121.5 12.4445 121.502 12.6209Z" fill="white"/>
<path d="M140.629 1.84828C143.116 1.84828 145.14 3.85954 145.14 6.33165V38.3594C145.14 40.8315 143.116 42.8428 140.629 42.8428H6.37088C3.88366 42.8428 1.8601 40.8315 1.8601 38.3594V6.33337C1.8601 3.86126 3.88366 1.84999 6.37088 1.84999H140.629V1.84828ZM140.629 0.995117H6.37088C3.41655 0.995117 1 3.39698 1 6.33337V38.3594C1 41.2958 3.41655 43.6977 6.37088 43.6977H140.629C143.583 43.6977 146 41.2958 146 38.3594V6.33337C146 3.39698 143.583 0.995117 140.629 0.995117Z" fill="black"/>
</g>
</g>
</g>
</g>
<mask id="path-31-inside-2_204_2616" fill="white">
<path d="M162 8.00001C162 3.58173 165.582 0 170 0H301C305.418 0 309 3.58172 309 8V36.44C309 40.8583 305.418 44.44 301 44.44H170C165.582 44.44 162 40.8583 162 36.44V8.00001Z"/>
</mask>
<path d="M170 0V1H301V0V-1H170V0ZM309 8H308V36.44H309H310V8H309ZM301 44.44V43.44H170V44.44V45.44H301V44.44ZM162 36.44H163V8.00001H162H161V36.44H162ZM170 44.44V43.44C166.134 43.44 163 40.306 163 36.44H162H161C161 41.4106 165.029 45.44 170 45.44V44.44ZM309 36.44H308C308 40.306 304.866 43.44 301 43.44V44.44V45.44C305.971 45.44 310 41.4105 310 36.44H309ZM301 0V1C304.866 1 308 4.13401 308 8H309H310C310 3.02944 305.971 -1 301 -1V0ZM170 0V-1C165.029 -1 161 3.02945 161 8.00001H162H163C163 4.13402 166.134 1 170 1V0Z" fill="#545454" mask="url(#path-31-inside-2_204_2616)"/>
<g clip-path="url(#clip3_204_2616)">
<g clip-path="url(#clip4_204_2616)">
<g clip-path="url(#clip5_204_2616)">
<mask id="mask1_204_2616" style="mask-type:luminance" maskUnits="userSpaceOnUse" x="162" y="1" width="147" height="43">
<path d="M300.928 1H170.071C166.165 1 162.998 4.16684 162.998 8.07333V36.3667C162.998 40.2732 166.165 43.44 170.071 43.44H300.928C304.835 43.44 308.001 40.2732 308.001 36.3667V8.07333C308.001 4.16684 304.835 1 300.928 1Z" fill="white"/>
</mask>
<g mask="url(#mask1_204_2616)">
<path d="M302.631 43.4822H168.369C165.361 43.4822 162.998 41.0468 162.998 38.1878V6.42093C162.998 3.45603 165.468 1.12646 168.369 1.12646H302.631C305.638 1.12646 308.001 3.56192 308.001 6.42093V38.1878C308.001 41.0468 305.638 43.4822 302.631 43.4822Z" fill="black"/>
<path d="M213.91 11.8226C213.91 12.6714 213.696 13.4141 213.159 13.9446C212.514 14.5812 211.762 14.8995 210.796 14.8995C209.829 14.8995 209.077 14.5812 208.432 13.9446C207.788 13.308 207.466 12.5653 207.466 11.6104C207.466 10.6555 207.788 9.91276 208.432 9.27618C209.077 8.63958 209.829 8.32129 210.796 8.32129C211.225 8.32129 211.655 8.42739 212.084 8.63959C212.514 8.85179 212.836 9.06399 213.051 9.38229L212.514 9.91276C212.084 9.38229 211.547 9.17009 210.796 9.17009C210.151 9.17009 209.507 9.38229 209.077 9.91276C208.54 10.3372 208.325 10.9738 208.325 11.7165C208.325 12.4592 208.54 13.0958 209.077 13.5202C209.614 13.9446 210.151 14.2629 210.796 14.2629C211.547 14.2629 212.084 14.0507 212.621 13.5202C212.944 13.2019 213.159 12.7775 213.159 12.247H210.796V11.5043H213.91C213.91 11.5043 213.91 11.7165 213.91 11.8226Z" fill="white" stroke="white" stroke-width="0.131141" stroke-miterlimit="10"/>
<path d="M218.851 9.17043H215.951V11.1863H218.636V11.929H215.951V13.9449H218.851V14.7937H215.092V8.42773H218.851V9.17043Z" fill="white" stroke="white" stroke-width="0.131141" stroke-miterlimit="10"/>
<path d="M222.395 14.7937H221.536V9.17043H219.71V8.42773H224.221V9.17043H222.395V14.7937Z" fill="white" stroke="white" stroke-width="0.131141" stroke-miterlimit="10"/>
<path d="M227.336 14.7937V8.42773H228.195V14.7937H227.336Z" fill="white" stroke="white" stroke-width="0.131141" stroke-miterlimit="10"/>
<path d="M231.848 14.7937H230.989V9.17043H229.163V8.42773H233.567V9.17043H231.741V14.7937H231.848Z" fill="white" stroke="white" stroke-width="0.131141" stroke-miterlimit="10"/>
<path d="M242.051 13.9446C241.407 14.5812 240.655 14.8995 239.688 14.8995C238.721 14.8995 237.97 14.5812 237.325 13.9446C236.681 13.308 236.358 12.5653 236.358 11.6104C236.358 10.6555 236.681 9.91276 237.325 9.27618C237.97 8.63958 238.721 8.32129 239.688 8.32129C240.655 8.32129 241.407 8.63958 242.051 9.27618C242.696 9.91276 243.018 10.6555 243.018 11.6104C243.018 12.5653 242.696 13.308 242.051 13.9446ZM237.97 13.4141C238.399 13.8385 239.044 14.1568 239.688 14.1568C240.333 14.1568 240.977 13.9446 241.407 13.4141C241.836 12.9897 242.159 12.3531 242.159 11.6104C242.159 10.8677 241.944 10.2311 241.407 9.80668C240.977 9.38228 240.333 9.06399 239.688 9.06399C239.044 9.06399 238.399 9.27618 237.97 9.80668C237.54 10.2311 237.218 10.8677 237.218 11.6104C237.218 12.3531 237.432 12.9897 237.97 13.4141Z" fill="white" stroke="white" stroke-width="0.131141" stroke-miterlimit="10"/>
<path d="M244.2 14.7937V8.42773H245.167L248.282 13.4144V12.1412V8.42773H249.141V14.7937H248.282L244.952 9.59483V10.868V14.7937H244.2Z" fill="white" stroke="white" stroke-width="0.131141" stroke-miterlimit="10"/>
<path d="M236.144 24.1303C233.566 24.1303 231.526 26.0401 231.526 28.6926C231.526 31.239 233.566 33.2549 236.144 33.2549C238.722 33.2549 240.763 31.3451 240.763 28.6926C240.763 25.934 238.722 24.1303 236.144 24.1303ZM236.144 31.3451C234.748 31.3451 233.566 30.178 233.566 28.5865C233.566 26.995 234.748 25.8279 236.144 25.8279C237.541 25.8279 238.722 26.8889 238.722 28.5865C238.722 30.178 237.541 31.3451 236.144 31.3451ZM226.155 24.1303C223.577 24.1303 221.536 26.0401 221.536 28.6926C221.536 31.239 223.577 33.2549 226.155 33.2549C228.733 33.2549 230.774 31.3451 230.774 28.6926C230.774 25.934 228.733 24.1303 226.155 24.1303ZM226.155 31.3451C224.759 31.3451 223.577 30.178 223.577 28.5865C223.577 26.995 224.759 25.8279 226.155 25.8279C227.551 25.8279 228.733 26.8889 228.733 28.5865C228.733 30.178 227.551 31.3451 226.155 31.3451ZM214.233 25.5096V27.4194H218.851C218.744 28.4804 218.314 29.3292 217.777 29.8597C217.133 30.4963 216.059 31.239 214.233 31.239C211.333 31.239 209.184 29.0109 209.184 26.1462C209.184 23.2815 211.44 21.0534 214.233 21.0534C215.736 21.0534 216.918 21.69 217.777 22.4327L219.173 21.0534C217.992 19.9924 216.488 19.1436 214.34 19.1436C210.473 19.1436 207.144 22.3266 207.144 26.1462C207.144 29.9658 210.473 33.1488 214.34 33.1488C216.488 33.1488 217.992 32.5122 219.281 31.1329C220.57 29.8597 220.999 28.056 220.999 26.6767C220.999 26.2523 220.999 25.8279 220.892 25.5096H214.233ZM262.997 26.995C262.567 25.934 261.493 24.1303 259.13 24.1303C256.767 24.1303 254.834 25.934 254.834 28.6926C254.834 31.239 256.767 33.2549 259.345 33.2549C261.385 33.2549 262.674 31.9817 263.104 31.239L261.6 30.178C261.063 30.9207 260.419 31.4512 259.345 31.4512C258.27 31.4512 257.626 31.0268 257.089 30.0719L263.212 27.5255L262.997 26.995ZM256.767 28.4804C256.767 26.7828 258.163 25.8279 259.13 25.8279C259.882 25.8279 260.634 26.2523 260.849 26.7828L256.767 28.4804ZM251.719 32.8305H253.759V19.568H251.719V32.8305ZM248.496 25.0852C247.959 24.5547 247.1 24.0242 246.026 24.0242C243.77 24.0242 241.622 26.0401 241.622 28.5865C241.622 31.1329 243.663 33.0427 246.026 33.0427C247.1 33.0427 247.959 32.5122 248.389 31.9817H248.496V32.6183C248.496 34.3159 247.53 35.2708 246.026 35.2708C244.844 35.2708 243.985 34.422 243.77 33.6793L242.052 34.422C242.589 35.5891 243.878 37.0745 246.133 37.0745C248.496 37.0745 250.43 35.6952 250.43 32.4061V24.3425H248.496V25.0852ZM246.133 31.3451C244.737 31.3451 243.555 30.178 243.555 28.5865C243.555 26.995 244.737 25.8279 246.133 25.8279C247.53 25.8279 248.604 26.995 248.604 28.5865C248.604 30.178 247.53 31.3451 246.133 31.3451ZM272.341 19.568H267.508V32.8305H269.549V27.8438H272.341C274.597 27.8438 276.745 26.2523 276.745 23.7059C276.745 21.1595 274.597 19.568 272.341 19.568ZM272.449 25.934H269.549V21.3717H272.449C273.953 21.3717 274.812 22.6449 274.812 23.5998C274.704 24.7669 273.845 25.934 272.449 25.934ZM284.801 24.0242C283.298 24.0242 281.794 24.6608 281.256 26.0401L283.083 26.7828C283.512 26.0401 284.156 25.8279 284.908 25.8279C285.983 25.8279 286.949 26.4645 287.056 27.5255V27.6316C286.734 27.4194 285.875 27.1011 285.015 27.1011C283.083 27.1011 281.149 28.1621 281.149 30.0719C281.149 31.8756 282.76 33.0427 284.479 33.0427C285.875 33.0427 286.519 32.4061 287.056 31.7695H287.164V32.8305H289.098V27.7377C288.883 25.4035 287.056 24.0242 284.801 24.0242ZM284.586 31.3451C283.941 31.3451 282.975 31.0268 282.975 30.178C282.975 29.117 284.156 28.7987 285.123 28.7987C285.983 28.7987 286.412 29.0109 286.949 29.2231C286.734 30.4963 285.66 31.3451 284.586 31.3451ZM295.864 24.3425L293.609 30.0719H293.501L291.138 24.3425H288.99L292.534 32.4061L290.494 36.8623H292.534L298.013 24.3425H295.864ZM277.819 32.8305H279.86V19.568H277.819V32.8305Z" fill="white"/>
<path d="M174.169 8.95752C173.847 9.27582 173.632 9.80632 173.632 10.4429V33.891C173.632 34.5276 173.847 35.0581 174.169 35.3764L174.276 35.4825L187.595 22.3261V22.22V22.1139L174.169 8.95752Z" fill="url(#paint0_linear_204_2616)"/>
<path d="M191.999 26.7831L187.595 22.433V22.2208V22.1147L191.999 17.7646L192.106 17.8707L197.369 20.8415C198.873 21.6903 198.873 23.0696 197.369 23.9184L191.999 26.7831Z" fill="url(#paint1_linear_204_2616)"/>
<path d="M192.106 26.6764L187.595 22.2202L174.169 35.4827C174.706 36.0132 175.458 36.0132 176.425 35.5888L192.106 26.6764Z" fill="url(#paint2_linear_204_2616)"/>
<path d="M192.106 17.7645L176.425 8.95815C175.458 8.42765 174.706 8.53375 174.169 9.06425L187.595 22.2207L192.106 17.7645Z" fill="url(#paint3_linear_204_2616)"/>
<path opacity="0.2" d="M191.999 26.5698L176.425 35.27C175.565 35.8005 174.813 35.6944 174.276 35.27L174.169 35.3761L174.276 35.4822C174.813 35.9066 175.565 36.0127 176.425 35.4822L191.999 26.5698Z" fill="black"/>
<path opacity="0.12" d="M174.169 35.2698C173.847 34.9515 173.739 34.4209 173.739 33.7842V33.8903C173.739 34.527 173.954 35.0576 174.276 35.3759V35.2698H174.169Z" fill="black"/>
<path opacity="0.12" d="M197.37 23.5995L191.999 26.5703L192.106 26.6764L197.37 23.7056C198.121 23.2812 198.444 22.7507 198.444 22.2202C198.444 22.7507 198.014 23.1751 197.37 23.5995Z" fill="black"/>
<path opacity="0.25" d="M176.425 9.06327L197.369 20.8404C198.014 21.2648 198.444 21.6892 198.444 22.2197C198.444 21.6892 198.121 21.1587 197.369 20.7343L176.425 8.95717C174.921 8.10837 173.739 8.85107 173.739 10.5487V10.6548C173.739 8.95717 174.921 8.21447 176.425 9.06327Z" fill="white"/>
<path d="M302.63 1.93362C305.117 1.93362 307.141 3.93254 307.141 6.38949V38.2191C307.141 40.6761 305.117 42.675 302.63 42.675H168.369C165.882 42.675 163.858 40.6761 163.858 38.2191V6.38949C163.858 3.93254 165.882 1.93362 168.369 1.93362H302.63ZM302.63 1.08398H168.369C165.415 1.08398 162.998 3.47112 162.998 6.38949V38.2191C162.998 41.1375 165.415 43.5246 168.369 43.5246H302.63C305.585 43.5246 308.001 41.1375 308.001 38.2191V6.38949C308.001 3.47112 305.585 1.08398 302.63 1.08398Z" fill="black"/>
</g>
</g>
</g>
</g>
<mask id="path-52-inside-3_204_2616" fill="white">
<path d="M324 8C324 3.58172 327.582 0 332 0H463C467.418 0 471 3.58172 471 8V37.5C471 41.9183 467.418 45.5 463 45.5H332C327.582 45.5 324 41.9183 324 37.5V8Z"/>
</mask>
<path d="M332 0V1H463V0V-1H332V0ZM471 8H470V37.5H471H472V8H471ZM463 45.5V44.5H332V45.5V46.5H463V45.5ZM324 37.5H325V8H324H323V37.5H324ZM332 45.5V44.5C328.134 44.5 325 41.366 325 37.5H324H323C323 42.4706 327.029 46.5 332 46.5V45.5ZM471 37.5H470C470 41.366 466.866 44.5 463 44.5V45.5V46.5C467.971 46.5 472 42.4706 472 37.5H471ZM463 0V1C466.866 1 470 4.13401 470 8H471H472C472 3.02944 467.971 -1 463 -1V0ZM332 0V-1C327.029 -1 323 3.02944 323 8H324H325C325 4.13401 328.134 1 332 1V0Z" fill="#545454" mask="url(#path-52-inside-3_204_2616)"/>
<g clip-path="url(#clip6_204_2616)">
<g clip-path="url(#clip7_204_2616)">
<g clip-path="url(#clip8_204_2616)">
<mask id="mask2_204_2616" style="mask-type:luminance" maskUnits="userSpaceOnUse" x="325" y="1" width="145" height="44">
<path d="M470 1H325V44.5H470V1Z" fill="white"/>
</mask>
<g mask="url(#mask2_204_2616)">
<path d="M459.772 1H334.06C333.732 1 333.404 1 333.074 1C332.353 1.01048 331.633 1.07446 330.922 1.1914C330.215 1.31113 329.53 1.53801 328.892 1.8642C328.25 2.19255 327.662 2.61916 327.152 3.1286C326.641 3.6383 326.214 4.22556 325.887 4.8686C325.557 5.5162 325.328 6.2106 325.209 6.9276C325.089 7.63776 325.025 8.35628 325.017 9.0765C325 9.41 325 9.7348 325 10.0654V35.4375C325 35.771 325 36.0958 325.017 36.4293C325.025 37.1495 325.089 37.868 325.209 38.5782C325.327 39.2851 325.553 39.9697 325.879 40.6082C326.537 41.907 327.588 42.9646 328.883 43.63C329.522 43.9568 330.206 44.1855 330.913 44.3086C331.625 44.4246 332.344 44.4876 333.065 44.4971C333.396 44.4971 333.723 44.4971 334.051 44.4971H460.926C461.254 44.4971 461.587 44.4971 461.914 44.4971C462.634 44.4882 463.351 44.4252 464.06 44.3086C464.774 44.1851 465.465 43.9563 466.111 43.63C466.756 43.3051 467.343 42.8781 467.851 42.3656C468.364 41.8567 468.793 41.2694 469.121 40.6256C469.444 39.9862 469.667 39.3018 469.785 38.5956C469.906 37.8853 469.972 37.167 469.985 36.4467C469.985 36.1132 469.985 35.7884 469.985 35.4549C469.985 35.0663 469.985 34.6777 469.985 34.2949V11.237C469.985 10.8426 469.985 10.454 469.985 10.077C469.985 9.7464 469.985 9.4158 469.985 9.0881C469.973 8.36781 469.906 7.64951 469.785 6.9392C469.666 6.23323 469.443 5.54901 469.121 4.9092C468.464 3.60657 467.414 2.54343 466.119 1.87C465.473 1.54715 464.783 1.32329 464.069 1.2059C463.36 1.08832 462.643 1.02434 461.923 1.0145C461.595 1.0145 461.262 1.0145 460.935 1.0145L459.772 1Z" fill="black"/>
<path d="M334.065 43.56C333.738 43.56 333.419 43.56 333.094 43.56C332.421 43.5512 331.751 43.4931 331.087 43.386C330.469 43.2809 329.87 43.0855 329.309 42.806C328.195 42.2348 327.287 41.3292 326.714 40.2163C326.431 39.6555 326.236 39.0551 326.134 38.4357C326.023 37.7703 325.964 37.0975 325.957 36.4231C325.957 36.1969 325.939 35.4429 325.939 35.4429V10.0649C325.939 10.0649 325.939 9.32251 325.957 9.10501C325.962 8.42965 326.02 7.75573 326.131 7.08951C326.232 6.46789 326.427 5.86541 326.711 5.30311C326.993 4.7498 327.362 4.24551 327.804 3.80961C328.246 3.36744 328.754 2.99665 329.309 2.71051C329.869 2.43036 330.467 2.23489 331.084 2.13051C331.75 2.02107 332.422 1.96193 333.097 1.95361H334.065H460.929H461.909C462.577 1.95933 463.244 2.0175 463.904 2.12761C464.528 2.22985 465.131 2.42537 465.697 2.70761C466.813 3.28372 467.72 4.19691 468.289 5.31761C468.57 5.87564 468.766 6.47302 468.869 7.08951C468.98 7.76074 469.043 8.43922 469.054 9.11951C469.054 9.42401 469.054 9.75171 469.054 10.0765C469.054 10.4796 469.054 10.8624 469.054 11.2365V34.2626C469.054 34.6541 469.054 35.034 469.054 35.4226C469.054 35.8112 469.054 36.0925 469.054 36.4231C469.044 37.0898 468.983 37.7549 468.872 38.4125C468.772 39.0363 468.577 39.6409 468.292 40.2047C467.716 41.3135 466.81 42.2163 465.699 42.7886C465.136 43.0711 464.532 43.2667 463.91 43.3686C463.246 43.4762 462.576 43.5344 461.903 43.5426C461.59 43.5426 461.26 43.5426 460.941 43.5426H334.065V43.56Z" fill="black"/>
<path d="M378.82 30.3656H373.719L372.481 33.7702H370.239L375.227 21.0508H377.344L382.445 33.7702H380.099L378.82 30.3656ZM374.369 28.6256H378.168L376.808 24.9832C376.622 24.4815 376.437 23.9247 376.257 23.3157C376.091 23.8551 375.912 24.4032 375.72 24.9658L374.369 28.6256Z" fill="white"/>
<path d="M383.348 26.615C383.348 25.9132 383.325 25.1399 383.278 24.295H385.308C385.385 24.6926 385.437 25.0946 385.465 25.4985C385.82 25.0728 386.263 24.7291 386.764 24.4907C387.264 24.2525 387.811 24.1253 388.365 24.1181C389.015 24.1078 389.653 24.2916 390.198 24.646C390.743 25.0004 391.17 25.5093 391.424 26.1075C391.781 26.93 391.951 27.8215 391.92 28.7175C391.942 29.6944 391.744 30.6638 391.34 31.5537C391.002 32.2923 390.451 32.9125 389.757 33.3343C389.043 33.7469 388.23 33.9565 387.405 33.9404C386.756 33.94 386.112 33.8302 385.5 33.6156V37.5393L383.331 37.7249L383.348 26.615ZM389.049 31.4493C389.49 30.8693 389.713 29.9993 389.713 28.8393C389.713 27.7818 389.53 27.0085 389.162 26.5193C388.996 26.292 388.778 26.1083 388.525 25.9841C388.273 25.8598 387.994 25.7986 387.712 25.8059C387.307 25.8005 386.907 25.9004 386.552 26.0959C386.175 26.3096 385.832 26.5784 385.535 26.8934V31.9684C385.775 32.0818 386.028 32.1655 386.289 32.2178C386.569 32.2784 386.854 32.3095 387.141 32.3106C387.505 32.3324 387.869 32.2655 388.202 32.1154C388.534 31.9653 388.825 31.7367 389.049 31.4493Z" fill="white"/>
<path d="M393.24 26.615C393.24 25.9132 393.217 25.1399 393.171 24.295H395.201C395.28 24.6924 395.333 25.0944 395.36 25.4985C396.205 24.5783 397.172 24.1181 398.26 24.1181C398.91 24.1078 399.549 24.2916 400.094 24.646C400.639 25.0004 401.066 25.5093 401.32 26.1075C401.677 26.93 401.846 27.8215 401.816 28.7175C401.842 29.6933 401.649 30.6627 401.25 31.5537C400.912 32.2926 400.359 32.913 399.664 33.3343C398.95 33.7474 398.137 33.957 397.312 33.9404C396.663 33.94 396.019 33.8302 395.407 33.6156V37.5393L393.238 37.7249L393.24 26.615ZM398.951 31.4493C399.391 30.8558 399.612 29.9858 399.612 28.8393C399.612 27.7818 399.429 27.0085 399.064 26.5193C398.898 26.292 398.679 26.1083 398.427 25.9841C398.174 25.8598 397.895 25.7986 397.614 25.8059C397.208 25.801 396.809 25.9009 396.454 26.0959C396.077 26.3096 395.733 26.5784 395.436 26.8934V31.9684C395.676 32.0808 395.93 32.1646 396.19 32.2178C396.47 32.2784 396.756 32.3095 397.042 32.3106C397.406 32.3319 397.77 32.2647 398.102 32.1146C398.435 31.9647 398.726 31.7364 398.951 31.4493Z" fill="white"/>
<path d="M405.803 33.1699C404.877 32.6617 404.124 31.8867 403.643 30.9456C403.117 29.8822 402.858 28.7066 402.889 27.5207C402.851 26.2519 403.152 24.9959 403.759 23.8812C404.307 22.914 405.131 22.1316 406.125 21.6337C407.17 21.1232 408.321 20.8658 409.484 20.8826C410.189 20.8795 410.892 20.9614 411.577 21.1262C412.219 21.2772 412.841 21.4989 413.433 21.7874L412.871 23.4549C411.845 22.9374 410.716 22.656 409.568 22.6313C408.757 22.6178 407.957 22.8178 407.248 23.2113C406.575 23.5975 406.034 24.1776 405.696 24.8759C405.307 25.7041 405.119 26.612 405.145 27.5265C405.131 28.3505 405.274 29.1695 405.569 29.9393C405.836 30.6207 406.305 31.2037 406.914 31.6097C407.608 32.0438 408.416 32.258 409.234 32.2245C409.658 32.2235 410.081 32.1876 410.499 32.1172C410.903 32.053 411.3 31.95 411.685 31.8098V29.223H408.744V27.5381H413.793V32.9002C413.06 33.2416 412.293 33.5031 411.505 33.6803C410.723 33.8605 409.923 33.9519 409.121 33.9529C407.966 33.9806 406.824 33.711 405.803 33.1699Z" fill="white"/>
<path d="M421.497 33.7704C421.415 33.3562 421.364 32.9364 421.346 32.5147C420.984 32.9362 420.542 33.2812 420.044 33.5297C419.483 33.814 418.86 33.9573 418.231 33.9473C417.717 33.9537 417.207 33.8437 416.741 33.6254C416.298 33.4174 415.927 33.0809 415.677 32.6597C415.4 32.1822 415.262 31.6367 415.279 31.085C415.263 30.6665 415.345 30.25 415.517 29.8684C415.689 29.4869 415.949 29.1508 416.274 28.8868C416.936 28.3377 418.038 28.0641 419.583 28.0661C420.158 28.0658 420.733 28.1065 421.303 28.1879V28.0023C421.303 27.1671 421.125 26.5774 420.769 26.2333C420.344 25.8673 419.792 25.683 419.232 25.72C418.731 25.726 418.232 25.7942 417.748 25.923C417.267 26.0387 416.799 26.1999 416.349 26.4044L416.008 24.8268C416.499 24.6169 417.01 24.4547 417.533 24.3425C418.19 24.1938 418.862 24.1198 419.536 24.1221C420.251 24.1025 420.961 24.2298 421.625 24.4962C422.208 24.754 422.683 25.2073 422.968 25.778C423.323 26.5419 423.49 27.3807 423.451 28.2227V31.9927C423.451 32.3793 423.475 32.9729 423.521 33.7733L421.497 33.7704ZM420.198 32.0304C420.616 31.8361 420.991 31.5611 421.303 31.2213V29.4813C420.822 29.4244 420.338 29.3924 419.853 29.3856C418.957 29.3856 418.338 29.5306 417.994 29.8206C417.825 29.9624 417.692 30.1405 417.603 30.3414C417.515 30.5424 417.472 30.7609 417.48 30.9806C417.465 31.1703 417.49 31.3612 417.555 31.5404C417.619 31.7194 417.721 31.8827 417.854 32.0188C418.137 32.2571 418.501 32.3786 418.87 32.3581C419.332 32.3511 419.786 32.239 420.198 32.0304Z" fill="white"/>
<path d="M425.129 31.4959V20.3019L427.287 20.1279V31.1102C427.256 31.4152 427.328 31.7215 427.492 31.9802C427.575 32.0694 427.677 32.1385 427.791 32.1821C427.905 32.2258 428.026 32.2431 428.148 32.2325C428.344 32.224 428.539 32.1909 428.728 32.1339L428.983 33.6883C428.74 33.78 428.488 33.8461 428.232 33.8855C427.955 33.9336 427.675 33.9588 427.394 33.9609C425.884 33.9513 425.129 33.1296 425.129 31.4959Z" fill="white"/>
<path d="M430.525 31.4959V20.3019L432.686 20.1279V31.1102C432.656 31.4152 432.728 31.7215 432.893 31.9802C432.975 32.0694 433.077 32.1385 433.191 32.1821C433.304 32.2258 433.426 32.2431 433.548 32.2325C433.744 32.224 433.939 32.1909 434.128 32.1339L434.38 33.6883C434.138 33.78 433.888 33.8462 433.632 33.8855C433.354 33.9337 433.073 33.9589 432.791 33.9609C431.283 33.9513 430.528 33.1296 430.525 31.4959Z" fill="white"/>
<path d="M443.254 29.3099H437.056C437.155 31.2955 438.1 32.2882 439.893 32.2882C440.352 32.2859 440.811 32.2314 441.258 32.1258C441.716 32.0194 442.163 31.8739 442.595 31.6908L443.071 33.1756C441.954 33.7019 440.732 33.9657 439.499 33.947C438.614 33.9726 437.738 33.773 436.952 33.367C436.271 32.9991 435.725 32.4244 435.391 31.7256C435.023 30.9163 434.845 30.0335 434.869 29.1446C434.846 28.2133 435.035 27.2887 435.424 26.4418C435.755 25.7232 436.29 25.118 436.964 24.7018C437.653 24.2956 438.443 24.0888 439.243 24.1044C440.038 24.0763 440.821 24.2963 441.485 24.7337C442.083 25.1493 442.547 25.731 442.819 26.407C443.117 27.1436 443.265 27.9324 443.254 28.727V29.3099ZM441.14 27.9324C441.143 27.3167 440.939 26.7178 440.56 26.233C440.389 26.0425 440.179 25.8917 439.944 25.7914C439.709 25.6912 439.455 25.644 439.199 25.653C438.942 25.6478 438.687 25.6967 438.45 25.7966C438.213 25.8966 438 26.0453 437.825 26.233C437.416 26.7095 437.166 27.3014 437.109 27.9266L441.14 27.9324Z" fill="white"/>
<path d="M444.895 26.6769C444.895 26.1578 444.868 25.3632 444.822 24.2989H446.852C446.887 24.5628 446.918 24.8789 446.954 25.2414C446.988 25.6039 447.005 25.9055 447.017 26.1346C447.236 25.7649 447.484 25.4138 447.759 25.0848C448 24.8035 448.288 24.5686 448.612 24.3917C448.953 24.2077 449.335 24.1147 449.723 24.122C450.017 24.1148 450.31 24.151 450.593 24.2293L450.32 26.1085C449.981 26.0102 449.624 25.9851 449.275 26.0352C448.924 26.0852 448.589 26.209 448.29 26.3985C447.81 26.7552 447.392 27.1882 447.053 27.6803V33.7703H444.895V26.6769Z" fill="white"/>
<path d="M451.801 37.647C451.536 37.6043 451.275 37.5413 451.021 37.4585L451.415 35.878C451.598 35.9272 451.783 35.9669 451.969 35.9969C452.178 36.034 452.389 36.0534 452.601 36.0549C453.568 36.0549 454.287 35.4372 454.759 34.2018L454.901 33.8509L451.407 24.2983H453.727L455.501 29.6372C455.728 30.324 455.912 31.0243 456.052 31.7339C456.218 31.0495 456.409 30.3651 456.632 29.6807L458.401 24.2983H460.585L457.105 33.8944C456.842 34.6674 456.484 35.4048 456.04 36.0897C455.702 36.6071 455.239 37.0318 454.695 37.3251C454.112 37.6101 453.467 37.7494 452.819 37.7311C452.478 37.7324 452.137 37.7043 451.801 37.647Z" fill="white"/>
<path d="M370.239 8.94043H374.096L373.989 9.87423H371.364V11.6809H373.838V12.5509H371.364V14.5519H374.128L374.032 15.5002H370.239V8.94043Z" fill="white"/>
<path d="M376.763 12.1536L374.733 8.94043H376.02L377.401 11.301L378.851 8.94043H380.1L378.07 12.113L380.266 15.5002H378.961L377.398 12.9192L375.806 15.5002H374.556L376.763 12.1536Z" fill="white"/>
<path d="M381.098 8.94043H382.867C383.696 8.94043 384.332 9.10959 384.775 9.44793C384.995 9.62121 385.17 9.8451 385.285 10.1006C385.4 10.3561 385.452 10.6356 385.436 10.9153C385.448 11.3149 385.348 11.7099 385.146 12.055C384.949 12.3795 384.662 12.6395 384.32 12.8032C383.939 12.9831 383.522 13.0724 383.102 13.0642C382.809 13.0601 382.518 13.0301 382.232 12.9743V15.5002H381.098V8.94043ZM383.94 11.8694C384.063 11.7506 384.16 11.6063 384.222 11.4467C384.285 11.287 384.312 11.1156 384.302 10.9443C384.317 10.7802 384.291 10.615 384.227 10.4633C384.163 10.3116 384.062 10.178 383.934 10.0743C383.607 9.87556 383.228 9.78238 382.846 9.80753H382.232V12.1275C382.447 12.1663 382.665 12.1887 382.884 12.1942C383.264 12.2228 383.641 12.1068 383.94 11.8694Z" fill="white"/>
<path d="M386.557 8.94043H387.688V14.5316H390.402L390.306 15.5002H386.557V8.94043Z" fill="white"/>
<path d="M392.124 15.1782C391.648 14.9108 391.264 14.5066 391.022 14.0182C390.758 13.4769 390.628 12.8803 390.642 12.2782C390.628 11.6491 390.767 11.0261 391.048 10.4629C391.305 9.95512 391.709 9.53672 392.208 9.26225C392.766 8.96992 393.391 8.82799 394.02 8.85045C394.616 8.83447 395.205 8.97549 395.728 9.25935C396.201 9.52775 396.582 9.93188 396.822 10.4194C397.08 10.955 397.208 11.5444 397.196 12.1391C397.211 12.7751 397.071 13.4054 396.787 13.9748C396.527 14.4807 396.123 14.8985 395.627 15.1754C395.078 15.4671 394.464 15.6129 393.843 15.5988C393.243 15.614 392.649 15.4688 392.124 15.1782ZM395.058 14.375C395.378 14.1631 395.627 13.8599 395.772 13.505C395.935 13.0986 396.014 12.6638 396.007 12.2261C396.014 11.7964 395.943 11.3689 395.798 10.9645C395.668 10.6143 395.435 10.3111 395.131 10.0945C394.778 9.87847 394.372 9.76413 393.958 9.76413C393.544 9.76413 393.138 9.87847 392.785 10.0945C392.464 10.3169 392.214 10.6271 392.066 10.9878C391.901 11.3774 391.819 11.7971 391.825 12.2202C391.818 12.6562 391.895 13.0893 392.051 13.4963C392.19 13.8685 392.444 14.1868 392.776 14.4049C393.108 14.6228 393.502 14.7292 393.898 14.7085C394.31 14.7186 394.715 14.6021 395.058 14.375Z" fill="white"/>
<path d="M398.457 8.93991H400.51C401.112 8.89733 401.71 9.05541 402.213 9.38941C402.405 9.54066 402.558 9.73615 402.659 9.9593C402.76 10.1825 402.806 10.4267 402.793 10.6712C402.799 10.9892 402.728 11.3039 402.584 11.5876C402.458 11.8364 402.282 12.0565 402.068 12.2343C401.876 12.3893 401.66 12.5126 401.43 12.5997L403.46 15.4997H402.14L400.432 12.8897H399.6V15.4997H398.457V8.93991ZM400.235 12.0429C400.487 12.0484 400.736 11.9937 400.963 11.8834C401.167 11.7854 401.339 11.6315 401.459 11.4397C401.578 11.2349 401.639 11.0012 401.635 10.764C401.647 10.6272 401.625 10.4895 401.57 10.3634C401.515 10.2374 401.43 10.1269 401.322 10.0419C401.05 9.8717 400.732 9.79153 400.412 9.81281H399.591V12.0545L400.235 12.0429Z" fill="white"/>
<path d="M404.345 8.94043H408.21L408.1 9.87423H405.49V11.6809H407.941V12.5509H405.467V14.5519H408.231L408.147 15.5002H404.345V8.94043Z" fill="white"/>
<path d="M412.414 8.94043H413.545V15.5002H412.414V8.94043Z" fill="white"/>
<path d="M416.541 9.88583H414.511L414.609 8.94043H419.713L419.609 9.88583H417.675V15.5002H416.541V9.88583Z" fill="white"/>
<path d="M424.629 15.1785C424.155 14.9109 423.772 14.5067 423.53 14.0185C423.264 13.4779 423.133 12.8809 423.148 12.2785C423.134 11.6494 423.273 11.0264 423.554 10.4631C423.812 9.95591 424.215 9.53771 424.714 9.26252C425.267 8.96875 425.888 8.8229 426.514 8.83912C427.117 8.82289 427.712 8.96807 428.24 9.25962C428.713 9.52715 429.094 9.93152 429.334 10.4196C429.593 10.955 429.722 11.5444 429.711 12.1393C429.726 12.7758 429.585 13.4064 429.298 13.975C429.04 14.4816 428.636 14.8996 428.138 15.1756C427.59 15.4681 426.976 15.6139 426.355 15.599C425.753 15.6152 425.157 15.4701 424.629 15.1785ZM427.567 14.3752C427.885 14.1624 428.133 13.8595 428.278 13.5052C428.44 13.0989 428.521 12.664 428.513 12.2263C428.52 11.7967 428.449 11.3692 428.304 10.9648C428.175 10.6147 427.943 10.3116 427.64 10.0948C427.286 9.87848 426.88 9.76401 426.465 9.76401C426.05 9.76401 425.644 9.87848 425.291 10.0948C424.97 10.3172 424.721 10.6273 424.571 10.988C424.408 11.3781 424.326 11.7976 424.331 12.2205C424.324 12.6564 424.401 13.0896 424.557 13.4965C424.695 13.8542 424.937 14.163 425.25 14.3839C425.594 14.6105 425.999 14.7241 426.41 14.7087C426.821 14.7172 427.224 14.6009 427.567 14.3752Z" fill="white"/>
<path d="M430.965 8.94043H432.264L435.51 14.0241C435.481 13.5398 435.469 13.0961 435.469 12.6872V8.94043H436.518V15.5002H435.26L431.965 10.3353C431.997 10.9153 432.015 11.4402 432.015 11.8955V15.5002H430.965V8.94043Z" fill="white"/>
<path fill-rule="evenodd" clip-rule="evenodd" d="M354.29 8.97461H342.252C336.576 8.97461 334.5 11.051 334.5 16.7263V28.7729C334.5 34.4482 336.576 36.5246 342.252 36.5246H354.29C359.965 36.5246 362.044 34.4482 362.044 28.7729V16.7263C362.05 11.051 359.974 8.97461 354.29 8.97461Z" fill="#C8102E"/>
<path d="M339.955 22.75H340.686V26.3547H339.955V24.8902H338.305V26.3547H337.574V22.75H338.305V24.2H339.955V22.75ZM344.073 24.8119C344.073 25.3919 343.783 25.7109 343.255 25.7109C342.728 25.7109 342.432 25.3919 342.432 24.78V22.75H341.701V24.809C341.701 25.8211 342.264 26.4011 343.244 26.4011C344.224 26.4011 344.804 25.8211 344.804 24.7771V22.75H344.073V24.8119ZM352.518 25.2266L351.7 22.75H351.1L350.288 25.2295L349.49 22.75H348.713L349.969 26.3547H350.575L351.39 23.9883L352.208 26.3547H352.82L354.075 22.75H353.315L352.518 25.2266ZM355.383 24.8003H356.714V24.1478H355.383V23.4112H357.315V22.75H354.664V26.346H357.384V25.6964H355.383V24.8003ZM358.254 26.346H358.976V22.75H358.254V26.346ZM346.248 25.6007L345.92 26.3489H345.175L346.75 22.75H347.394L348.974 26.3489H348.22L347.91 25.6036L346.248 25.6007ZM346.521 24.9511H347.62L347.069 23.6635L346.521 24.9511Z" fill="white"/>
<path d="M348.276 18.1655C347.061 18.1647 345.895 17.6814 345.035 16.8218C344.175 15.9621 343.692 14.7964 343.691 13.5806H344.338C344.338 14.6251 344.753 15.6268 345.492 16.3653C346.23 17.1039 347.232 17.5188 348.276 17.5188C349.321 17.5188 350.322 17.1039 351.061 16.3653C351.8 15.6268 352.215 14.6251 352.215 13.5806H352.861C352.86 14.7964 352.377 15.9621 351.518 16.8218C350.658 17.6814 349.492 18.1647 348.276 18.1655Z" fill="white"/>
</g>
</g>
</g>
</g>
<defs>
<linearGradient id="paint0_linear_204_2616" x1="186.413" y1="10.241" x2="168.608" y2="28.2656" gradientUnits="userSpaceOnUse">
<stop stop-color="#00BEFF"/>
<stop offset="0.00657445" stop-color="#00BEFF"/>
<stop offset="0.2601" stop-color="#00BEFF"/>
<stop offset="0.5122" stop-color="#00E3FF"/>
<stop offset="0.7604" stop-color="#00E3FF"/>
<stop offset="1" stop-color="#00E3FF"/>
</linearGradient>
<linearGradient id="paint1_linear_204_2616" x1="199.339" y1="22.2224" x2="173.349" y2="22.2224" gradientUnits="userSpaceOnUse">
<stop stop-color="#FFE000"/>
<stop offset="0.4087" stop-color="#FF9C00"/>
<stop offset="0.7754" stop-color="#FF9C00"/>
<stop offset="1" stop-color="#FF9C00"/>
</linearGradient>
<linearGradient id="paint2_linear_204_2616" x1="189.665" y1="24.6564" x2="165.52" y2="49.0992" gradientUnits="userSpaceOnUse">
<stop stop-color="#FF3A3A"/>
<stop offset="1" stop-color="#C31162"/>
</linearGradient>
<linearGradient id="paint3_linear_204_2616" x1="170.836" y1="1.1876" x2="181.618" y2="12.1023" gradientUnits="userSpaceOnUse">
<stop stop-color="#32A071"/>
<stop offset="0.0685" stop-color="#2DA771"/>
<stop offset="0.4762" stop-color="#15CF74"/>
<stop offset="0.8009" stop-color="#06E775"/>
<stop offset="1" stop-color="#00F076"/>
</linearGradient>
<clipPath id="clip0_204_2616">
<rect width="145" height="42.69" fill="white" transform="translate(1 1)"/>
</clipPath>
<clipPath id="clip1_204_2616">
<rect width="145" height="42.69" fill="white" transform="translate(1 1)"/>
</clipPath>
<clipPath id="clip2_204_2616">
<rect width="145" height="42.6994" fill="white" transform="translate(1 0.995117)"/>
</clipPath>
<clipPath id="clip3_204_2616">
<rect width="145" height="42.44" fill="white" transform="translate(163 1)"/>
</clipPath>
<clipPath id="clip4_204_2616">
<rect width="145" height="42.44" fill="white" transform="translate(163 1)"/>
</clipPath>
<clipPath id="clip5_204_2616">
<rect width="145.003" height="42.44" fill="white" transform="translate(162.998 1)"/>
</clipPath>
<clipPath id="clip6_204_2616">
<rect width="145" height="43.5" fill="white" transform="translate(325 1)"/>
</clipPath>
<clipPath id="clip7_204_2616">
<rect width="145" height="43.5" fill="white" transform="translate(325 1)"/>
</clipPath>
<clipPath id="clip8_204_2616">
<rect width="145" height="43.5" fill="white" transform="translate(325 1)"/>
</clipPath>
</defs>
</svg>
