<svg width="34" height="21" viewBox="0 0 34 21" fill="none" xmlns="http://www.w3.org/2000/svg">
<path d="M14.5277 0.787387L11.8842 3.43088C11.0927 3.64815 10.3581 4.04648 9.7373 4.59484L8.36124 5.82088C7.83358 6.29164 7.14555 6.5503 6.43682 6.5503H5.41253V13.172C6.46786 13.203 7.47145 13.6324 8.22156 14.3825L10.0632 16.2241L10.4253 16.5862L11.8221 17.983C12.1428 18.3037 12.6705 18.3037 12.9912 17.983C13.0792 17.8951 13.1464 17.7916 13.1826 17.683C13.3275 17.2846 13.6637 16.9846 14.0776 16.8915C14.4914 16.7983 14.926 16.9225 15.226 17.2277L15.7847 17.7761C16.3848 18.3762 17.3574 18.3762 17.9523 17.7761C18.2316 17.4967 18.3817 17.1398 18.3972 16.7725C18.4179 16.3172 18.6869 15.9137 19.1007 15.7172C19.5146 15.5206 19.9957 15.562 20.363 15.8258C20.8493 16.1724 21.527 16.1258 21.9615 15.6913C22.4478 15.205 22.4478 14.4187 21.9615 13.9376L18.0402 10.0163L16.1882 11.7235C14.776 13.0271 12.6084 13.0478 11.1703 11.77C9.53038 10.3112 9.49416 7.76599 11.0875 6.2606L14.7139 2.83596C16.1313 1.50128 18.004 0.756348 19.9543 0.756348C21.8218 0.756348 23.6273 1.44438 25.0188 2.68077L26.576 4.06718H32.7269C33.1821 4.06718 33.5546 4.43964 33.5546 4.89488V15.6551C33.5546 16.5707 32.8148 17.3105 31.8992 17.3105H30.2438C29.6333 17.3105 29.0953 16.9794 28.8108 16.4828H24.4188C24.2429 16.8294 24.0101 17.1605 23.7204 17.4502C22.8358 18.3348 21.6097 18.6814 20.4613 18.49C20.2751 18.8676 20.0216 19.2194 19.706 19.535C18.2937 20.9472 16.0848 21.0869 14.5121 19.954C13.2137 21.03 11.2789 20.9628 10.0632 19.7419L8.67163 18.3451L8.30951 17.983L6.46786 16.1414C6.18334 15.8568 5.81087 15.6913 5.41253 15.6603C5.41253 16.5707 4.6676 17.3105 3.75712 17.3105H2.1017C1.18605 17.3105 0.446289 16.5707 0.446289 15.6551V4.89488C0.446289 4.43964 0.818757 4.06718 1.274 4.06718H6.43682C6.54028 4.06718 6.63857 4.03096 6.711 3.96371L8.08189 2.74285C9.5252 1.46507 11.3824 0.756348 13.312 0.756348H13.8448C14.0724 0.756348 14.3052 0.766694 14.5277 0.787387ZM28.5883 13.9997V6.5503H26.1052C25.8 6.5503 25.5051 6.43649 25.2827 6.23473L23.3738 4.53794C22.4323 3.69988 21.2166 3.23947 19.9543 3.23947C18.6403 3.23947 17.3781 3.74127 16.421 4.6414L12.7946 8.06604C12.2618 8.57301 12.2722 9.42658 12.8205 9.91286C13.3016 10.3422 14.031 10.3319 14.5018 9.89734L18.2213 6.46235C18.7231 5.99677 19.5094 6.02781 19.975 6.53478C20.4406 7.04175 20.4096 7.8229 19.9026 8.28848L19.8612 8.32987L23.71 12.1787C24.2274 12.696 24.5636 13.3323 24.7136 13.9945H28.5832L28.5883 13.9997ZM3.75712 14.8274C3.75712 14.6078 3.66991 14.3973 3.51469 14.2421C3.35946 14.0869 3.14893 13.9997 2.92941 13.9997C2.70989 13.9997 2.49936 14.0869 2.34413 14.2421C2.18891 14.3973 2.1017 14.6078 2.1017 14.8274C2.1017 15.0469 2.18891 15.2574 2.34413 15.4126C2.49936 15.5679 2.70989 15.6551 2.92941 15.6551C3.14893 15.6551 3.35946 15.5679 3.51469 15.4126C3.66991 15.2574 3.75712 15.0469 3.75712 14.8274ZM31.0715 15.6551C31.291 15.6551 31.5015 15.5679 31.6567 15.4126C31.812 15.2574 31.8992 15.0469 31.8992 14.8274C31.8992 14.6078 31.812 14.3973 31.6567 14.2421C31.5015 14.0869 31.291 13.9997 31.0715 13.9997C30.8519 13.9997 30.6414 14.0869 30.4862 14.2421C30.331 14.3973 30.2438 14.6078 30.2438 14.8274C30.2438 15.0469 30.331 15.2574 30.4862 15.4126C30.6414 15.5679 30.8519 15.6551 31.0715 15.6551Z" fill="#00183A"/>
</svg>
