<svg width="30" height="29" viewBox="0 0 30 29" fill="none" xmlns="http://www.w3.org/2000/svg">
<path d="M13.5522 15.6552L11.5519 13.6894C11.299 13.4365 10.9831 13.31 10.6042 13.31C10.2253 13.31 9.89743 13.448 9.62061 13.7239C9.3677 13.9768 9.24124 14.2987 9.24124 14.6896C9.24124 15.0804 9.3677 15.4023 9.62061 15.6552L12.5866 18.6212C12.8625 18.8971 13.1843 19.035 13.5522 19.035C13.9201 19.035 14.242 18.8971 14.5179 18.6212L20.3808 12.7582C20.6567 12.4823 20.7887 12.1604 20.7767 11.7926C20.7648 11.4247 20.6328 11.1028 20.3808 10.8269C20.1049 10.551 19.7775 10.4075 19.3986 10.3965C19.0197 10.3855 18.6918 10.5174 18.415 10.7924L13.5522 15.6552ZM9.68958 28.1398L7.68929 24.76L3.89563 23.9323C3.55076 23.8633 3.27485 23.6854 3.06793 23.3984C2.861 23.1115 2.78053 22.7951 2.82651 22.4493L3.20588 18.5522L0.619292 15.5862C0.389373 15.3333 0.274414 15.0344 0.274414 14.6896C0.274414 14.3447 0.389373 14.0458 0.619292 13.7929L3.20588 10.8269L2.82651 6.9298C2.78053 6.58492 2.861 6.26855 3.06793 5.98069C3.27485 5.69283 3.55076 5.51488 3.89563 5.44682L7.68929 4.61911L9.68958 1.23931C9.87352 0.940415 10.1264 0.739006 10.4483 0.635083C10.7702 0.53116 11.0921 0.548633 11.414 0.687504L15.0007 2.20497L18.5874 0.687504C18.9093 0.549553 19.2312 0.532079 19.5531 0.635083C19.875 0.738086 20.1279 0.939495 20.3118 1.23931L22.3121 4.61911L26.1058 5.44682C26.4507 5.5158 26.7266 5.69421 26.9335 5.98207C27.1404 6.26993 27.2209 6.58584 27.1749 6.9298L26.7955 10.8269L29.3821 13.7929C29.612 14.0458 29.727 14.3447 29.727 14.6896C29.727 15.0344 29.612 15.3333 29.3821 15.5862L26.7955 18.5522L27.1749 22.4493C27.2209 22.7942 27.1404 23.1106 26.9335 23.3984C26.7266 23.6863 26.4507 23.8642 26.1058 23.9323L22.3121 24.76L20.3118 28.1398C20.1279 28.4387 19.875 28.6401 19.5531 28.744C19.2312 28.8479 18.9093 28.8305 18.5874 28.6916L15.0007 27.1741L11.414 28.6916C11.0921 28.8296 10.7702 28.847 10.4483 28.744C10.1264 28.641 9.87352 28.4396 9.68958 28.1398ZM11.4829 25.6567L15.0007 24.1392L18.5874 25.6567L20.5188 22.3458L24.3124 21.4492L23.9675 17.5865L26.5196 14.6896L23.9675 11.7236L24.3124 7.86097L20.5188 7.03326L18.5185 3.72243L15.0007 5.23989L11.414 3.72243L9.48266 7.03326L5.689 7.86097L6.03388 11.7236L3.48178 14.6896L6.03388 17.5865L5.689 21.5181L9.48266 22.3458L11.4829 25.6567Z" fill="#00183A"/>
</svg>
