<svg width="24" height="29" viewBox="0 0 24 29" fill="none" xmlns="http://www.w3.org/2000/svg">
<path d="M10.5515 19.5864L18.3457 11.7922L16.3799 9.82638L10.5515 15.6548L7.6545 12.7578L5.6887 14.7237L10.5515 19.5864ZM12 28.4843C8.80409 27.6796 6.16601 25.8457 4.0857 22.9828C2.0054 20.1198 0.964787 16.9414 0.963867 13.4476V5.03258L12 0.894043L23.0361 5.03258V13.4476C23.0361 16.9424 21.9959 20.1212 19.9156 22.9842C17.8353 25.8471 15.1968 27.6805 12 28.4843ZM12 25.5873C14.3911 24.8286 16.3684 23.3111 17.9319 21.0349C19.4953 18.7587 20.277 16.2296 20.277 13.4476V6.92941L12 3.82551L3.72289 6.92941V13.4476C3.72289 16.2296 4.50461 18.7587 6.06806 21.0349C7.63151 23.3111 9.60881 24.8286 12 25.5873Z" fill="#00183A"/>
</svg>
