<svg width="54" height="45" viewBox="0 0 54 45" fill="none" xmlns="http://www.w3.org/2000/svg">
<path d="M25.3542 2.08023C26.9784 1.85361 28.6687 2.10856 30.1418 2.82622C32.1059 3.76106 33.6734 5.48909 34.4099 7.53818C35.3447 10.0689 34.9387 13.0622 33.3429 15.2435C31.9264 17.2737 29.5563 18.6052 27.0823 18.7468C24.6177 18.9357 22.1059 17.9347 20.4251 16.1312C19.3297 14.9791 18.5743 13.506 18.291 11.9385C17.8944 9.91778 18.291 7.75537 19.3769 6.00845C20.6612 3.89326 22.9086 2.40129 25.3542 2.08023Z" fill="white"/>
<path d="M10.9632 9.8708C12.3702 9.68194 13.8433 9.99355 15.0614 10.7395C16.2229 11.4477 17.1388 12.5431 17.6393 13.8179C18.1681 15.1682 18.2059 16.698 17.7432 18.0672C17.1105 20.0029 15.4675 21.5705 13.5033 22.1276C12.0208 22.5525 10.3778 22.4014 8.99912 21.7121C7.64879 21.0417 6.56287 19.8707 5.9963 18.4827C5.44862 17.1701 5.37307 15.6592 5.78856 14.2995C6.44956 11.9671 8.56475 10.1541 10.9632 9.8708Z" fill="#B756FE"/>
<path d="M40.5105 9.86104C41.8702 9.70051 43.2867 9.9838 44.467 10.692C45.6568 11.4002 46.6105 12.5145 47.111 13.8081C47.687 15.2718 47.687 16.9526 47.0921 18.4068C46.535 19.8327 45.4302 21.0225 44.061 21.7023C43.06 22.2123 41.908 22.42 40.7938 22.3445C38.8108 22.2123 36.9411 21.0413 35.9213 19.3416C34.5804 17.2453 34.722 14.3464 36.2234 12.3728C37.2244 10.9847 38.8108 10.0593 40.5105 9.86104Z" fill="#B756FE"/>
<path d="M21.5304 20.5315C22.182 20.4749 22.843 20.4937 23.4945 20.4937C25.9213 20.4937 28.3387 20.4937 30.7655 20.4937C32.4463 20.4843 34.1177 21.1075 35.3831 22.2218C36.5728 23.2605 37.4038 24.7052 37.6588 26.2633C37.8004 27.0093 37.7626 27.7742 37.7721 28.539C37.7721 32.8827 37.7721 37.217 37.7721 41.5607C37.791 42.0989 37.4699 42.6372 36.9694 42.8638C36.6295 43.0338 36.2329 42.996 35.8646 43.0054C29.4718 43.0054 23.0885 43.0054 16.6957 43.0054C15.9214 43.0432 15.2226 42.3444 15.2698 41.5701C15.2698 36.8865 15.2698 32.1934 15.2698 27.5098C15.2698 25.9895 15.7703 24.4692 16.6957 23.2605C17.8477 21.7308 19.6419 20.7204 21.5304 20.5315Z" fill="white"/>
<path d="M4.61784 25.9801C5.84541 24.8375 7.48846 24.1765 9.15984 24.1388C10.4629 24.1199 11.7661 24.1293 13.0692 24.1293C12.6537 25.3002 12.4648 26.5372 12.4743 27.7837C12.4743 31.9102 12.4743 36.0273 12.4743 40.1538C12.4837 41.1075 12.3987 42.0801 12.7103 42.9961C11.0767 42.9961 9.45256 42.9961 7.81896 42.9961C7.12963 42.9866 6.4403 43.0244 5.75098 42.9111C4.96722 42.76 4.24013 42.3917 3.65467 41.844C2.85203 41.0886 2.39878 39.9933 2.35156 38.879V30.9376C2.40822 29.0679 3.22974 27.236 4.61784 25.9801Z" fill="#B756FE"/>
<path d="M39.9805 24.1292C41.1325 24.1198 42.2845 24.1292 43.4271 24.1292C44.1259 24.1292 44.8341 24.1859 45.5045 24.3653C47.0248 24.7619 48.394 25.7061 49.3289 26.9715C50.1787 28.1141 50.6509 29.5116 50.6886 30.9375V38.8789C50.6414 39.5116 50.5187 40.1537 50.2165 40.7202C49.631 41.8723 48.479 42.7221 47.2042 42.9299C46.5432 43.0337 45.8822 42.996 45.2118 43.0054C43.5782 43.0054 41.954 43.0054 40.3204 43.0054C40.4809 42.486 40.5659 41.9384 40.5565 41.3907C40.5565 36.792 40.5565 32.1934 40.5565 27.6042C40.5754 26.4144 40.3676 25.2434 39.9805 24.1292Z" fill="#B756FE"/>
</svg>
