<svg width="48" height="45" viewBox="0 0 48 45" fill="none" xmlns="http://www.w3.org/2000/svg">
<g clip-path="url(#clip0_264_2602)">
<path d="M23.6043 0.0562002C24.4283 -0.196609 25.3459 0.477549 25.374 1.33897C25.3834 2.90264 25.374 4.46631 25.374 6.03935C25.3927 6.68541 24.8965 7.30339 24.2598 7.42511C23.4545 7.62174 22.5931 6.95695 22.5744 6.13298C22.565 4.56931 22.5744 3.00564 22.565 1.44197C22.5463 0.805264 22.9957 0.215376 23.6043 0.0562002Z" fill="#DF2DB1"/>
<path d="M13.3152 3.3335C13.7928 3.20241 14.3358 3.35223 14.6823 3.70803C15.8995 4.92526 17.1167 6.14249 18.334 7.35035C18.7179 7.6968 18.9145 8.23987 18.7928 8.74549C18.6804 9.28856 18.2122 9.71927 17.6692 9.8129C17.2291 9.88781 16.7609 9.74736 16.4426 9.43837C15.2066 8.20241 13.98 6.96646 12.7441 5.73987C12.4164 5.43088 12.2291 4.97208 12.2853 4.52264C12.3415 3.96084 12.7628 3.46459 13.3152 3.3335Z" fill="#DF2DB1"/>
<path d="M33.905 3.33318C34.5137 3.16464 35.2253 3.4549 35.5062 4.03543C35.7964 4.56913 35.6841 5.27138 35.244 5.69273C33.9987 6.93805 32.7534 8.19273 31.4987 9.43805C30.9931 9.94367 30.1129 9.97176 29.5886 9.48487C28.9987 8.98861 28.9612 7.9961 29.523 7.45303C30.7683 6.20771 32.0137 4.96239 33.259 3.70771C33.4369 3.52981 33.6616 3.39872 33.905 3.33318Z" fill="#DF2DB1"/>
<path d="M13.5768 14.5691C14.9625 13.4174 16.7416 12.7714 18.5393 12.762C21.3202 12.762 24.1011 12.762 26.8727 12.762C28.0431 12.7245 29.2228 13.0148 30.206 13.6609C30.7678 14.0167 31.236 14.5036 31.7041 14.9717C33.2303 16.4979 34.7659 18.0335 36.2921 19.5597C36.6573 19.9156 37.0225 20.2994 37.2285 20.777C37.8371 22.0504 37.4625 23.7077 36.3483 24.5785C35.1498 25.5803 33.2303 25.468 32.1255 24.3912C30.7865 23.071 29.4757 21.732 28.1461 20.4118C27.8652 20.1309 27.4719 19.9811 27.0787 19.9811C23.5487 19.9717 20.0187 19.9811 16.4888 19.9811C14.9625 21.2639 13.4363 22.5466 11.9007 23.8294C11.3296 24.3163 10.7303 24.7657 10.2715 25.365C8.96067 27.0129 8.64232 29.3818 9.45693 31.32C10.103 32.9118 11.4794 34.1759 13.1086 34.7096C13.2491 35.5616 13.5487 36.3856 14.0075 37.1159C13.2772 37.0691 12.4064 37.3032 11.8071 36.7508C10.6648 35.6365 9.55056 34.4942 8.4176 33.3706C6.26405 33.3612 4.11985 33.3706 1.96629 33.3706C1.5824 33.3706 1.17041 33.4081 0.805243 33.2302C0.365169 33.0148 0.0842697 32.5841 0 32.1159V16.8163C0.0842697 16.1234 0.702247 15.5523 1.40449 15.5616C5.11236 15.5616 8.82022 15.5616 12.5281 15.5616C12.8652 15.2245 13.2022 14.8781 13.5768 14.5691Z" fill="#F6F6F7"/>
<path d="M39.1016 18.4741C41.5828 18.4741 44.0547 18.4741 46.536 18.4741C47.2195 18.4554 47.8094 19.0078 47.9405 19.6726V35.019C47.8469 35.7026 47.2383 36.2737 46.5454 36.2644C44.6727 36.2737 42.8001 36.2644 40.9274 36.2644C40.7401 36.2737 40.5061 36.2175 40.3656 36.3767C37.2476 38.9984 34.1203 41.6108 31.0023 44.2325C30.2345 44.8973 29.1484 45.1595 28.1652 44.9067C26.9574 44.6164 25.9929 43.5677 25.815 42.3411C25.6465 41.3954 25.9836 40.4123 26.6016 39.6913C25.9836 40.1782 25.3937 40.7026 24.7851 41.1988C24.0828 41.8074 23.109 42.079 22.2008 41.9198C20.9742 41.7325 19.9349 40.7494 19.654 39.5509C19.3825 38.4835 19.7289 37.3037 20.5154 36.5453C19.8319 36.9947 18.9892 37.2288 18.1652 37.0883C16.8918 36.9011 15.8057 35.8617 15.5622 34.5883C15.3469 33.5396 15.712 32.4067 16.4798 31.6763C15.6746 32.2381 14.6259 32.4535 13.6802 32.1539C12.4162 31.7887 11.4705 30.5715 11.433 29.2606C11.3862 28.2775 11.8356 27.2943 12.6034 26.6763C14.1577 25.3936 15.6746 24.0733 17.2383 22.8093C20.3469 22.7999 23.4555 22.7999 26.5641 22.8093C27.5379 23.8018 28.5304 24.785 29.5135 25.7681C29.9255 26.1707 30.3094 26.6014 30.7776 26.9385C31.8544 27.7438 33.212 28.1557 34.5604 28.0996C35.8338 28.0621 37.0791 27.5939 38.0716 26.7981C39.2701 25.843 40.0847 24.4011 40.272 22.8748C40.478 21.3205 40.0379 19.7194 39.1016 18.4741Z" fill="#F6F6F7"/>
</g>
<defs>
<clipPath id="clip0_264_2602">
<rect width="47.9401" height="45" fill="white"/>
</clipPath>
</defs>
</svg>
