<svg width="191" height="53" viewBox="0 0 191 53" fill="none" xmlns="http://www.w3.org/2000/svg">
<g clip-path="url(#clip0_264_2436)">
<path d="M49.9782 36V16.6833H56.9159C59.2376 16.6833 60.9879 17.1004 62.1668 17.9348C63.3458 18.7691 63.9353 20.0932 63.9353 21.9069C63.9353 22.7231 63.7629 23.4396 63.4183 24.0563C63.0737 24.673 62.5659 25.1627 61.8948 25.5254C61.2418 25.87 60.4619 26.0514 59.555 26.0696L59.5278 25.9607C61.1783 25.997 62.457 26.4505 63.3639 27.3211C64.2889 28.1735 64.7515 29.2981 64.7515 30.6947C64.7515 32.4541 64.162 33.7781 62.983 34.6669C61.8041 35.5556 60.1263 36 57.9498 36H49.9782ZM52.9166 33.361H57.8682C59.0834 33.361 60.0266 33.1161 60.6977 32.6264C61.3869 32.1185 61.7315 31.3839 61.7315 30.4226C61.7315 29.4795 61.3869 28.7449 60.6977 28.2189C60.0266 27.6929 59.0834 27.4299 57.8682 27.4299H52.9166V33.361ZM52.9166 24.9269H56.8615C58.1493 24.9269 59.1469 24.682 59.8543 24.1923C60.5616 23.7026 60.9153 23.0133 60.9153 22.1246C60.9153 21.1814 60.5707 20.4831 59.8815 20.0297C59.2104 19.5581 58.2037 19.3223 56.8615 19.3223H52.9166V24.9269ZM66.6961 29.3344V26.8041H75.8103V29.3344H66.6961ZM78.4485 36V16.6833H82.4751L88.2157 32.5448L93.9563 16.6833H97.9829V36H95.0446V21.8525L89.8481 35.9728H86.5833L81.3868 21.8525V36H78.4485ZM101.059 36V21.5261H103.943V36H101.059ZM101.005 19.4311V16.5472H103.998V19.4311H101.005ZM107.443 36V21.5261H110.082L110.191 25.3894L109.837 25.199C110.001 24.2558 110.309 23.494 110.762 22.9136C111.216 22.3332 111.769 21.9069 112.422 21.6349C113.075 21.3447 113.782 21.1996 114.544 21.1996C115.632 21.1996 116.53 21.4444 117.238 21.9342C117.963 22.4057 118.507 23.0587 118.87 23.893C119.251 24.7092 119.441 25.6433 119.441 26.6953V36H116.557V27.5659C116.557 26.7135 116.467 25.997 116.285 25.4166C116.104 24.8362 115.805 24.3918 115.388 24.0835C114.97 23.7751 114.426 23.621 113.755 23.621C112.739 23.621 111.914 23.9565 111.279 24.6276C110.645 25.2987 110.327 26.2781 110.327 27.5659V36H107.443ZM128.341 36.3265C126.926 36.3265 125.702 36.0181 124.668 35.4015C123.652 34.7848 122.863 33.9051 122.301 32.7624C121.757 31.6197 121.485 30.2866 121.485 28.763C121.485 27.2395 121.757 25.9154 122.301 24.7909C122.863 23.6482 123.652 22.7685 124.668 22.1518C125.683 21.517 126.881 21.1996 128.259 21.1996C129.565 21.1996 130.717 21.5079 131.714 22.1246C132.712 22.7231 133.483 23.5938 134.027 24.7364C134.589 25.8791 134.87 27.2576 134.87 28.8719V29.6064H124.477C124.55 31.0212 124.922 32.0822 125.593 32.7896C126.282 33.497 127.207 33.8507 128.368 33.8507C129.22 33.8507 129.928 33.6512 130.49 33.2521C131.052 32.8531 131.442 32.318 131.66 31.6469L134.653 31.8374C134.272 33.1796 133.519 34.2678 132.394 35.1022C131.288 35.9184 129.937 36.3265 128.341 36.3265ZM124.477 27.4299H131.823C131.732 26.1421 131.361 25.1899 130.708 24.5732C130.073 23.9565 129.257 23.6482 128.259 23.6482C127.225 23.6482 126.373 23.9747 125.702 24.6276C125.049 25.2624 124.641 26.1965 124.477 27.4299ZM136.976 36V21.5261H139.615L139.724 25.3622L139.479 25.2806C139.679 23.9747 140.078 23.0224 140.676 22.4239C141.293 21.8253 142.118 21.5261 143.152 21.5261H144.54V24.1107H143.152C142.427 24.1107 141.819 24.2286 141.329 24.4644C140.84 24.7002 140.468 25.0629 140.214 25.5526C139.978 26.0424 139.86 26.6772 139.86 27.4571V36H136.976ZM149.885 36.3265C148.38 36.3265 147.173 35.9819 146.266 35.2926C145.378 34.6034 144.933 33.633 144.933 32.3815C144.933 31.13 145.305 30.1596 146.049 29.4704C146.811 28.763 147.98 28.2552 149.558 27.9468L154.537 26.9946C154.537 25.87 154.274 25.0357 153.748 24.4916C153.222 23.9293 152.442 23.6482 151.409 23.6482C150.483 23.6482 149.758 23.8568 149.232 24.2739C148.706 24.673 148.343 25.2715 148.144 26.0696L145.178 25.8791C145.45 24.4281 146.121 23.2854 147.191 22.4511C148.28 21.6167 149.685 21.1996 151.409 21.1996C153.367 21.1996 154.855 21.7256 155.87 22.7776C156.904 23.8114 157.421 25.2715 157.421 27.1578V32.7896C157.421 33.1342 157.476 33.3791 157.584 33.5242C157.711 33.6512 157.911 33.7146 158.183 33.7146H158.7V36C158.609 36.0181 158.464 36.0363 158.265 36.0544C158.065 36.0726 157.857 36.0816 157.639 36.0816C157.022 36.0816 156.487 35.9819 156.034 35.7823C155.598 35.5828 155.272 35.2564 155.054 34.8029C154.837 34.3313 154.728 33.7056 154.728 32.9256L155.027 33.0617C154.882 33.6965 154.564 34.2588 154.075 34.7485C153.603 35.2382 152.996 35.6282 152.252 35.9184C151.526 36.1904 150.737 36.3265 149.885 36.3265ZM150.347 34.0411C151.218 34.0411 151.962 33.8779 152.578 33.5514C153.195 33.2068 153.676 32.7352 154.02 32.1367C154.365 31.5381 154.537 30.8579 154.537 30.0962V29.1711L150.293 29.9873C149.422 30.1506 148.806 30.4136 148.443 30.7763C148.098 31.1209 147.926 31.5653 147.926 32.1094C147.926 32.7261 148.135 33.2068 148.552 33.5514C148.987 33.8779 149.586 34.0411 150.347 34.0411ZM163.289 36C162.346 36 161.584 35.7551 161.003 35.2654C160.423 34.7757 160.133 33.9958 160.133 32.9256V16.6833H163.017V32.6536C163.017 32.9801 163.098 33.2249 163.261 33.3882C163.443 33.5514 163.697 33.633 164.023 33.633H165.166V36H163.289ZM172.386 36.3265C171.026 36.3265 169.874 36.1179 168.931 35.7007C168.006 35.2836 167.29 34.7122 166.782 33.9867C166.274 33.2431 165.984 32.3906 165.911 31.4293L168.877 31.2932C169.022 32.0913 169.366 32.7261 169.911 33.1977C170.455 33.6693 171.28 33.9051 172.386 33.9051C173.293 33.9051 174.01 33.76 174.536 33.4698C175.062 33.1796 175.325 32.7171 175.325 32.0822C175.325 31.7376 175.234 31.4474 175.053 31.2116C174.889 30.9577 174.563 30.7491 174.073 30.5859C173.583 30.4045 172.858 30.2322 171.897 30.0689C170.464 29.7969 169.339 29.4795 168.523 29.1167C167.707 28.754 167.126 28.2914 166.782 27.7292C166.437 27.1669 166.265 26.4867 166.265 25.6887C166.265 24.3646 166.755 23.2854 167.734 22.4511C168.732 21.6167 170.164 21.1996 172.033 21.1996C173.284 21.1996 174.336 21.4172 175.189 21.8525C176.041 22.2697 176.703 22.841 177.175 23.5666C177.664 24.2739 177.973 25.072 178.1 25.9607L175.134 26.124C175.044 25.6161 174.862 25.1808 174.59 24.8181C174.336 24.4372 173.992 24.147 173.556 23.9474C173.121 23.7298 172.604 23.621 172.005 23.621C171.08 23.621 170.391 23.8023 169.938 24.1651C169.484 24.5279 169.258 24.9994 169.258 25.5798C169.258 26.0152 169.357 26.3688 169.557 26.6409C169.775 26.913 170.119 27.1397 170.591 27.3211C171.062 27.4843 171.688 27.6294 172.468 27.7564C173.973 28.0103 175.152 28.3277 176.005 28.7086C176.857 29.0714 177.456 29.5248 177.8 30.0689C178.145 30.6131 178.317 31.2751 178.317 32.055C178.317 32.9619 178.063 33.7328 177.556 34.3676C177.048 35.0024 176.349 35.4921 175.461 35.8368C174.572 36.1632 173.547 36.3265 172.386 36.3265Z" fill="url(#paint0_linear_264_2436)"/>
<rect x="22.5547" y="6.76123" width="27.654" height="27.654" transform="rotate(45 22.5547 6.76123)" fill="#B65C40"/>
<rect x="22.5547" y="18.0285" width="18.6767" height="18.6767" transform="rotate(45 22.5547 18.0285)" fill="#B65C40" stroke="#2E2923" stroke-width="2.0405"/>
</g>
<defs>
<linearGradient id="paint0_linear_264_2436" x1="113.55" y1="2" x2="113.55" y2="51" gradientUnits="userSpaceOnUse">
<stop stop-color="#F6F6F7"/>
<stop offset="1" stop-color="#7E808F"/>
</linearGradient>
<clipPath id="clip0_264_2436">
<rect width="191" height="53" fill="white"/>
</clipPath>
</defs>
</svg>
