<svg width="44" height="40" viewBox="0 0 44 40" fill="none" xmlns="http://www.w3.org/2000/svg">
<path d="M31.2194 35.3331C31.4381 35.5322 31.6156 35.7724 31.7415 36.0401C31.8674 36.3077 31.9394 36.5975 31.9534 36.893C31.9673 37.1885 31.9229 37.4838 31.8227 37.7621C31.7225 38.0404 31.5685 38.2962 31.3694 38.515C31.1703 38.7338 30.9301 38.9112 30.6624 39.0371C30.3948 39.1631 30.105 39.2351 29.8095 39.249C29.514 39.2629 29.2187 39.2185 28.9404 39.1183C28.6621 39.0181 28.4063 38.8641 28.1875 38.665C21.1572 32.2785 11.998 28.7432 2.5 28.75C1.90326 28.75 1.33097 28.5129 0.90901 28.091C0.487053 27.669 0.25 27.0967 0.25 26.5C0.25 25.9033 0.487053 25.331 0.90901 24.909C1.33097 24.4871 1.90326 24.25 2.5 24.25C13.1191 24.24 23.36 28.192 31.2194 35.3331ZM17.2056 34.9581C12.5947 32.834 7.57663 31.7392 2.5 31.75C1.90326 31.75 1.33097 31.9871 0.90901 32.409C0.487053 32.831 0.25 33.4033 0.25 34C0.25 34.5967 0.487053 35.169 0.90901 35.591C1.33097 36.0129 1.90326 36.25 2.5 36.25C6.92777 36.2388 11.3049 37.1921 15.3269 39.0437C15.5965 39.1752 15.8897 39.2514 16.1892 39.2679C16.4887 39.2844 16.7885 39.2408 17.0709 39.1398C17.3534 39.0387 17.6127 38.8822 17.8338 38.6794C18.0548 38.4767 18.2331 38.2317 18.3581 37.9591C18.4832 37.6864 18.5524 37.3915 18.5618 37.0917C18.5712 36.7918 18.5205 36.4932 18.4128 36.2132C18.305 35.9333 18.1424 35.6777 17.9345 35.4615C17.7265 35.2453 17.4774 35.0729 17.2019 34.9544L17.2056 34.9581ZM43.75 26.5C43.75 27.0967 43.5129 27.669 43.091 28.091C42.669 28.5129 42.0967 28.75 41.5 28.75C39.5301 28.749 37.5631 28.8995 35.6162 29.2C37.8357 31.1483 39.8803 33.2871 41.7269 35.5919C41.9226 35.8211 42.0703 36.0873 42.1611 36.3746C42.252 36.662 42.2842 36.9647 42.2558 37.2647C42.2275 37.5648 42.1391 37.8561 41.996 38.1213C41.8529 38.3866 41.6579 38.6203 41.4227 38.8088C41.1875 38.9973 40.9169 39.1366 40.6268 39.2184C40.3368 39.3002 40.0332 39.323 39.7342 39.2853C39.4352 39.2475 39.1468 39.1501 38.8861 38.9988C38.6255 38.8475 38.3979 38.6453 38.2169 38.4044C33.9392 33.0404 28.5053 28.7117 22.3208 25.7414C16.1363 22.771 9.36082 21.2357 2.5 21.25C1.90326 21.25 1.33097 21.0129 0.90901 20.591C0.487053 20.169 0.25 19.5967 0.25 19C0.25 18.4033 0.487053 17.831 0.90901 17.409C1.33097 16.9871 1.90326 16.75 2.5 16.75C5.26378 16.7503 8.02293 16.976 10.75 17.425V11.5C10.75 11.1507 10.8313 10.8062 10.9875 10.4938C11.1438 10.1813 11.3706 9.90958 11.65 9.7L23.65 0.7C24.0395 0.4079 24.5132 0.25 25 0.25C25.4868 0.25 25.9605 0.4079 26.35 0.7L38.35 9.7C38.6294 9.90958 38.8562 10.1813 39.0125 10.4938C39.1687 10.8062 39.25 11.1507 39.25 11.5V16.8025C40 16.7706 40.75 16.75 41.5 16.75C42.0967 16.75 42.669 16.9871 43.091 17.409C43.5129 17.831 43.75 18.4033 43.75 19C43.75 19.5967 43.5129 20.169 43.091 20.591C42.669 21.0129 42.0967 21.25 41.5 21.25C36.7644 21.242 32.0566 21.9727 27.5462 23.4156C28.7063 24.0844 29.8406 24.8006 30.9494 25.5644C34.3981 24.6901 37.9422 24.2486 41.5 24.25C42.0967 24.25 42.669 24.4871 43.091 24.909C43.5129 25.331 43.75 25.9033 43.75 26.5ZM27.25 16.75H22.75V20.3688C24.2288 19.7725 25.7288 19.2481 27.25 18.7956V16.75ZM15.25 18.3794C16.2606 18.6419 17.26 18.9419 18.25 19.2644V14.5C18.25 13.9033 18.4871 13.331 18.909 12.909C19.331 12.4871 19.9033 12.25 20.5 12.25H29.5C30.0967 12.25 30.669 12.4871 31.091 12.909C31.5129 13.331 31.75 13.9033 31.75 14.5V17.6875C32.75 17.4925 33.75 17.3269 34.75 17.1906V12.625L25 5.3125L15.25 12.625V18.3794Z" fill="#134021"/>
</svg>
