<svg width="36" height="40" viewBox="0 0 36 40" fill="none" xmlns="http://www.w3.org/2000/svg">
<path d="M20.5327 0.535861L7.43466 8.36773C6.90046 8.20393 6.34481 8.12076 5.78606 8.12099C2.5905 8.12099 0 10.8037 0 14.1131C0 15.4768 0.439875 16.7341 1.18069 17.7411C1.08403 17.6098 0.992764 17.4745 0.907125 17.3357L7.97709 30.0196L7.96425 30.0718C7.81184 30.7067 7.73509 31.3575 7.73559 32.0105L7.73681 36.0049L3.87825 36.0052V40H28V36L23.1664 36.0049L23.1653 32.0105C23.1653 28.813 21.3516 26.0542 18.7314 24.7774L18.3154 24.59L12.67 14.4631L22.5242 8.5708L26.8218 16.2888C26.642 16.9518 26.6816 17.678 26.9738 18.3404L27.1015 18.5972C27.2955 18.9449 27.5466 19.2373 27.8354 19.4687L27.838 23.5607L27.8346 23.576L31.5605 24.61L32.0597 22.6806L29.7668 22.043L29.767 20.0913C30.2063 20.0664 30.6466 19.9371 31.0536 19.6938C31.4842 19.4363 31.8267 19.0815 32.0702 18.6716L33.7589 19.6821L33.1507 22.041L35.0137 22.5579L36 18.7212L35.9957 18.7207L35.9989 18.7145L32.4599 16.5965C32.4025 16.2471 32.2849 15.9103 32.1125 15.601C31.663 14.7949 30.9065 14.2868 30.0842 14.144L25.6658 6.22105C26.458 4.99574 26.5621 3.36139 25.8021 1.99808C24.7369 0.0874547 22.3777 -0.567295 20.5327 0.535861ZM15.4505 28.0157C17.484 28.0157 19.15 29.6453 19.2972 31.7123L19.3078 32.0105V36.0052H11.593V32.0105C11.593 29.9045 13.1666 28.1792 15.1626 28.0266L15.4505 28.0157ZM9.97575 18.246L10.1893 18.0007L13.6662 24.2357L13.7398 24.218C12.5655 24.4933 11.4928 25.046 10.5893 25.8061L10.253 26.1061L6.85041 20.0042L6.79781 20.014C8.03831 19.7874 9.1425 19.1516 9.97575 18.246ZM5.78606 12.1158C6.85125 12.1158 7.71478 13.01 7.71478 14.1131C7.71478 15.2162 6.85125 16.1105 5.78606 16.1105C4.72088 16.1105 3.85744 15.2163 3.85744 14.1131C3.85744 13.01 4.72088 12.1158 5.78606 12.1158ZM22.2251 3.04227C22.7577 3.04227 23.1894 3.48945 23.1894 4.04099C23.1894 4.59252 22.7577 5.0397 22.2251 5.0397C21.6925 5.0397 21.2608 4.59252 21.2608 4.04099C21.2608 3.48945 21.6925 3.04227 22.2251 3.04227Z" fill="#134021"/>
</svg>
