<svg width="44" height="35" viewBox="0 0 44 35" fill="none" xmlns="http://www.w3.org/2000/svg">
<path d="M12 24.75C12 25.195 11.868 25.63 11.6208 26C11.3736 26.37 11.0222 26.6584 10.611 26.8287C10.1999 26.999 9.74751 27.0436 9.31105 26.9568C8.87459 26.87 8.47368 26.6557 8.15901 26.341C7.84435 26.0263 7.63005 25.6254 7.54324 25.189C7.45642 24.7525 7.50098 24.3001 7.67128 23.889C7.84157 23.4778 8.12996 23.1264 8.49997 22.8792C8.86998 22.632 9.305 22.5 9.75 22.5C10.3467 22.5 10.919 22.7371 11.341 23.159C11.763 23.581 12 24.1533 12 24.75ZM19.5 24.75C19.5 26.6784 18.9282 28.5634 17.8568 30.1668C16.7855 31.7702 15.2627 33.0199 13.4812 33.7578C11.6996 34.4958 9.73919 34.6889 7.84787 34.3127C5.95656 33.9365 4.21928 33.0079 2.85571 31.6443C1.49215 30.2807 0.563554 28.5434 0.187348 26.6521C-0.188858 24.7608 0.00422452 22.8004 0.742179 21.0188C1.48013 19.2373 2.72982 17.7145 4.3332 16.6432C5.93657 15.5718 7.82164 15 9.75 15C12.335 15.003 14.8132 16.0312 16.641 17.859C18.4688 19.6868 19.497 22.1651 19.5 24.75ZM15 24.75C15 23.7117 14.6921 22.6966 14.1152 21.8333C13.5383 20.9699 12.7184 20.297 11.7591 19.8996C10.7998 19.5023 9.74418 19.3983 8.72578 19.6009C7.70738 19.8035 6.77192 20.3035 6.03769 21.0377C5.30347 21.7719 4.80345 22.7074 4.60088 23.7258C4.39831 24.7442 4.50228 25.7998 4.89964 26.7591C5.297 27.7184 5.9699 28.5383 6.83326 29.1152C7.69662 29.6921 8.71165 30 9.75 30C11.1424 30 12.4777 29.4469 13.4623 28.4623C14.4469 27.4777 15 26.1424 15 24.75ZM43.5 27.75C43.497 29.4732 42.8351 31.1299 41.65 32.3808C40.4648 33.6317 38.8461 34.382 37.1256 34.4778C35.4051 34.5737 33.7131 34.008 32.3963 32.8966C31.0795 31.7851 30.2376 30.2122 30.0431 28.5H24C23.6022 28.5 23.2206 28.342 22.9393 28.0607C22.658 27.7794 22.5 27.3978 22.5 27V24.75C22.4965 21.3696 21.1521 18.1286 18.7618 15.7382C16.3714 13.3479 13.1304 12.0035 9.75 12H4.50001C4.10218 12 3.72065 11.842 3.43935 11.5607C3.15804 11.2794 3.00001 10.8978 3.00001 10.5C3.00001 10.1022 3.15804 9.72065 3.43935 9.43934C3.72065 9.15804 4.10218 9 4.50001 9H6V3H4.50001C4.10218 3 3.72065 2.84196 3.43935 2.56066C3.15804 2.27936 3.00001 1.89782 3.00001 1.5C3.00001 1.10218 3.15804 0.720645 3.43935 0.43934C3.72065 0.158036 4.10218 0 4.50001 0H27C27.3978 0 27.7794 0.158036 28.0607 0.43934C28.342 0.720645 28.5 1.10218 28.5 1.5C28.5 1.89782 28.342 2.27936 28.0607 2.56066C27.7794 2.84196 27.3978 3 27 3H25.5V10.8525L30 12.0713V6C30 5.60218 30.158 5.22064 30.4393 4.93934C30.7207 4.65804 31.1022 4.5 31.5 4.5C31.8978 4.5 32.2794 4.65804 32.5607 4.93934C32.842 5.22064 33 5.60218 33 6V12.8831L39.8231 14.7319L39.8625 14.7431C40.4835 14.926 41.0281 15.3062 41.4137 15.8262C41.7994 16.3462 42.0052 16.9776 42 17.625V23.5238C42.9697 24.7189 43.4993 26.2109 43.5 27.75ZM39.75 27.75C39.75 27.1567 39.5741 26.5766 39.2444 26.0833C38.9148 25.5899 38.4462 25.2054 37.8981 24.9784C37.3499 24.7513 36.7467 24.6919 36.1647 24.8076C35.5828 24.9234 35.0482 25.2091 34.6287 25.6287C34.2091 26.0482 33.9234 26.5828 33.8077 27.1647C33.6919 27.7467 33.7513 28.3499 33.9784 28.8981C34.2054 29.4462 34.59 29.9148 35.0833 30.2444C35.5766 30.5741 36.1567 30.75 36.75 30.75C37.5457 30.75 38.3087 30.4339 38.8713 29.8713C39.4339 29.3087 39.75 28.5457 39.75 27.75Z" fill="#134021"/>
</svg>
