<svg width="28" height="27" viewBox="0 0 28 27" fill="none" xmlns="http://www.w3.org/2000/svg">
<path d="M19.3337 0.666504C23.752 0.666504 27.3337 4.05975 27.3337 8.24544C27.3337 9.4989 27.0793 10.8166 26.5707 12.1986L24.4382 10.0719C24.5675 9.53207 24.6418 9.013 24.6616 8.51525L24.6671 8.24544C24.6671 5.56569 22.3105 3.33313 19.3337 3.33313C18.3189 3.33313 17.3551 3.59375 16.5265 4.06907L12.7932 7.66725C12.2726 8.18794 12.2726 9.03213 12.7932 9.55282C13.3139 10.0736 14.1582 10.0736 14.6789 9.55282L18.2974 5.78963L20.1124 7.62913L25.2605 12.7769C26.8226 14.339 26.8226 16.8717 25.2605 18.4338C24.7606 18.9336 24.1614 19.2736 23.5264 19.4535L23.4604 19.4706C23.7404 20.7566 23.3804 22.1539 22.3807 23.1536C21.3516 24.1827 19.9014 24.5338 18.5849 24.2071C18.4042 24.8254 18.0674 25.3954 17.5763 25.8429C16.1732 27.1214 14.1237 27.2399 12.5889 26.1188L12.3526 25.9135L11.3144 24.9823C4.21612 18.5067 0.666992 12.9278 0.666992 8.24544C0.666992 4.05969 4.24874 0.666504 8.66706 0.666504C10.7166 0.666504 12.5861 1.39663 14.0015 2.59732C15.4159 1.39619 17.2848 0.666504 19.3337 0.666504ZM8.66706 3.33313C5.69024 3.33313 3.33368 5.56569 3.33368 8.24544C3.33368 11.9933 6.51543 16.9948 13.0949 22.9972L13.6937 23.5345C14.2212 24.0667 15.1976 24.4789 15.7651 23.9317C16.2806 23.4346 16.2279 22.7429 15.8236 22.2301L15.0006 21.3904L11.9195 18.3094L11.8628 18.2596L13.7708 16.3503L16.5326 19.1518L17.5763 20.1951C17.6472 20.2659 17.7152 20.3395 17.7804 20.4156L18.4466 21.0943C19.1408 21.7886 20.0015 21.8144 20.5222 21.2937C21.0429 20.773 21.0264 19.903 20.3322 19.2087L17.1432 15.9729L15.6468 14.4756L17.5321 12.5889L18.4967 13.5539C18.5944 13.6348 18.6882 13.7203 18.7779 13.81L19.9939 15.0529L21.4893 16.5481C22.01 17.0688 22.8542 17.0688 23.3749 16.5481C23.8956 16.0274 23.8956 15.1833 23.3749 14.6625L18.3564 9.64513L16.5645 11.4384C15.0024 13.0006 12.4697 13.0006 10.9076 11.4384C9.34556 9.87638 9.34556 7.34369 10.9076 5.78163L12.1551 4.53313L12.0264 4.43138C11.0876 3.72763 9.91562 3.33313 8.66706 3.33313Z" fill="#00183A"/>
</svg>
