<svg width="34" height="30" viewBox="0 0 34 30" fill="none" xmlns="http://www.w3.org/2000/svg">
<path d="M2 9.00021L16.598 1.70121C16.7228 1.63889 16.8605 1.60645 17 1.60645C17.1395 1.60645 17.2772 1.63889 17.402 1.70121L32 9.00021M29 13.5002V25.5002C29 26.2959 28.6839 27.0589 28.1213 27.6215C27.5587 28.1841 26.7957 28.5002 26 28.5002H8C7.20435 28.5002 6.44129 28.1841 5.87868 27.6215C5.31607 27.0589 5 26.2959 5 25.5002V13.5002" fill="#00183A"/>
<path d="M2 9.00021L16.598 1.70121C16.7228 1.63889 16.8605 1.60645 17 1.60645C17.1395 1.60645 17.2772 1.63889 17.402 1.70121L32 9.00021M29 13.5002V25.5002C29 26.2959 28.6839 27.0589 28.1213 27.6215C27.5587 28.1841 26.7957 28.5002 26 28.5002H8C7.20435 28.5002 6.44129 28.1841 5.87868 27.6215C5.31607 27.0589 5 26.2959 5 25.5002V13.5002" stroke="#1E1E1E" stroke-width="2.88" stroke-linecap="round" stroke-linejoin="round"/>
</svg>
